<svg width="271" height="271" viewBox="0 0 271 271" fill="none" xmlns="http://www.w3.org/2000/svg">
<path d="M81.9712 233.934L82.8934 232.414C83.1859 231.93 83.3004 231.53 83.2368 231.212C83.1732 230.894 82.9951 230.639 82.6962 230.461C82.4355 230.302 82.0921 230.27 81.6723 230.366C81.4561 229.908 81.1572 229.488 80.782 229.107C80.4067 228.725 79.9616 228.375 79.4401 228.057C78.1427 227.275 76.8708 227.002 75.6179 227.237C74.3651 227.479 73.4493 228.076 72.8642 229.049C72.4953 229.66 72.3109 230.334 72.3236 231.059C72.3363 231.784 72.5335 232.465 72.9278 233.094C73.3221 233.724 74.0089 234.481 74.9883 235.352C75.8023 236.077 76.3111 236.567 76.5146 236.827C76.8262 237.215 77.0107 237.571 77.0552 237.902C77.0997 238.233 77.0488 238.519 76.8962 238.767C76.6673 239.142 76.292 239.346 75.7705 239.384C74.9374 239.454 74.0662 239.219 73.1631 238.672C72.5843 238.322 72.1137 237.896 71.7512 237.387C71.3887 236.878 71.1789 236.471 71.1089 236.147C71.0835 235.988 71.1089 235.733 71.2043 235.39C71.2933 235.047 71.2997 234.76 71.2107 234.538C71.128 234.315 70.9626 234.131 70.7273 233.991C70.4157 233.806 70.1041 233.756 69.7924 233.851C69.4808 233.946 69.1756 234.239 68.883 234.722L68.0563 236.083C67.7637 236.567 67.6492 236.967 67.7128 237.285C67.7764 237.603 67.9609 237.858 68.2725 238.048C68.4315 238.144 68.5841 238.195 68.724 238.201C68.8703 238.207 69.0929 238.156 69.3982 238.055C69.7352 238.627 70.1295 239.142 70.5747 239.6C71.0262 240.058 71.5286 240.452 72.0883 240.789C73.5383 241.667 74.9692 241.991 76.3811 241.769C77.4495 241.597 78.2826 241.006 78.8868 240.007C79.3192 239.288 79.51 238.557 79.4592 237.813C79.4019 237.069 79.173 236.408 78.7659 235.829C78.3589 235.25 77.6975 234.544 76.7817 233.711C75.8659 232.878 75.3254 232.35 75.16 232.121C74.9056 231.784 74.7594 231.447 74.7276 231.11C74.6958 230.773 74.753 230.474 74.9056 230.226C75.1282 229.857 75.5543 229.635 76.1839 229.552C76.8135 229.469 77.494 229.647 78.2254 230.092C78.7278 230.398 79.1157 230.747 79.3956 231.148C79.6754 231.549 79.8344 231.937 79.8725 232.299C79.898 232.509 79.8471 232.808 79.7135 233.19C79.58 233.571 79.5545 233.857 79.6309 234.061C79.7263 234.322 79.898 234.531 80.146 234.684C80.4449 234.862 80.7502 234.907 81.0618 234.811C81.3734 234.716 81.6787 234.423 81.9712 233.94V233.934Z" fill="white"/>
<path d="M94.9149 238.468C95.2265 238.367 95.4491 238.15 95.5953 237.832C95.7416 237.508 95.7416 237.196 95.6081 236.904C95.4745 236.611 95.1438 236.344 94.6223 236.115L88.0909 233.209C87.5694 232.98 87.156 232.916 86.8444 233.018C86.5328 233.12 86.3102 233.336 86.1639 233.66C86.0177 233.985 86.0177 234.296 86.1512 234.595C86.2848 234.894 86.6091 235.161 87.1306 235.39L89.3183 236.357L85.5661 244.822L83.3784 243.855C82.8569 243.626 82.4435 243.562 82.1319 243.664C81.8203 243.766 81.5977 243.976 81.4578 244.294C81.3115 244.618 81.3115 244.93 81.4451 245.229C81.5786 245.528 81.903 245.795 82.4245 246.024L88.9622 248.917C89.4837 249.146 89.8971 249.21 90.2087 249.108C90.5203 249.006 90.7429 248.797 90.8828 248.479C91.0291 248.154 91.0291 247.843 90.9019 247.544C90.7747 247.245 90.444 246.978 89.9225 246.749L87.7348 245.782L91.487 237.317L93.6747 238.284C94.1962 238.513 94.6096 238.577 94.9212 238.475L94.9149 238.468Z" fill="white"/>
<path d="M110.461 242.517C110.563 242.18 110.525 241.868 110.36 241.595C110.188 241.321 109.832 241.099 109.285 240.94L106.315 240.043C105.768 239.877 105.348 239.871 105.056 240.011C104.763 240.151 104.56 240.393 104.464 240.73C104.363 241.067 104.401 241.378 104.566 241.658C104.738 241.938 105.094 242.161 105.641 242.32L106.461 242.561L104.426 249.392L101.335 238.567L98.7151 237.772C98.1682 237.607 97.7484 237.601 97.4559 237.741C97.1634 237.881 96.9598 238.122 96.8644 238.459C96.7627 238.796 96.7945 239.108 96.9662 239.388C97.1379 239.668 97.4941 239.89 98.041 240.049L98.3971 240.157L95.7579 249.035C95.2809 248.895 94.893 248.895 94.6004 249.035C94.3079 249.182 94.1107 249.417 94.0153 249.741C93.9136 250.078 93.9454 250.39 94.1171 250.67C94.2888 250.95 94.6449 251.172 95.1919 251.331L98.1682 252.215C98.7151 252.381 99.1349 252.387 99.4274 252.247C99.7199 252.107 99.9171 251.872 100.019 251.535C100.121 251.198 100.089 250.886 99.9171 250.606C99.7454 250.326 99.3892 250.104 98.8423 249.945L98.0219 249.703L100.063 242.841L103.18 253.703L105.425 254.371L108.744 243.229C109.215 243.369 109.597 243.369 109.889 243.223C110.182 243.076 110.379 242.835 110.474 242.504L110.461 242.517Z" fill="white"/>
<path d="M122.136 243.227C121.939 243.196 121.748 243.215 121.557 243.285C121.366 243.355 121.188 243.475 121.01 243.654C120.552 243.253 120.043 242.922 119.477 242.674C118.911 242.42 118.295 242.242 117.62 242.127C116.495 241.943 115.388 242.057 114.288 242.458C113.194 242.865 112.272 243.545 111.534 244.506C110.796 245.466 110.326 246.554 110.129 247.768L109.868 249.352C109.677 250.516 109.817 251.641 110.288 252.722C110.758 253.804 111.401 254.656 112.227 255.254C113.245 256.004 114.441 256.494 115.827 256.716C117.01 256.907 118.129 256.882 119.172 256.634C119.954 256.449 120.616 256.131 121.169 255.673C121.544 255.362 121.761 255.044 121.818 254.726C121.869 254.408 121.799 254.109 121.602 253.835C121.404 253.562 121.15 253.397 120.838 253.346C120.667 253.32 120.501 253.327 120.355 253.377C120.209 253.428 119.993 253.556 119.706 253.759C119.248 254.096 118.829 254.306 118.46 254.389C117.824 254.529 117.067 254.522 116.202 254.389C114.752 254.153 113.677 253.587 112.984 252.703C112.291 251.819 112.037 250.815 112.221 249.689L112.469 248.175C112.622 247.234 112.978 246.458 113.537 245.848C114.097 245.237 114.695 244.83 115.331 244.62C115.967 244.41 116.635 244.366 117.334 244.48C117.894 244.569 118.441 244.766 118.962 245.065C119.484 245.364 119.878 245.708 120.132 246.102C120.266 246.306 120.33 246.566 120.33 246.897C120.342 247.393 120.431 247.743 120.59 247.946C120.749 248.15 120.991 248.283 121.303 248.334C121.646 248.392 121.945 248.315 122.199 248.112C122.454 247.908 122.632 247.527 122.721 246.961L123.045 244.976C123.134 244.417 123.096 243.997 122.918 243.73C122.74 243.456 122.479 243.297 122.136 243.24V243.227Z" fill="white"/>
<path d="M135.489 252.737C135.133 252.724 134.847 252.832 134.618 253.068C134.389 253.303 134.268 253.704 134.242 254.276L134.198 255.554L128.163 255.338L128.29 251.866L130.369 251.942C130.344 252.565 130.388 252.966 130.497 253.15C130.719 253.538 131.056 253.735 131.489 253.754C131.902 253.767 132.239 253.602 132.5 253.246C132.627 253.074 132.703 252.731 132.722 252.215L132.824 249.493C132.843 248.927 132.748 248.514 132.538 248.266C132.328 248.018 132.048 247.884 131.705 247.872C131.266 247.859 130.923 248.031 130.668 248.4C130.547 248.571 130.477 248.966 130.452 249.583L128.372 249.506L128.493 246.091L134.007 246.288L133.963 247.522C133.944 248.094 134.039 248.501 134.249 248.743C134.459 248.991 134.738 249.118 135.095 249.131C135.451 249.144 135.737 249.036 135.96 248.8C136.182 248.565 136.303 248.164 136.328 247.605L136.462 244.005L125.848 243.611C125.275 243.592 124.868 243.687 124.62 243.897C124.372 244.107 124.239 244.393 124.226 244.743C124.213 245.099 124.321 245.385 124.557 245.614C124.792 245.843 125.193 245.964 125.765 245.989L126.134 246.002L125.797 255.255L125.428 255.243C124.868 255.224 124.461 255.319 124.207 255.529C123.952 255.739 123.819 256.019 123.806 256.362C123.793 256.718 123.902 257.004 124.137 257.233C124.372 257.462 124.773 257.583 125.345 257.608L136.481 258.009L136.615 254.365C136.634 253.799 136.538 253.386 136.328 253.138C136.119 252.89 135.839 252.756 135.495 252.743L135.489 252.737Z" fill="white"/>
<path d="M165.095 251.764C164.834 251.573 164.535 251.522 164.179 251.599C163.931 251.65 163.689 251.821 163.467 252.107L158.405 253.214C160.287 250.746 161.54 249.048 162.176 248.114C162.984 246.931 163.461 246.034 163.607 245.43C163.753 244.826 163.759 244.202 163.62 243.566C163.346 242.307 162.646 241.34 161.521 240.66C160.395 239.979 159.104 239.795 157.648 240.113C156.707 240.317 155.88 240.711 155.168 241.29C154.455 241.868 153.966 242.542 153.692 243.312C153.425 244.081 153.336 244.692 153.438 245.144C153.501 245.442 153.673 245.684 153.953 245.856C154.233 246.034 154.532 246.085 154.843 246.015C155.117 245.958 155.326 245.837 155.479 245.665C155.632 245.487 155.727 245.233 155.765 244.896C155.829 244.355 155.975 243.922 156.204 243.605C156.649 243 157.285 242.612 158.112 242.434C158.932 242.256 159.632 242.326 160.223 242.651C160.809 242.975 161.165 243.42 161.286 243.986C161.387 244.438 161.273 244.965 160.942 245.563C160.293 246.74 158.258 249.494 154.843 253.844L155.377 256.292L165.915 253.996L165.674 252.89C165.553 252.324 165.362 251.948 165.101 251.764H165.095Z" fill="white"/>
<path d="M176.491 241.357C176.077 240.155 175.409 239.118 174.481 238.241C173.552 237.369 172.707 236.842 171.95 236.657C171.193 236.479 170.366 236.536 169.469 236.848C167.905 237.382 166.932 238.463 166.55 240.085C166.169 241.707 166.226 243.246 166.722 244.696L167.562 247.157C167.969 248.353 168.636 249.389 169.558 250.261C170.481 251.132 171.32 251.666 172.077 251.85C172.834 252.035 173.667 251.971 174.57 251.666C176.134 251.132 177.114 250.051 177.495 248.435C177.877 246.82 177.826 245.275 177.33 243.818L176.491 241.357ZM175.168 248.028C174.926 248.728 174.475 249.192 173.8 249.421C173.094 249.663 172.465 249.599 171.918 249.224C170.926 248.556 170.22 247.609 169.8 246.387L168.961 243.926C168.535 242.686 168.509 241.541 168.872 240.479C169.113 239.78 169.571 239.316 170.252 239.08C170.951 238.839 171.581 238.909 172.134 239.277C173.12 239.958 173.826 240.905 174.239 242.12L175.079 244.581C175.505 245.821 175.53 246.966 175.168 248.028Z" fill="white"/>
<path d="M190.464 241.977C190.171 241.85 189.86 241.869 189.535 242.022C189.306 242.13 189.109 242.352 188.957 242.683L184.276 244.909C185.548 242.079 186.381 240.139 186.788 239.083C187.303 237.748 187.564 236.768 187.57 236.145C187.577 235.522 187.437 234.918 187.157 234.326C186.604 233.169 185.7 232.38 184.454 231.973C183.207 231.566 181.904 231.681 180.556 232.323C179.684 232.736 178.972 233.309 178.412 234.034C177.853 234.759 177.528 235.528 177.439 236.336C177.35 237.144 177.407 237.761 177.605 238.174C177.738 238.454 177.961 238.645 178.272 238.753C178.584 238.861 178.883 238.842 179.175 238.708C179.423 238.587 179.608 238.428 179.716 238.218C179.824 238.015 179.862 237.741 179.818 237.404C179.754 236.864 179.799 236.412 179.951 236.05C180.244 235.363 180.778 234.841 181.541 234.473C182.298 234.11 182.998 234.021 183.646 234.205C184.289 234.39 184.74 234.74 184.988 235.261C185.185 235.681 185.198 236.215 185.014 236.87C184.645 238.161 183.297 241.309 180.956 246.321L182.031 248.585L191.768 243.955L191.284 242.931C191.036 242.409 190.763 242.085 190.47 241.964L190.464 241.977Z" fill="white"/>
<path d="M201.009 236.116C200.691 236.047 200.316 236.148 199.89 236.403L199.4 235.595C199.82 235.341 200.081 235.054 200.17 234.736C200.259 234.418 200.214 234.113 200.036 233.814C199.858 233.515 199.61 233.337 199.292 233.274C198.974 233.21 198.599 233.305 198.173 233.566L193.365 225.648L190.688 227.27L190.853 238.463L191.877 240.148L197.372 236.81L197.861 237.617L197.073 238.094C196.583 238.387 196.297 238.692 196.201 239.01C196.106 239.322 196.15 239.627 196.329 239.926C196.513 240.231 196.767 240.409 197.085 240.473C197.403 240.536 197.81 240.416 198.3 240.123L201.016 238.476C201.505 238.183 201.792 237.878 201.887 237.56C201.982 237.248 201.938 236.943 201.76 236.644C201.582 236.345 201.327 236.167 201.009 236.097V236.116ZM193.212 236.581L193.123 229.827L196.144 234.8L193.212 236.581Z" fill="white"/>
<path d="M20.4723 164.467L29.503 162.623L29.5794 162.985C29.6938 163.532 29.8783 163.907 30.139 164.098C30.3997 164.295 30.705 164.359 31.0421 164.289C31.3855 164.219 31.6399 164.041 31.8052 163.761C31.9706 163.481 31.996 163.061 31.8816 162.508L30.4951 155.729C30.3234 154.896 30.0818 154.221 29.7701 153.706C29.4585 153.191 29.1024 152.778 28.7081 152.46C28.4219 152.218 28.0721 152.04 27.646 151.926C27.0864 151.767 26.5203 151.747 25.9353 151.868C25.1975 152.021 24.5806 152.339 24.0719 152.816C23.5631 153.299 23.1688 153.948 22.8826 154.768C22.4247 154.45 21.9541 154.234 21.4771 154.132C20.9938 154.031 20.5041 154.024 20.0017 154.132C18.946 154.349 18.1129 154.959 17.5214 155.951C16.9236 156.95 16.7646 158.139 17.0508 159.519L18.2337 165.306C18.3482 165.86 18.5326 166.235 18.7997 166.426C19.0604 166.616 19.3657 166.68 19.7091 166.61C20.0526 166.54 20.3069 166.362 20.4723 166.082C20.6376 165.802 20.6631 165.383 20.5486 164.829L20.4723 164.467ZM25.2039 155.322C25.5346 154.654 25.9353 154.272 26.3995 154.177C26.7875 154.101 27.1182 154.177 27.3916 154.431C27.7478 154.756 28.0212 155.392 28.212 156.326L29.0261 160.314L25.6618 161.001L25.0385 157.948C24.816 156.867 24.8732 155.989 25.2039 155.322ZM20.0017 162.158L19.3848 159.15C19.2131 158.317 19.2449 157.681 19.4675 157.236C19.6901 156.791 20.008 156.53 20.4151 156.441C20.873 156.346 21.2991 156.473 21.687 156.816C22.2657 157.325 22.6537 158.031 22.8381 158.94L23.3596 161.471L20.008 162.158H20.0017Z" fill="white"/>
<path d="M17.4541 150.117C17.6576 149.863 17.7403 149.45 17.7021 148.884L17.6767 148.515L26.8728 147.917L26.8982 148.286C26.9363 148.845 27.0699 149.24 27.3052 149.469C27.5405 149.698 27.8267 149.806 28.1701 149.78C28.5199 149.755 28.7997 149.621 29.0032 149.361C29.2068 149.106 29.2894 148.693 29.2513 148.127L29.0223 144.559C28.9842 143.993 28.8506 143.599 28.6153 143.37C28.38 143.141 28.0938 143.039 27.7504 143.064C27.4006 143.09 27.1208 143.223 26.9173 143.484C26.7138 143.739 26.6311 144.152 26.6692 144.718L26.7265 145.564L23.7692 145.755L23.6166 143.427C24.1317 142.136 25.798 140.444 28.6153 138.346L28.5263 137.004C28.4881 136.438 28.3546 136.043 28.1192 135.821C27.8839 135.598 27.5978 135.496 27.2543 135.522C26.8282 135.547 26.5039 135.744 26.2877 136.101C26.1795 136.298 26.1414 136.698 26.1795 137.296C25.2956 137.951 24.6469 138.473 24.2335 138.848C23.5912 139.459 23.0697 140.025 22.6626 140.552C22.1412 139.719 21.5688 139.109 20.9392 138.721C20.3096 138.333 19.6291 138.161 18.8977 138.206C17.7212 138.282 16.7481 138.803 15.9913 139.77C15.2282 140.737 14.9038 142.047 15.012 143.707L15.349 149.03C15.3872 149.596 15.5207 149.99 15.756 150.219C15.9913 150.448 16.2839 150.55 16.6337 150.524C16.9835 150.499 17.2633 150.365 17.4668 150.105L17.4541 150.117ZM17.7784 141.36C18.1282 140.864 18.5225 140.597 18.9677 140.571C19.2666 140.552 19.5782 140.654 19.8962 140.883C20.2205 141.112 20.5385 141.576 20.8629 142.276C21.1045 142.797 21.2444 143.395 21.289 144.076L21.4098 145.907L17.524 146.162L17.3523 143.465C17.2951 142.556 17.435 141.85 17.7848 141.354L17.7784 141.36Z" fill="white"/>
<path d="M15.7827 132.727C16.1324 132.758 16.4313 132.657 16.6666 132.434C16.902 132.212 17.0482 131.817 17.0927 131.251L17.1245 130.882L26.3079 131.646L26.2761 132.014C26.2316 132.574 26.3079 132.981 26.5051 133.242C26.7022 133.503 26.9757 133.649 27.3191 133.681C27.6689 133.712 27.9614 133.611 28.2031 133.388C28.4384 133.165 28.5847 132.771 28.6292 132.205L29.545 121.158L25.9263 120.859C25.3603 120.815 24.9469 120.885 24.6926 121.088C24.4318 121.286 24.2919 121.559 24.2601 121.902C24.2283 122.252 24.3301 122.545 24.5526 122.786C24.7752 123.022 25.1695 123.168 25.7355 123.213L27.0075 123.321L26.5114 129.312L23.0645 129.025L23.2362 126.965C23.8531 127.016 24.2537 126.99 24.4445 126.895C24.8388 126.691 25.0551 126.367 25.0869 125.935C25.1187 125.521 24.966 125.178 24.629 124.904C24.4636 124.771 24.1265 124.675 23.6114 124.637L20.9086 124.415C20.3425 124.37 19.9292 124.44 19.6748 124.643C19.414 124.841 19.2741 125.114 19.2423 125.458C19.2042 125.89 19.3631 126.246 19.7193 126.513C19.8846 126.64 20.2726 126.729 20.8831 126.78L20.7114 128.841L17.3217 128.561L17.7732 123.085L19.0006 123.187C19.5667 123.232 19.9737 123.162 20.2281 122.958C20.4825 122.761 20.6224 122.488 20.6542 122.138C20.686 121.788 20.5842 121.495 20.3616 121.26C20.139 121.025 19.7511 120.885 19.1914 120.84L15.6173 120.542L14.7333 131.073C14.6888 131.639 14.7587 132.053 14.9623 132.307C15.1594 132.568 15.4329 132.708 15.7827 132.739V132.727Z" fill="white"/>
<path d="M17.8001 114.164C18.1435 114.247 18.4487 114.189 18.7158 114.005C18.983 113.821 19.1801 113.452 19.3073 112.898L19.6571 111.398L27.7911 117.09C27.6448 117.656 27.6512 118.082 27.8102 118.381C27.9692 118.679 28.2236 118.864 28.5606 118.947C28.904 119.029 29.2093 118.972 29.4764 118.788C29.7435 118.603 29.9407 118.234 30.0679 117.681L30.7865 114.59C30.9137 114.037 30.901 113.617 30.742 113.337C30.583 113.051 30.335 112.873 29.9979 112.797C29.6545 112.714 29.3492 112.771 29.0821 112.956C28.815 113.14 28.6179 113.509 28.4907 114.062L28.3635 114.622L27.0915 113.738L28.3889 108.167L29.9152 107.944L29.788 108.504C29.6608 109.057 29.6736 109.477 29.8326 109.757C29.9915 110.043 30.2396 110.221 30.5766 110.297C30.9201 110.38 31.2253 110.323 31.4924 110.138C31.7595 109.954 31.9567 109.585 32.0839 109.032L32.8025 105.941C32.9297 105.388 32.917 104.974 32.758 104.695C32.599 104.415 32.351 104.237 32.0139 104.154C31.6133 104.059 31.2444 104.154 30.9201 104.44C30.7611 104.586 30.6212 104.923 30.494 105.464L18.1626 107.41L16.9987 112.364C16.8715 112.918 16.8843 113.337 17.0432 113.617C17.2022 113.903 17.4503 114.081 17.7937 114.164H17.8001ZM25.8832 108.58L25.0246 112.282L20.9099 109.369L25.8832 108.58Z" fill="white"/>
<path d="M21.8676 98.1658C22.1856 98.293 22.4908 98.2866 22.7834 98.1467C23.0759 98.0068 23.3176 97.7079 23.5084 97.25L32.0685 100.665C31.8777 101.117 31.8459 101.498 31.9604 101.804C32.0749 102.109 32.2975 102.325 32.6154 102.452C32.9398 102.586 33.2514 102.579 33.544 102.433C33.8365 102.287 34.0845 101.956 34.2944 101.428L36.0497 97.0338C36.5012 95.9018 36.6984 94.916 36.6475 94.0702C36.6157 93.536 36.4694 92.9254 36.2214 92.2386C35.9734 91.5517 35.5536 90.9094 34.9622 90.3052C34.3707 89.7074 33.6139 89.2241 32.6918 88.8552L31.6488 88.4355C30.8856 88.1302 30.2115 87.9585 29.6137 87.9204C29.0222 87.8822 28.3863 87.9204 27.7185 88.0476C27.0507 88.1748 26.4974 88.3337 26.0713 88.5245C25.499 88.7726 24.952 89.1859 24.4178 89.7647C23.8836 90.3434 23.4766 90.9857 23.1904 91.6917L21.3525 96.2643C21.1426 96.7921 21.0917 97.2055 21.2062 97.5108C21.3207 97.816 21.5433 98.0323 21.8676 98.1658ZM25.3018 92.7537C25.6134 91.9778 26.0205 91.3927 26.5292 90.9984C27.038 90.6041 27.7757 90.3625 28.7551 90.2734C29.3784 90.2162 30.0398 90.3243 30.7266 90.6042L31.7632 91.0175C32.5646 91.3355 33.1624 91.7425 33.5503 92.2386C33.9383 92.7346 34.1799 93.3324 34.2817 94.0384C34.358 94.5789 34.2181 95.2849 33.8747 96.1498L32.9461 98.4774L24.386 95.0623L25.3082 92.7601L25.3018 92.7537Z" fill="white"/>
<path d="M36.6814 77.9059L32.0398 86.5806L33.9351 87.5947L38.5767 78.92L36.6814 77.9059Z" fill="white"/>
<path d="M32.9993 74.1485C33.2918 74.3456 33.5907 74.4092 33.9087 74.3329C34.2267 74.2566 34.5447 73.9895 34.8627 73.5188L35.0725 73.2136L42.666 78.4349L42.4561 78.7401C42.1381 79.198 42.0046 79.5923 42.0427 79.9167C42.0809 80.241 42.2462 80.5018 42.5324 80.6989C42.825 80.8961 43.1239 80.9597 43.4419 80.8833C43.7599 80.807 44.0778 80.5399 44.3958 80.0693L48.3134 74.371C48.7967 73.6715 49.1147 73.0292 49.2673 72.4504C49.42 71.8717 49.4772 71.3248 49.4327 70.8223C49.4072 70.4535 49.2928 70.0719 49.0829 69.6903C48.8094 69.1815 48.4279 68.7554 47.9382 68.4184C47.3213 67.9923 46.6599 67.7633 45.9603 67.7379C45.2607 67.7061 44.5167 67.8715 43.7281 68.234C43.6454 67.6807 43.4673 67.1973 43.2129 66.7776C42.9522 66.3578 42.6151 66.0017 42.189 65.7092C41.2987 65.0986 40.2875 64.9206 39.1554 65.1813C38.0234 65.4421 37.0568 66.1543 36.2554 67.3182L32.9102 72.1833C32.5923 72.6476 32.4523 73.0419 32.4905 73.3662C32.535 73.6906 32.7004 73.9513 32.9929 74.1485H32.9993ZM42.9331 71.9925C43.5563 71.0831 44.2241 70.5171 44.9428 70.2881C45.655 70.0655 46.2083 70.0846 46.5963 70.3517C46.927 70.5807 47.0923 70.8732 47.0987 71.2421C47.1114 71.7254 46.8443 72.3614 46.3037 73.15L44.0015 76.5015L41.1715 74.5555L42.9331 71.9925ZM38.1506 68.7554C38.634 68.0559 39.1109 67.6298 39.5879 67.4835C40.0649 67.3372 40.4719 67.3818 40.8153 67.6171C41.2033 67.8842 41.4068 68.2721 41.4322 68.7936C41.4704 69.5631 41.2287 70.3326 40.7008 71.0958L39.2381 73.2263L36.4144 71.2866L38.1506 68.7618V68.7554Z" fill="white"/>
<path d="M43.7219 60.7187C44.0462 60.6869 44.396 60.458 44.7776 60.0319L46.3612 58.2575L53.2233 64.4073L51.6333 66.1817C51.2581 66.6078 51.0673 66.9766 51.0673 67.301C51.0673 67.6253 51.2009 67.9051 51.4553 68.1341C51.716 68.3694 52.0086 68.4712 52.3329 68.433C52.6572 68.3948 53.007 68.1723 53.3886 67.7462L58.1329 62.4485C58.5081 62.0288 58.6989 61.6536 58.6989 61.3292C58.6989 61.0049 58.5654 60.7251 58.311 60.4961C58.0502 60.2608 57.7577 60.1591 57.4334 60.1972C57.109 60.2354 56.7592 60.458 56.3777 60.8841L54.7941 62.6584L47.932 56.5086L49.5156 54.7343C49.8908 54.3145 50.0816 53.9393 50.0816 53.615C50.0816 53.2906 49.948 53.0108 49.6873 52.7755C49.4265 52.5402 49.134 52.4384 48.8096 52.4766C48.4917 52.5147 48.1419 52.7437 47.7603 53.1634L43.0096 58.4547C42.6344 58.8744 42.4436 59.2496 42.4436 59.574C42.4436 59.8983 42.5772 60.1781 42.8379 60.4134C43.0987 60.6488 43.3912 60.7505 43.7155 60.7124L43.7219 60.7187Z" fill="white"/>
<path d="M56.1573 52.8442C56.4816 52.8824 56.7742 52.7933 57.0349 52.5707C57.302 52.3418 57.4419 52.062 57.4483 51.7376C57.4546 51.4133 57.2766 51.0317 56.9077 50.6056L55.4577 48.9139L57.3974 47.2541L63.3946 54.2497L62.199 55.2736C61.7665 55.6425 61.5312 55.9859 61.493 56.3102C61.4549 56.6346 61.5439 56.9271 61.7665 57.1879C61.9954 57.455 62.2753 57.5949 62.5996 57.6012C62.924 57.6076 63.3055 57.4295 63.7316 57.0607L67.9163 53.4738C68.3488 53.105 68.5841 52.7615 68.6222 52.4372C68.6604 52.1128 68.5714 51.8203 68.3488 51.5596C68.1198 51.2924 67.84 51.1525 67.5156 51.1462C67.1913 51.1398 66.8097 51.3179 66.3836 51.6868L65.1816 52.717L59.1845 45.7214L61.1496 44.0361L62.5996 45.7277C62.9685 46.1602 63.3119 46.3955 63.6362 46.4337C63.9606 46.4718 64.2531 46.3828 64.5139 46.1602C64.781 45.9312 64.9209 45.6514 64.9273 45.3271C64.9336 45.0027 64.7555 44.6212 64.3867 44.1951L61.404 40.7163L52.1316 48.6468L55.1206 52.1383C55.4895 52.5707 55.8329 52.8061 56.1573 52.8442Z" fill="white"/>
<path d="M66.2268 39.7122C66.5511 39.763 66.9454 39.6295 67.4224 39.3179L69.413 38.0141L74.4689 45.7157L72.4784 47.0194C72.0014 47.331 71.7279 47.6427 71.6452 47.9607C71.5626 48.2786 71.6198 48.5775 71.8042 48.8637C71.995 49.1563 72.2558 49.328 72.5738 49.3789C72.8981 49.4297 73.2924 49.2962 73.7694 48.9846L79.7157 45.0797C80.1926 44.7681 80.4661 44.4565 80.5488 44.1385C80.6315 43.8205 80.5742 43.5216 80.3898 43.2354C80.199 42.9429 79.9383 42.7712 79.6203 42.7203C79.2959 42.6694 78.9016 42.803 78.4247 43.1146L76.4341 44.4183L71.3781 36.7167L73.3687 35.413C73.8457 35.1014 74.1192 34.7898 74.2018 34.4718C74.2845 34.1538 74.2273 33.8549 74.0365 33.556C73.8457 33.2634 73.5849 33.0917 73.267 33.0409C72.949 32.9963 72.5483 33.1235 72.0777 33.4352L66.125 37.3273C65.6481 37.6389 65.3746 37.9505 65.2919 38.2685C65.2093 38.5865 65.2665 38.8854 65.4573 39.1843C65.6481 39.4832 65.9088 39.6486 66.2268 39.6994V39.7122Z" fill="white"/>
<path d="M77.2058 32.6224C77.5174 32.7115 77.9308 32.6352 78.4396 32.3871L78.7703 32.2281L82.796 40.5148C82.3444 40.731 82.0646 40.9918 81.9501 41.297C81.8356 41.6023 81.8484 41.9012 81.9946 42.2065C82.1473 42.5245 82.3826 42.728 82.6942 42.817C83.0058 42.906 83.4192 42.8297 83.928 42.5817L86.7072 41.2334C87.2159 40.9854 87.5339 40.7119 87.6548 40.4067C87.7756 40.1078 87.7629 39.7961 87.6102 39.4909C87.4576 39.1729 87.2223 38.9694 86.9107 38.8804C86.599 38.7913 86.1857 38.8676 85.6769 39.1157L84.9137 39.4845L81.7975 33.074L91.3879 38.9567L93.4866 37.9391L88.4306 27.5347C88.8695 27.3185 89.1493 27.0641 89.2701 26.7588C89.3846 26.4535 89.3719 26.1483 89.2192 25.8367C89.0666 25.5187 88.8313 25.3152 88.5197 25.2325C88.208 25.1435 87.801 25.2261 87.2859 25.4742L84.5003 26.8161C83.9916 27.0641 83.6736 27.3375 83.5528 27.6428C83.4319 27.9417 83.4447 28.2533 83.6036 28.5713C83.7626 28.8893 83.9916 29.0928 84.3032 29.1819C84.6148 29.2709 85.0282 29.1946 85.537 28.9465L86.3001 28.5777L89.3973 34.9564L79.8578 29.0928L77.403 30.2694C76.8942 30.5174 76.5762 30.7908 76.4554 31.0961C76.3345 31.395 76.3473 31.7066 76.5062 32.0246C76.6652 32.3426 76.8942 32.5461 77.2058 32.6352V32.6224Z" fill="white"/>
<path d="M93.817 31.4143C94.135 32.381 94.612 33.195 95.2416 33.8564C95.8712 34.5178 96.469 34.9757 97.0414 35.2301C97.6137 35.4845 98.326 35.618 99.1719 35.6244C100.259 35.6435 101.372 35.4654 102.517 35.0902C103.337 34.8167 104.069 34.4669 104.718 34.0345C105.366 33.602 106.098 32.947 106.931 32.063L105.939 29.0612C106.225 28.8641 106.416 28.6351 106.511 28.3871C106.6 28.1391 106.606 27.8847 106.517 27.6239C106.409 27.2869 106.206 27.0579 105.907 26.9307C105.608 26.8035 105.194 26.829 104.654 27.007L100.679 28.3044C100.139 28.4825 99.7888 28.7114 99.6298 28.9976C99.4708 29.2838 99.4453 29.5891 99.5534 29.9261C99.6616 30.2632 99.8651 30.4921 100.164 30.6257C100.463 30.7593 100.876 30.7338 101.417 30.5557L103.7 29.8053L104.228 31.4079C103.509 32.0693 102.638 32.5718 101.614 32.9088C100.1 33.4112 98.892 33.4621 97.9953 33.0678C97.0923 32.6735 96.4499 31.8786 96.0493 30.6766L95.5151 29.0612C95.2543 28.2726 95.2098 27.484 95.3815 26.6827C95.5532 25.8814 95.8267 25.2709 96.2019 24.8511C96.7361 24.2724 97.4484 23.8336 98.3324 23.541C98.9493 23.3375 99.5344 23.2358 100.088 23.2358C100.641 23.2358 101.048 23.3057 101.315 23.452C101.48 23.541 101.678 23.7573 101.9 24.1007C102.123 24.4441 102.326 24.6476 102.504 24.7048C102.746 24.8002 103 24.8066 103.261 24.7239C103.585 24.6158 103.821 24.4123 103.948 24.1134C104.075 23.8145 104.056 23.4011 103.878 22.8605L103.401 21.4105C103.223 20.87 102.994 20.5265 102.714 20.3675C102.434 20.2086 102.135 20.1831 101.805 20.2912C101.519 20.3866 101.277 20.6156 101.067 20.9844C100.488 20.9018 99.9096 20.889 99.3181 20.9463C98.7267 21.0035 98.1289 21.1307 97.5184 21.3342C95.4133 22.0274 94.0142 23.3693 93.3146 25.3599C92.7931 26.829 92.774 28.3108 93.2701 29.8053L93.8043 31.4207L93.817 31.4143Z" fill="white"/>
<path d="M112.296 19.7876C112.563 19.9721 112.983 20.023 113.542 19.9466L113.905 19.8958L115.171 29.0219L114.808 29.0728C114.255 29.1491 113.873 29.3144 113.657 29.5625C113.447 29.8105 113.364 30.1094 113.409 30.4465C113.46 30.7962 113.619 31.0633 113.886 31.2414C114.153 31.4258 114.573 31.4767 115.132 31.4004L118.675 30.9107C119.234 30.8344 119.622 30.669 119.832 30.421C120.042 30.173 120.125 29.8741 120.074 29.537C120.023 29.1872 119.864 28.9201 119.597 28.7421C119.33 28.5576 118.91 28.5068 118.35 28.5831L117.511 28.6975L117.104 25.7594L119.412 25.4414C120.735 25.8611 122.548 27.4002 124.844 30.0585L126.173 29.8741C126.732 29.7978 127.12 29.6324 127.324 29.3844C127.527 29.1364 127.61 28.8375 127.559 28.5004C127.502 28.0743 127.286 27.769 126.911 27.5782C126.707 27.4828 126.306 27.4765 125.715 27.5592C124.996 26.726 124.43 26.1155 124.023 25.7276C123.368 25.1298 122.764 24.6528 122.211 24.2839C123.006 23.6988 123.572 23.082 123.915 22.4269C124.259 21.7719 124.379 21.0787 124.278 20.3537C124.112 19.1835 123.521 18.255 122.503 17.5681C121.486 16.8813 120.15 16.646 118.503 16.8749L113.218 17.5999C112.658 17.6762 112.271 17.8416 112.061 18.0896C111.851 18.3376 111.768 18.6365 111.819 18.9863C111.87 19.3361 112.029 19.6032 112.296 19.7813V19.7876ZM118.916 19.2026C119.819 19.0754 120.532 19.1708 121.053 19.4824C121.575 19.794 121.867 20.1692 121.931 20.608C121.975 20.9006 121.893 21.2186 121.689 21.5556C121.486 21.8927 121.047 22.2488 120.373 22.6177C119.87 22.8975 119.279 23.082 118.605 23.1773L116.786 23.4317L116.252 19.5714L118.929 19.2026H118.916Z" fill="white"/>
<path d="M130.529 29.6017L133.702 29.6526C134.268 29.659 134.675 29.5572 134.917 29.3474C135.159 29.1311 135.286 28.8513 135.292 28.5079C135.292 28.1581 135.184 27.8719 134.942 27.6493C134.701 27.4267 134.3 27.3123 133.734 27.2995H133.162L133.76 25.8622L139.483 25.9576L140.024 27.4013H139.451C138.885 27.3822 138.478 27.484 138.237 27.7002C137.995 27.9164 137.868 28.1962 137.861 28.5397C137.861 28.8895 137.97 29.1756 138.211 29.3982C138.453 29.6208 138.854 29.7353 139.42 29.748L142.593 29.7989C143.159 29.8052 143.566 29.7035 143.808 29.4936C144.049 29.2838 144.17 28.9976 144.177 28.6541C144.183 28.2408 144.011 27.9037 143.668 27.6493C143.496 27.5221 143.134 27.4585 142.58 27.4458L138.078 15.8012L132.99 15.7058C132.424 15.6995 132.017 15.8012 131.775 16.0111C131.534 16.221 131.406 16.5072 131.4 16.8633C131.394 17.2194 131.508 17.5056 131.75 17.7219C131.985 17.9445 132.392 18.0589 132.958 18.0716L134.497 18.0971L130.65 27.2487C130.065 27.2232 129.651 27.3186 129.39 27.5412C129.13 27.7638 129.002 28.0436 128.996 28.3934C128.99 28.7432 129.104 29.0357 129.346 29.252C129.581 29.4745 129.988 29.589 130.554 29.6017H130.529ZM136.723 18.892L138.542 23.5855L134.739 23.5219L136.723 18.8857V18.892Z" fill="white"/>
<path d="M148.118 29.9306C149.136 30.6684 150.338 31.139 151.718 31.3488C152.901 31.5269 154.007 31.4888 155.05 31.228C155.826 31.0372 156.481 30.7065 157.022 30.2486C157.397 29.9306 157.607 29.619 157.651 29.301C157.702 28.983 157.626 28.6905 157.422 28.417C157.219 28.1436 156.971 27.9909 156.659 27.9401C156.488 27.9146 156.322 27.9273 156.176 27.9782C156.03 28.0291 155.813 28.1563 155.534 28.3662C155.082 28.7096 154.669 28.9194 154.3 29.0021C153.664 29.1484 152.92 29.1548 152.055 29.0212C150.605 28.805 149.536 28.258 148.837 27.3804C148.137 26.5028 147.87 25.5107 148.042 24.3914L148.271 22.8778C148.411 21.9365 148.761 21.1606 149.307 20.5501C149.861 19.9332 150.446 19.5198 151.075 19.31C151.705 19.0938 152.366 19.0429 153.066 19.1446C153.626 19.2273 154.173 19.4181 154.694 19.7043C155.222 19.9905 155.61 20.3339 155.871 20.7218C156.004 20.919 156.074 21.1797 156.074 21.5104C156.093 22.0001 156.182 22.3499 156.348 22.5534C156.513 22.7569 156.748 22.8841 157.06 22.9286C157.403 22.9795 157.696 22.9032 157.95 22.6997C158.205 22.4962 158.37 22.1082 158.453 21.5486L158.752 19.5707C158.834 19.0111 158.79 18.5977 158.612 18.3306C158.434 18.0635 158.173 17.9045 157.829 17.8536C157.632 17.8218 157.442 17.8473 157.257 17.9172C157.073 17.9872 156.895 18.1144 156.717 18.2861C156.259 17.8918 155.743 17.5738 155.184 17.3258C154.624 17.0777 154.001 16.906 153.327 16.8043C152.207 16.6326 151.101 16.7597 150.02 17.1731C148.932 17.5865 148.029 18.2797 147.304 19.24C146.579 20.2067 146.128 21.2942 145.943 22.5025L145.702 24.0797C145.523 25.2372 145.676 26.3565 146.159 27.4313C146.636 28.5061 147.291 29.3392 148.118 29.9306Z" fill="white"/>
<path d="M160.318 32.5709L170.952 35.7189L171.982 32.2401C172.141 31.6996 172.154 31.2798 172.014 30.9873C171.874 30.6947 171.639 30.4976 171.308 30.4022C170.971 30.3004 170.666 30.3386 170.386 30.504C170.106 30.6757 169.89 31.0318 169.731 31.5724L169.368 32.7934L163.606 31.0891L164.586 27.7757L166.57 28.3607C166.392 28.9586 166.335 29.3529 166.398 29.5564C166.519 29.9825 166.793 30.2559 167.206 30.3831C167.6 30.4976 167.969 30.4213 168.306 30.1478C168.471 30.0143 168.63 29.7026 168.777 29.2066L169.546 26.6055C169.705 26.0649 169.718 25.6452 169.578 25.3526C169.438 25.0601 169.203 24.8629 168.872 24.7675C168.452 24.6403 168.077 24.7294 167.74 25.0219C167.581 25.1555 167.416 25.518 167.238 26.1094L165.253 25.5243L166.22 22.2618L171.486 23.8199L171.136 24.9965C170.977 25.5371 170.964 25.9568 171.111 26.243C171.251 26.5355 171.492 26.7263 171.829 26.8281C172.166 26.9298 172.472 26.8917 172.745 26.72C173.019 26.5482 173.235 26.1985 173.394 25.6579L174.411 22.2237L164.28 19.2092C163.733 19.0502 163.32 19.0375 163.028 19.1774C162.735 19.3173 162.538 19.559 162.436 19.896C162.334 20.2331 162.373 20.5447 162.538 20.8182C162.71 21.098 163.066 21.3142 163.606 21.4796L163.956 21.5813L161.336 30.4149L160.986 30.3132C160.452 30.1542 160.032 30.1478 159.74 30.2877C159.447 30.4276 159.244 30.663 159.148 30.9937C159.046 31.3307 159.085 31.636 159.25 31.9158C159.422 32.1956 159.778 32.4119 160.318 32.5709Z" fill="white"/>
<path d="M176.79 38.018L179.632 39.4298C180.141 39.6842 180.548 39.7605 180.866 39.6778C181.178 39.5888 181.413 39.3917 181.566 39.08C181.725 38.762 181.744 38.4568 181.623 38.1515C181.502 37.8462 181.19 37.5728 180.682 37.3184L180.167 37.064L181.318 36.0337L186.444 38.5776L186.31 40.1167L185.795 39.8623C185.286 39.6079 184.879 39.5316 184.561 39.6142C184.243 39.6969 184.014 39.9004 183.861 40.212C183.702 40.53 183.683 40.8353 183.804 41.1406C183.925 41.4458 184.237 41.7193 184.745 41.9737L187.588 43.3855C188.097 43.6399 188.504 43.7162 188.816 43.6272C189.127 43.5382 189.356 43.3346 189.509 43.0294C189.693 42.6605 189.681 42.2789 189.477 41.8974C189.375 41.7066 189.076 41.4903 188.58 41.2487L189.522 28.8028L184.968 26.5324C184.459 26.278 184.052 26.2017 183.734 26.2844C183.416 26.367 183.187 26.5769 183.028 26.8885C182.869 27.2002 182.85 27.5118 182.971 27.817C183.092 28.1223 183.404 28.3958 183.912 28.6502L185.292 29.337L177.883 35.9511C177.368 35.6776 176.949 35.5886 176.624 35.6712C176.3 35.7603 176.058 35.9574 175.899 36.2754C175.74 36.5934 175.721 36.8987 175.842 37.2039C175.963 37.5092 176.274 37.7827 176.783 38.037L176.79 38.018ZM186.984 31.0096L186.609 36.0337L183.2 34.3421L186.984 31.0096Z" fill="white"/>
<path d="M191.114 45.5318C191.267 45.6335 191.413 45.6908 191.559 45.7098C191.706 45.7226 191.928 45.6844 192.24 45.6017C192.545 46.1868 192.908 46.721 193.327 47.198C193.747 47.675 194.231 48.0947 194.765 48.4636C196.158 49.4112 197.563 49.8118 198.981 49.6656C200.05 49.5511 200.915 49.0105 201.57 48.0502C202.04 47.3634 202.269 46.6447 202.25 45.9006C202.231 45.1566 202.04 44.4888 201.665 43.891C201.29 43.2932 200.673 42.5555 199.808 41.6842C198.943 40.8129 198.434 40.2532 198.282 40.0179C198.046 39.6745 197.919 39.3311 197.906 38.9877C197.894 38.6506 197.964 38.3581 198.129 38.1164C198.371 37.7603 198.803 37.5631 199.439 37.5122C200.069 37.4614 200.736 37.6776 201.436 38.1546C201.919 38.4789 202.288 38.8541 202.543 39.2675C202.797 39.6809 202.937 40.0752 202.956 40.4377C202.969 40.6475 202.899 40.9401 202.752 41.3153C202.6 41.6842 202.562 41.9704 202.625 42.1739C202.702 42.441 202.861 42.6572 203.102 42.8162C203.388 43.007 203.687 43.0706 204.005 42.9943C204.323 42.918 204.641 42.6445 204.959 42.1739L205.951 40.7111C206.269 40.2469 206.403 39.8589 206.358 39.5346C206.314 39.2103 206.149 38.9559 205.862 38.7587C205.608 38.587 205.271 38.5361 204.851 38.6125C204.66 38.1482 204.387 37.7157 204.031 37.3151C203.681 36.9144 203.255 36.5392 202.752 36.2021C201.506 35.3563 200.253 35.0129 199 35.1846C197.747 35.3563 196.8 35.9032 196.164 36.8381C195.763 37.4296 195.547 38.0846 195.522 38.8032C195.496 39.5282 195.655 40.2087 196.011 40.8574C196.367 41.5061 197.01 42.2883 197.938 43.2105C198.708 43.9737 199.185 44.4888 199.375 44.7559C199.668 45.1566 199.827 45.5254 199.852 45.8498C199.878 46.1805 199.808 46.4603 199.649 46.702C199.401 47.0645 199.019 47.2489 198.498 47.2553C197.665 47.2807 196.813 47.0009 195.948 46.4094C195.388 46.0278 194.949 45.5827 194.618 45.0612C194.288 44.5397 194.097 44.1199 194.046 43.7956C194.027 43.6366 194.072 43.3822 194.18 43.0451C194.288 42.7081 194.307 42.4283 194.231 42.1993C194.154 41.9704 194.008 41.7796 193.779 41.6269C193.48 41.4234 193.175 41.3598 192.857 41.4361C192.539 41.5125 192.221 41.7859 191.903 42.2565L191.013 43.5666C190.695 44.0309 190.561 44.4188 190.606 44.7432C190.65 45.0675 190.822 45.3283 191.121 45.5318H191.114Z" fill="white"/>
<path d="M205.692 52.4295C205.692 52.2642 205.768 52.0225 205.927 51.7045C206.08 51.3865 206.137 51.1067 206.093 50.8714C206.048 50.6361 205.927 50.4262 205.717 50.2481C205.45 50.0065 205.151 49.9047 204.827 49.9429C204.503 49.9747 204.153 50.2036 203.778 50.6297L202.722 51.8126C202.347 52.2324 202.162 52.6012 202.169 52.9256C202.175 53.2499 202.302 53.5361 202.576 53.7714C202.709 53.8922 202.849 53.9686 202.989 54.0067C203.129 54.0449 203.358 54.0322 203.676 53.9876C203.898 54.6109 204.191 55.1833 204.547 55.7111C204.903 56.239 205.323 56.7223 205.806 57.1548C207.059 58.2804 208.401 58.8591 209.826 58.8973C210.9 58.9227 211.829 58.503 212.605 57.6381C213.164 57.0148 213.482 56.3344 213.565 55.5966C213.648 54.8589 213.546 54.1721 213.247 53.5297C212.948 52.8874 212.433 52.0734 211.695 51.094C210.951 50.1146 210.525 49.4977 210.398 49.2433C210.207 48.8681 210.131 48.512 210.156 48.1749C210.182 47.8378 210.296 47.558 210.493 47.3418C210.78 47.0238 211.238 46.8775 211.867 46.9157C212.497 46.9538 213.133 47.2527 213.762 47.8188C214.195 48.2067 214.513 48.6201 214.71 49.0652C214.907 49.5104 214.996 49.9111 214.964 50.2799C214.952 50.4898 214.843 50.7696 214.646 51.1194C214.449 51.4692 214.366 51.7427 214.405 51.9525C214.449 52.226 214.576 52.4613 214.793 52.6521C215.047 52.8811 215.339 52.9764 215.664 52.9447C215.988 52.9129 216.338 52.6839 216.713 52.2578L217.89 50.9414C218.265 50.5216 218.449 50.1528 218.443 49.8284C218.443 49.5041 218.309 49.2242 218.055 48.9953C217.826 48.7918 217.495 48.6964 217.069 48.7155C216.936 48.2321 216.726 47.7615 216.427 47.3163C216.128 46.8712 215.759 46.4451 215.308 46.0444C214.182 45.0396 212.986 44.5372 211.721 44.5435C210.455 44.5499 209.444 44.9696 208.694 45.8091C208.217 46.3433 207.918 46.9602 207.797 47.6725C207.676 48.3848 207.746 49.0843 208.013 49.7775C208.28 50.4707 208.814 51.3293 209.616 52.3659C210.277 53.2245 210.684 53.7968 210.837 54.0894C211.072 54.5282 211.18 54.9098 211.168 55.2405C211.155 55.5712 211.047 55.8447 210.85 56.0609C210.557 56.3852 210.156 56.5188 209.635 56.4552C208.808 56.3725 208 55.9782 207.218 55.2787C206.716 54.8271 206.334 54.3247 206.073 53.765C205.813 53.2054 205.679 52.7602 205.673 52.4359L205.692 52.4295Z" fill="white"/>
<path d="M213.995 62.654C213.938 64.3647 214.427 65.8211 215.445 67.0104C216.583 68.3332 218.11 69.0518 220.03 69.1536C221.951 69.2553 223.706 68.6257 225.29 67.2647C226.88 65.8974 227.776 64.2566 227.961 62.3424C228.152 60.4281 227.675 58.8064 226.536 57.4836C225.512 56.2943 224.151 55.5947 222.453 55.3849C220.342 55.1368 218.421 55.7537 216.691 57.2419C214.962 58.7301 214.058 60.5298 213.989 62.6476L213.995 62.654ZM218.23 59.0353C219.312 58.1068 220.488 57.6616 221.773 57.7062C223.051 57.7507 224.05 58.1831 224.762 59.0162C225.48 59.8557 225.767 60.9051 225.614 62.1706C225.468 63.4362 224.851 64.5364 223.763 65.4713C222.676 66.4062 221.499 66.845 220.221 66.8005C218.949 66.7496 217.951 66.3108 217.232 65.4713C216.52 64.6382 216.233 63.5889 216.386 62.3233C216.532 61.0577 217.149 59.9575 218.23 59.029V59.0353Z" fill="white"/>
<path d="M225.689 69.5048C224.71 70.1408 223.972 70.9994 223.488 72.0741C223.005 73.1489 222.814 74.1919 222.922 75.1967C223.05 76.4496 223.495 77.6579 224.258 78.8218C224.913 79.8266 225.676 80.6279 226.567 81.2257C227.228 81.6773 227.908 81.9507 228.608 82.0461C229.091 82.1161 229.467 82.0588 229.74 81.8871C230.007 81.709 230.179 81.461 230.249 81.1303C230.319 80.7996 230.268 80.5071 230.096 80.24C230.001 80.0937 229.886 79.9792 229.746 79.9029C229.613 79.8266 229.371 79.7503 229.034 79.6803C228.474 79.5658 228.042 79.4005 227.737 79.1843C227.209 78.809 226.706 78.2557 226.229 77.518C225.428 76.2906 225.123 75.1268 225.314 74.0202C225.498 72.9136 226.07 72.0551 227.018 71.4382L228.296 70.6051C229.091 70.0899 229.905 69.8292 230.726 69.8292C231.546 69.8292 232.252 69.9945 232.831 70.3252C233.41 70.6496 233.893 71.1138 234.274 71.7053C234.586 72.1823 234.802 72.7101 234.936 73.2952C235.069 73.8803 235.076 74.3954 234.961 74.847C234.904 75.0759 234.751 75.3049 234.51 75.5211C234.154 75.8645 233.956 76.1571 233.912 76.4178C233.867 76.6722 233.931 76.9329 234.103 77.2C234.287 77.4862 234.548 77.6579 234.866 77.7088C235.184 77.7597 235.585 77.6325 236.062 77.3209L237.734 76.2334C238.211 75.9217 238.485 75.6101 238.567 75.2985C238.65 74.9869 238.593 74.688 238.402 74.3954C238.294 74.2301 238.154 74.1029 237.976 74.0075C237.798 73.9121 237.588 73.8676 237.34 73.8548C237.327 73.2507 237.225 72.6529 237.035 72.0741C236.844 71.4954 236.558 70.9167 236.189 70.3443C235.572 69.3967 234.745 68.6526 233.715 68.1184C232.685 67.5842 231.565 67.368 230.363 67.4697C229.161 67.5715 228.048 67.9531 227.024 68.6208L225.689 69.4921V69.5048Z" fill="white"/>
<path d="M240.767 83.8758L232.467 87.876L231.437 85.7328C231.189 85.2241 230.916 84.9061 230.617 84.7852C230.318 84.6644 230.013 84.6771 229.701 84.8234C229.383 84.976 229.179 85.2113 229.084 85.523C228.995 85.8346 229.071 86.248 229.313 86.7568L232.397 93.1673C232.645 93.6761 232.919 93.9941 233.218 94.1149C233.517 94.2357 233.828 94.223 234.134 94.0767C234.452 93.9241 234.655 93.6888 234.744 93.3772C234.833 93.0655 234.763 92.6522 234.515 92.1434L233.485 90.0002L241.784 85.9999L242.815 88.1432C243.063 88.6519 243.336 88.9699 243.635 89.0907C243.934 89.2116 244.246 89.1989 244.563 89.0462C244.881 88.8936 245.085 88.6646 245.174 88.353C245.263 88.0414 245.187 87.6344 244.939 87.1192L241.861 80.7087C241.613 80.1999 241.339 79.8819 241.04 79.7611C240.741 79.6403 240.43 79.653 240.112 79.8056C239.794 79.9583 239.59 80.1936 239.501 80.5052C239.412 80.8168 239.482 81.2302 239.73 81.739L240.76 83.8822L240.767 83.8758Z" fill="white"/>
<path d="M246.398 97.2707L236.49 96.6093C236.325 96.0496 236.096 95.6871 235.809 95.5154C235.523 95.3437 235.205 95.3119 234.875 95.42C234.538 95.5281 234.309 95.7316 234.175 96.0305C234.041 96.3294 234.061 96.7428 234.239 97.2834L235.218 100.298C235.396 100.838 235.625 101.188 235.905 101.347C236.185 101.506 236.49 101.538 236.821 101.43C237.158 101.322 237.387 101.118 237.52 100.819C237.654 100.52 237.635 100.107 237.457 99.5665L237.279 99.0196L238.824 99.1213L240.598 104.559L239.409 105.538L239.231 104.991C239.053 104.451 238.824 104.101 238.544 103.942C238.258 103.783 237.959 103.751 237.628 103.859C237.291 103.967 237.062 104.171 236.929 104.47C236.795 104.769 236.821 105.182 236.992 105.723L237.978 108.737C238.156 109.278 238.379 109.628 238.665 109.78C238.945 109.939 239.25 109.965 239.581 109.856C239.975 109.729 240.236 109.456 240.369 109.042C240.433 108.839 240.376 108.47 240.204 107.949L249.75 99.9036L248.185 95.0639C248.007 94.5233 247.778 94.1735 247.499 94.0145C247.219 93.8555 246.907 93.8301 246.57 93.9382C246.233 94.0463 246.004 94.2498 245.87 94.5487C245.737 94.8476 245.756 95.261 245.934 95.8016L246.411 97.2643L246.398 97.2707ZM242.532 102.905L241.349 99.293L246.373 99.6619L242.525 102.912L242.532 102.905Z" fill="white"/>
<path d="M246.4 109.013C246.203 109.274 246.139 109.573 246.203 109.91C246.267 110.253 246.438 110.514 246.718 110.685C246.998 110.857 247.411 110.889 247.971 110.781L250.165 110.368L250.636 112.873L241.58 114.578L241.287 113.032C241.179 112.473 241.001 112.097 240.74 111.9C240.479 111.703 240.18 111.639 239.843 111.703C239.5 111.767 239.239 111.938 239.067 112.218C238.896 112.498 238.864 112.911 238.972 113.471L239.99 118.889C240.091 119.449 240.276 119.824 240.537 120.021C240.797 120.219 241.096 120.282 241.433 120.219C241.777 120.155 242.037 119.983 242.209 119.704C242.381 119.424 242.413 119.01 242.305 118.451L242.012 116.893L251.068 115.188L251.545 117.726L249.351 118.139C248.791 118.247 248.416 118.425 248.219 118.686C248.022 118.947 247.958 119.246 248.022 119.583C248.085 119.926 248.257 120.187 248.537 120.359C248.817 120.53 249.23 120.562 249.79 120.454L254.293 119.608L252.048 107.614L247.532 108.466C246.973 108.574 246.597 108.752 246.4 109.013Z" fill="white"/>
<path d="M253.35 121.871C253 121.896 252.72 122.036 252.523 122.297C252.326 122.551 252.243 122.965 252.288 123.531L252.466 125.903L243.276 126.59L243.098 124.218C243.053 123.652 242.913 123.257 242.678 123.035C242.443 122.812 242.15 122.71 241.807 122.736C241.457 122.761 241.184 122.901 240.98 123.162C240.776 123.423 240.7 123.83 240.745 124.396L241.279 131.487C241.323 132.053 241.463 132.447 241.692 132.67C241.928 132.892 242.22 132.994 242.564 132.969C242.913 132.943 243.193 132.803 243.39 132.543C243.587 132.288 243.67 131.875 243.626 131.309L243.448 128.937L252.637 128.25L252.815 130.622C252.86 131.188 253 131.582 253.235 131.805C253.47 132.027 253.763 132.129 254.113 132.104C254.463 132.078 254.736 131.938 254.933 131.678C255.13 131.423 255.207 131.01 255.162 130.444L254.641 123.353C254.596 122.787 254.456 122.392 254.221 122.17C253.986 121.947 253.693 121.846 253.343 121.871H253.35Z" fill="white"/>
<path d="M248.462 134.381C246.179 134.286 244.29 134.985 242.796 136.48C241.588 137.695 240.945 139.081 240.882 140.652C240.805 142.394 241.435 143.965 242.764 145.352C244.093 146.738 245.804 147.476 247.896 147.571C249.995 147.66 251.763 147.075 253.213 145.803C254.657 144.538 255.42 143.03 255.496 141.281C255.566 139.711 255.045 138.273 253.944 136.957C252.571 135.335 250.746 134.47 248.469 134.375L248.462 134.381ZM251.604 144.073C250.631 144.9 249.429 145.282 247.998 145.218C246.567 145.154 245.403 144.671 244.507 143.768C243.61 142.865 243.184 141.86 243.235 140.76C243.279 139.666 243.794 138.706 244.767 137.879C245.74 137.052 246.942 136.671 248.367 136.734C249.792 136.798 250.955 137.281 251.858 138.184C252.762 139.087 253.194 140.092 253.143 141.186C253.099 142.286 252.583 143.253 251.61 144.073H251.604Z" fill="white"/>
<path d="M253.446 150.276C253.103 150.213 252.798 150.276 252.537 150.48C252.282 150.677 252.098 151.058 251.996 151.612L251.933 151.974L242.864 150.327C242.953 149.837 242.908 149.456 242.73 149.182C242.552 148.909 242.298 148.744 241.967 148.68C241.624 148.616 241.318 148.68 241.058 148.883C240.797 149.081 240.619 149.462 240.517 150.015L239.964 153.055C239.862 153.615 239.894 154.028 240.065 154.308C240.237 154.582 240.492 154.753 240.835 154.817C241.178 154.881 241.484 154.817 241.744 154.613C242.005 154.416 242.183 154.035 242.285 153.481L242.438 152.642L249.446 153.914L239.035 158.175L238.615 160.471L249.999 162.538C249.91 163.021 249.955 163.396 250.133 163.67C250.311 163.943 250.565 164.108 250.902 164.172C251.246 164.236 251.551 164.172 251.805 163.969C252.06 163.771 252.238 163.39 252.34 162.83L252.899 159.79C253.001 159.231 252.969 158.817 252.791 158.537C252.619 158.264 252.359 158.092 252.015 158.029C251.666 157.965 251.367 158.029 251.106 158.232C250.851 158.429 250.667 158.811 250.565 159.364L250.413 160.204L243.436 158.938L253.802 154.703L254.298 152.025C254.4 151.465 254.368 151.052 254.19 150.772C254.019 150.499 253.758 150.327 253.414 150.263L253.446 150.276Z" fill="white"/>
<path d="M134.997 1C60.5632 1 0 61.5632 0 135.997C0 210.43 60.5632 270.994 134.997 270.994C209.43 270.994 270 210.43 270 135.997C270 61.5632 209.437 1 134.997 1ZM134.997 267.184C62.6619 267.184 3.8158 208.338 3.8158 136.003C3.8158 63.6682 62.6619 4.8158 134.997 4.8158C207.332 4.8158 266.184 63.6619 266.184 135.997C266.184 208.332 207.332 267.178 134.997 267.178V267.184Z" fill="white"/>
<path d="M134.995 39.21C81.6187 39.21 38.1948 82.6338 38.1948 136.017C38.1948 189.4 81.6187 232.818 134.995 232.818C188.372 232.818 231.796 189.394 231.796 136.011C231.796 82.6275 188.379 39.21 134.995 39.21ZM218.479 176.941C216.17 174.887 212.043 172.394 206.942 170.773C197.708 167.847 176.55 171.167 168.396 169.723C168.098 169.539 167.735 169.393 167.436 169.221C166.698 168.814 165.814 167.396 165.337 166.715C163.468 164.031 162.266 161.621 161.534 158.454C160.962 155.999 160.758 154.18 161.07 152.45C165.935 148.088 176.365 142.033 179.558 134.65C183.234 126.147 192.716 112.327 185.949 94.997C182.152 85.2731 178.324 77.05 166.311 72.0195C141.495 61.6278 126.416 56.8199 111.535 71.9051C99.9727 83.6259 104.424 78.9071 96.513 81.9979C88.6588 85.0696 87.4378 92.733 91.9277 102.336C93.9755 106.712 99.9091 108.219 104.056 106.095C107.922 104.117 106.892 104.327 111.598 101.02L117.773 98.3168C120.839 96.1609 120.896 102.457 122.925 104.053C130.289 109.847 141.775 112.499 150.176 109.096C149.203 119.762 150.965 119.863 151.473 121.441C151.62 121.886 152.618 124.067 153.025 124.296C155.378 125.638 155.226 130.013 157.49 130.223C160.65 121.428 160.937 118.248 167.691 118.611C174.082 118.954 172.995 123.132 172.689 129.021C172.524 132.176 169.878 135.508 168.918 138.446C166.692 145.251 162.342 144.768 162.342 144.768C162.342 144.768 159.467 148.158 159.976 153.512C159.976 153.512 159.976 153.512 159.983 153.506C159.722 154.924 159.747 156.406 160.014 157.742C160.593 160.553 161.28 163.116 162.736 165.602C163.131 166.276 163.913 167.586 164.307 168.26C164.695 168.922 165.56 169.869 166.603 170.391C166.603 170.391 166.603 170.391 166.609 170.391C166.857 170.518 167.118 170.614 167.392 170.677C168.161 171.097 168.473 171.803 168.371 172.674C166.164 174.105 163.061 176.795 156.014 180.318C145.533 185.565 135.32 187.212 127.281 187.034C113.182 185.775 108.558 181.406 106.396 181.241C106.867 181.139 107.331 181.031 107.814 180.942C112.609 180.007 125.119 180.09 126.442 173.189C126.989 170.34 125.857 166.391 124.833 165.405L123.484 166.13C124.4 166.88 125.049 168.432 125.297 169.393C126.868 175.523 120.604 178.347 116.177 178.709C110.638 179.161 105.658 180.255 101.194 181.737C96.9646 182.722 92.392 184.993 88.1628 187.855C78.0446 194.189 72.6515 201.731 71.3415 203.728C53.2991 186.754 42.0106 162.683 42.0106 136.017C42.0106 84.7452 83.7237 43.0321 134.995 43.0321C186.267 43.0321 227.987 84.7452 227.987 136.023C227.987 150.701 224.565 164.597 218.479 176.954V176.941Z" fill="white"/>
<path d="M103.593 133.842C105.202 134.663 107.275 134.733 108.744 133.683C110.283 134.332 112.229 134.192 113.501 133.111C115.079 131.775 115.066 131.038 113.139 132.399C112.051 133.168 111.339 132.602 109.552 132.456C107.555 132.291 108.948 132.265 107.962 131.731C107.402 131.432 107.288 132.558 105.215 132.551C103.873 132.551 103.23 131.839 102.016 130.961C101.717 130.745 101.157 130.306 101.036 129.454C100.858 128.233 102.086 127.807 102.283 127.502L104.452 125.867C105.075 125.168 105.622 123.648 105.495 123.349C105.316 123.502 105.132 123.641 104.954 123.788C105.037 123.654 105.113 123.514 105.17 123.368C105.851 121.74 105.768 119.857 104.954 118.261C105.73 118.293 106.226 119.018 106.569 119.648C106.652 119.794 106.735 119.953 106.722 120.118C106.709 120.271 106.62 120.398 106.538 120.532C106.08 121.257 105.66 123.044 106.188 123.743C107.046 122.885 107.841 121.034 108.28 119.946C107.46 119.406 107.173 118.42 106.48 117.752C105.698 116.996 104.458 116.735 103.332 116.868C102.219 116.996 102.207 117.123 101.272 117.625C101.189 117.854 101.246 118.147 101.38 118.376C102.143 119.692 101.742 122.764 102.982 123.953C103.307 124.265 103.816 124.43 104.254 124.322C102.753 125.435 101.176 126.459 99.9743 127.89C99.7899 128.112 99.6055 128.348 99.5355 128.627C99.4147 129.098 99.6436 129.575 99.8853 130.001C100.776 131.572 101.978 133.035 103.587 133.855L103.593 133.842Z" fill="white"/>
<path d="M120.461 114.705C122.56 114.628 129.88 118.482 131.661 119.525C132.335 119.919 134.834 120.937 130.242 116.536C129.549 115.875 127.597 113.808 126.77 113.325C124.315 111.887 121.428 111.989 120.353 112.288C119.577 112.504 114.814 113.776 116.187 116.39C117.758 115.061 118.286 114.781 120.461 114.705Z" fill="white"/>
<path d="M128.85 121.193C126.808 119.959 124.538 118.687 122.191 119.075C121.174 119.247 120.213 119.819 119.291 120.29C118.566 120.659 117.193 120.672 117.237 121.359L117.32 121.638C118.261 122.058 119.819 121.428 121.466 121.009C120.678 121.937 119.883 122.834 120.01 124.017C120.105 124.92 120.512 126.459 121.193 126.98C121.803 127.451 122.484 127.845 123.228 127.973C124.742 128.227 126.166 128.329 127.158 124.78C127.444 123.756 127.343 122.611 126.897 121.689C128.456 122.681 129.499 124.392 128.297 126.732C129.473 126.688 131.133 124.22 130.777 123.095C130.497 122.211 129.645 121.657 128.856 121.18L128.85 121.193Z" fill="white"/>
<path d="M100.842 115.441L103.717 114.367C107.049 114.138 106.541 114.233 107.158 115.251C107.437 115.708 107.908 116.904 108.442 116.84C108.792 116.427 108.805 115.81 108.62 115.301C108.436 114.793 108.08 114.367 107.736 113.953C107.024 113.101 106.223 112.198 105.129 111.975C104.092 111.765 103.049 112.223 102.089 112.669C101.51 112.942 100.9 113.235 100.556 113.769C100.213 114.303 100.276 115.155 100.849 115.441H100.842Z" fill="white"/>
<path d="M101.25 117.632C101.25 117.632 101.269 117.619 101.282 117.613C101.314 117.524 101.364 117.441 101.447 117.377L101.256 117.632H101.25Z" fill="white"/>
<path d="M239.366 169.794C239.525 169.292 239.252 168.757 238.756 168.592C238.253 168.427 237.719 168.707 237.554 169.203C231.048 189.293 218.85 206.922 202.27 220.188C201.857 220.519 201.793 221.117 202.124 221.53C202.315 221.765 202.588 221.886 202.868 221.886C203.078 221.886 203.288 221.816 203.466 221.676C220.338 208.181 232.758 190.24 239.379 169.794H239.366Z" fill="white"/>
<path d="M67.9608 220.386C51.4448 207.247 39.2342 189.764 32.6519 169.833C32.4866 169.33 31.946 169.057 31.4499 169.229C30.9475 169.394 30.6804 169.935 30.8458 170.431C37.5489 190.718 49.9757 208.506 66.7779 221.874C66.956 222.014 67.1659 222.084 67.3694 222.084C67.6492 222.084 67.929 221.963 68.1135 221.721C68.4442 221.308 68.3742 220.71 67.9608 220.379V220.386Z" fill="white"/>
<path d="M247.348 171.515C246.846 171.35 246.312 171.63 246.146 172.126C239.074 193.889 225.84 212.98 207.861 227.341C207.448 227.671 207.384 228.269 207.708 228.683C207.899 228.918 208.173 229.039 208.453 229.039C208.662 229.039 208.872 228.969 209.05 228.829C227.315 214.233 240.772 194.83 247.952 172.717C248.118 172.215 247.844 171.681 247.342 171.515H247.348Z" fill="white"/>
<path d="M62.5695 227.679C44.2854 213.211 30.8665 193.903 23.7564 171.829C23.5974 171.326 23.0568 171.053 22.5544 171.212C22.052 171.371 21.7785 171.911 21.9375 172.414C29.1558 194.851 42.7973 214.477 61.3802 229.18C61.5583 229.32 61.7618 229.384 61.9717 229.384C62.2515 229.384 62.5313 229.256 62.7221 229.021C63.0465 228.608 62.9765 228.01 62.5631 227.679H62.5695Z" fill="white"/>
<path d="M86.0249 166.478C86.133 170.332 87.6721 174.249 90.8837 176.99C94.1017 179.725 99.1068 181.079 103.444 179.858L102.649 180.068C106.211 180.469 109.785 178.974 112.329 176.838C114.879 174.701 116.583 171.966 118.256 169.282C118.752 168.481 119.152 167.241 119.439 165.753C121.385 165.829 122.981 165.625 125.887 164.207C126.288 164.01 127.089 163.387 126.778 163.304C124.87 162.814 123 164.144 119.693 164.188C120.246 159.978 120.036 154.579 118.885 151.399C118.618 150.655 118.205 149.949 117.772 149.287C117.906 149.179 118.033 149.071 118.148 148.976C118.612 149.427 119.146 149.809 119.769 150.095C120.094 150.248 120.494 150.057 120.526 149.745C120.583 149.122 120.539 148.492 120.132 147.984C119.903 147.704 119.585 147.488 119.286 147.259C117.206 145.682 116.583 141.242 116.055 140.937C115.394 140.556 115.68 142.247 115.496 142.902C115.445 143.093 115.375 143.303 115.184 143.405C115.038 143.487 114.847 143.487 114.669 143.468C112.659 143.284 110.968 142.94 109.047 142.374C107.19 141.828 102.427 142.057 101.835 141.828C100.258 141.223 102.63 135.156 102 135.156L100.487 139.608C100.054 142.667 101.593 142.368 102.522 142.413C102.624 142.413 102.783 142.432 102.967 142.444C102.21 142.934 91.3161 149.993 88.8422 155.24C87.1506 158.821 85.9295 162.617 86.0313 166.471L86.0249 166.478ZM106.211 151.889C106.211 151.412 106.611 151.132 107.075 151.024C107.667 150.89 107.94 151.412 107.94 151.889C107.94 152.187 107.718 152.455 107.432 152.607C106.942 152.563 106.554 152.423 106.554 152.423L106.312 152.378C106.249 152.238 106.217 152.073 106.217 151.889H106.211ZM107.253 162.738C106.777 162.738 106.56 162.35 106.56 161.873C106.56 161.396 106.961 161.116 107.425 161.008C108.017 160.875 108.29 161.396 108.29 161.873C108.29 162.35 107.73 162.738 107.253 162.738ZM116.1 145.478C116.475 146.648 117.009 147.71 117.76 148.575L117.416 148.562C117.416 148.562 117.391 148.594 117.34 148.651C116.621 147.628 115.922 146.712 115.699 145.923C115.674 145.841 115.642 145.771 115.597 145.701C115.954 145.624 116.062 145.344 116.106 145.472L116.1 145.478ZM102.636 157.93C102.636 158.407 102.077 158.795 101.6 158.795C101.123 158.795 100.907 158.407 100.907 157.93C100.907 157.453 101.307 157.173 101.771 157.065C102.363 156.932 102.636 157.453 102.636 157.93ZM100.372 150.152C100.964 150.019 101.237 150.54 101.237 151.017C101.237 151.494 100.678 151.882 100.201 151.882C99.7236 151.882 99.5074 151.494 99.5074 151.017C99.5074 150.54 99.9081 150.26 100.372 150.152ZM97.1353 162.757C97.7267 162.624 98.0002 163.145 98.0002 163.622C98.0002 164.099 97.4405 164.487 96.9635 164.487C96.4866 164.487 96.2703 164.099 96.2703 163.622C96.2703 163.145 96.671 162.865 97.1353 162.757ZM94.6995 155.323C95.2909 155.189 95.5644 155.711 95.5644 156.188C95.5644 156.665 95.0048 157.053 94.5278 157.053C94.0508 157.053 93.8346 156.665 93.8346 156.188C93.8346 155.711 94.2352 155.431 94.6995 155.323Z" fill="white"/>
</svg>
