<svg width="510" height="211" viewBox="0 0 510 211" fill="none" xmlns="http://www.w3.org/2000/svg">
<rect x="9.99994" y="10.0752" width="499.999" height="200" fill="#CFAE7F" fill-opacity="0.6"/>
<rect x="0.999939" y="1.0752" width="497.999" height="198" stroke="#4D3A3F" stroke-width="2"/>
<path d="M137.92 93.7312L138.328 93.5632C138.856 94.2592 139.528 94.9552 140.344 94.9552C142 94.9552 146.2 94.1632 147.352 93.8752C147.952 93.7312 148.36 93.0352 148.864 93.0352C149.896 93.0352 152.056 94.8832 152.056 95.6512C152.056 96.3472 150.952 96.7072 150.664 97.1152C149.848 98.3152 148.6 100.379 147.04 102.107C150.976 103.331 154.504 105.611 154.504 108.251C154.504 108.995 153.976 109.811 153.016 109.811C152.08 109.811 151.456 109.091 150.64 107.819C149.536 105.995 148.6 104.291 146.368 102.803C144.16 105.059 140.44 108.395 134.608 110.195L134.344 109.691C139.984 106.763 145.888 100.643 147.832 95.9632C147.976 95.6032 147.832 95.5072 147.568 95.5072C146.608 95.6032 143.536 96.5152 142.336 96.9232C141.544 97.1872 141.256 97.7632 140.584 97.7632C139.528 97.7632 138.4 96.3712 138.112 95.4832C137.944 95.0032 137.896 94.3792 137.92 93.7312ZM176.752 90.9952C175.816 90.9952 175.072 91.7392 175.072 92.6992C175.072 93.6352 175.816 94.3792 176.752 94.3792C177.712 94.3792 178.456 93.6352 178.456 92.6992C178.456 91.7392 177.712 90.9952 176.752 90.9952ZM176.752 95.3632C175.288 95.3632 174.088 94.1632 174.088 92.6992C174.088 91.2112 175.288 90.0112 176.752 90.0112C178.24 90.0112 179.44 91.2112 179.44 92.6992C179.44 94.1632 178.24 95.3632 176.752 95.3632ZM163.792 101.771L164.272 101.819C164.344 104.723 163.072 108.755 160.816 108.755C160.024 108.755 159.472 108.179 159.472 107.363C159.472 106.307 160.096 106.139 161.296 105.155C162.64 104.075 163.336 102.995 163.792 101.771ZM165.928 93.0592L165.904 92.6752C166.48 92.3632 167.32 92.0272 168.112 92.0272C169.336 92.0512 171.04 92.9632 171.04 93.7072C171.04 94.2832 170.608 94.4752 170.512 95.1232C170.416 95.6512 170.344 96.3712 170.32 97.1632C174.808 96.5392 174.952 96.1792 175.576 96.1792C176.656 96.1792 178.36 96.8512 178.36 97.9552C178.36 98.6032 178 98.8912 177.328 98.8912C176.392 98.8912 175.6 98.7472 174.184 98.7472C173.272 98.7472 171.784 98.8432 170.272 98.9872C170.272 99.6832 170.272 100.379 170.272 100.955C170.272 103.427 170.512 107.555 170.512 108.515C170.512 109.763 169.528 111.323 168.304 111.323C167.272 111.323 167.272 110.843 166.696 109.811C166.384 109.259 165.712 108.587 164.872 108.035L165.04 107.651C166.048 107.867 166.936 108.059 167.56 108.083C167.824 108.107 167.968 108.059 167.992 107.747C168.112 106.499 168.088 102.995 168.064 100.955L168.04 99.2272C166.552 99.3952 164.92 99.6592 163.792 99.9472C162.904 100.163 162.424 100.691 161.776 100.691C161.008 100.691 159.952 99.7312 159.52 98.7472C159.352 98.3152 159.352 97.4992 159.376 97.0432L159.712 96.9232C160.312 97.6672 160.696 98.0512 161.416 98.0272C162.52 98.0272 166 97.6432 167.992 97.4272C167.944 95.8912 167.872 94.4512 167.752 94.0912C167.56 93.5152 166.936 93.2992 165.928 93.0592ZM172.648 101.915L172.888 101.555C175.84 102.203 178.696 104.075 178.912 106.523C178.96 107.459 178.456 108.155 177.592 108.155C176.608 108.155 176.224 107.243 175.864 106.427C175.096 104.747 174.256 103.307 172.648 101.915ZM185.152 93.5632L185.368 93.1792C188.68 93.5632 192.616 94.9792 192.616 97.4512C192.616 98.3152 191.992 99.0592 191.056 99.0592C190.288 99.0592 189.784 98.6272 189.184 97.7872C188.056 96.2032 187.456 95.3152 185.152 93.5632ZM187.768 106.715C190.36 106.715 199.744 100.187 203.2 95.5552L203.632 95.8432C200.92 101.099 196.552 105.323 190.984 108.731C190.216 109.211 189.904 110.003 189.208 110.003C187.84 110.003 186.16 108.587 185.68 107.627C185.392 107.075 185.152 106.139 185.152 105.443L185.488 105.227C186.064 105.803 186.904 106.715 187.768 106.715ZM217.408 92.0992L217.384 91.7392C218.104 91.3552 218.8 91.0432 219.4 91.0432C220.672 91.0432 222.496 92.1472 222.496 92.9632C222.496 93.5632 221.944 93.4432 221.872 94.8112C221.848 95.6032 221.824 96.3712 221.824 97.0672C223.864 96.8512 224.152 96.5872 224.632 96.5872C226.048 96.5872 227.656 97.2352 227.656 98.3872C227.656 99.1792 227.248 99.3232 226.576 99.3232C225.712 99.3232 224.44 98.9152 222.04 98.9152H221.824C221.704 102.251 221.488 104.987 220.168 106.835C218.584 109.139 215.992 110.627 212.752 111.491L212.536 111.083C214.528 110.051 216.64 108.611 217.984 106.307C218.944 104.699 219.28 101.843 219.328 99.0352C217.816 99.1552 216.184 99.3232 214.936 99.4672C214.936 101.435 214.96 103.187 214.96 104.291C214.96 105.251 214.6 105.707 213.808 105.707C212.92 105.707 212.248 104.291 212.248 103.307C212.248 102.707 212.632 101.963 212.68 99.8032C211.696 99.9712 210.88 100.163 210.304 100.355C209.68 100.571 209.128 100.955 208.6 100.955C207.664 100.955 206.728 99.5632 206.488 99.0352C206.32 98.6752 206.272 97.9792 206.32 97.3312L206.632 97.2352C207.28 97.9792 207.688 98.3872 208.36 98.3872C209.176 98.3872 211.216 98.1472 212.68 98.0032C212.656 96.6112 212.608 95.2912 212.512 94.7632C212.392 94.1392 211.864 93.8992 210.76 93.5872L210.736 93.2512C211.312 92.9152 212.032 92.6512 212.632 92.6512C213.568 92.6512 215.464 93.4912 215.464 94.4512C215.464 95.0032 215.056 95.0512 214.984 95.9152C214.96 96.3232 214.936 97.0432 214.936 97.7632C216.256 97.6432 217.96 97.4512 219.328 97.3072C219.352 95.5312 219.328 94.2112 219.16 93.1792C219.088 92.5312 218.584 92.3632 217.408 92.0992ZM231.04 99.1552L231.448 99.0112C232.168 99.9712 232.576 100.619 233.848 100.619C236.416 100.619 243.664 100.139 245.128 100.019C246.736 99.8752 247.816 99.6832 248.392 99.6832C249.832 99.6832 251.08 100.427 251.08 101.459C251.08 102.155 250.504 102.491 249.496 102.491C248.536 102.491 247.696 102.419 246.016 102.419C244.192 102.419 238.816 102.755 236.968 102.971C235.24 103.139 234.88 103.715 233.968 103.715C233.032 103.715 231.544 102.155 231.112 100.979C230.896 100.427 230.968 99.7312 231.04 99.1552ZM264.112 96.2272C264.112 95.4352 263.776 94.7152 263.368 94.1632C261.808 94.5952 260.296 95.4832 259.144 96.7072C257.752 98.2432 256.984 99.8752 256.984 101.843C256.984 103.739 257.8 105.515 258.808 105.515C260.152 105.515 262.264 102.203 263.032 100.547C263.656 99.1552 264.112 97.4992 264.112 96.2272ZM263.872 110.507L263.776 110.051C269.848 108.611 272.128 105.275 272.128 101.123C272.128 96.7072 269.296 93.8752 265.408 93.8752C265.096 93.8752 264.76 93.8992 264.448 93.9472C265.168 94.6912 266.032 95.8672 266.032 96.9952C266.032 98.2192 265.792 99.8032 265.24 101.267C264.16 104.315 261.472 108.683 258.544 108.683C256.624 108.683 254.848 105.731 254.848 102.611C254.848 100.379 255.952 97.5232 258.376 95.4832C260.32 93.8032 262.744 92.9152 265.672 92.9152C271.192 92.9152 275.104 96.7552 275.104 101.747C275.104 106.283 271.936 110.171 263.872 110.507ZM295.6 94.4752L297.232 92.3632C297.232 92.3632 299.08 93.7792 300.208 94.7632C300.136 95.0272 299.872 95.1232 299.536 95.1232H288.4C288.304 96.5872 288.16 98.0032 287.92 99.3712H293.392L294.904 97.8832L297.496 100.091C297.304 100.307 296.992 100.451 296.464 100.547C296.104 106.403 295.408 109.979 293.992 111.131C293.128 111.827 292.096 112.163 290.488 112.139C290.488 111.323 290.368 110.627 289.912 110.219C289.432 109.763 288.328 109.379 287.08 109.139V108.827C288.4 108.923 290.44 109.067 291.064 109.067C291.52 109.067 291.736 109.019 292 108.803C292.768 108.155 293.32 104.771 293.608 100.043H287.8C286.768 105.347 284.272 109.667 278.056 112.211L277.888 111.971C283.72 107.771 285.064 101.819 285.232 95.1232H277.96L277.768 94.4752H287.464V89.6272L291.232 89.9152C291.184 90.2512 290.992 90.4912 290.344 90.5872V94.4752H295.6ZM308.392 101.099L308.92 101.315C308.464 102.635 307.672 104.891 307.408 105.755C307.216 106.715 307.12 107.219 307.12 107.579C307.12 108.443 307.576 109.259 307.576 110.003C307.576 110.867 307.144 111.347 306.352 111.347C305.776 111.347 305.2 110.915 304.744 110.267C303.856 109.067 303.256 107.027 303.256 104.291C303.256 102.083 303.928 99.2272 304.312 97.7872C304.624 96.6112 304.864 95.6512 304.864 94.5712C304.864 93.4672 304.24 92.4592 303.616 91.7152L303.856 91.4512C304.648 91.6432 305.152 91.8352 305.752 92.2432C306.472 92.6992 307.816 94.0912 307.816 95.3872C307.816 96.0592 307.432 96.5392 306.88 97.6432C305.992 99.2512 305.008 101.675 305.008 104.075C305.008 104.819 305.104 105.419 305.272 105.755C305.416 106.115 305.68 106.139 305.896 105.779C306.472 104.915 307.744 102.299 308.392 101.099ZM316.792 106.211V106.163C316 105.947 315.16 105.851 314.272 105.851C312.928 105.851 311.608 106.427 311.608 107.435C311.608 108.323 312.664 108.707 313.792 108.707C316.216 108.707 316.792 107.867 316.792 106.211ZM314.224 92.7472L314.152 92.3872C314.776 91.9552 315.664 91.4272 316.312 91.4272C317.92 91.4272 319.432 92.2672 319.432 92.9632C319.432 93.5392 319.192 93.7312 319.024 94.5952C318.952 94.9792 318.88 95.5312 318.808 96.2032C320.464 95.6512 321.088 95.2672 321.232 95.2672C322.096 95.2672 323.08 95.6752 323.08 96.4192C323.08 97.2112 322.672 97.3792 321.568 97.8352C321.04 98.0272 319.96 98.3392 318.688 98.5792C318.664 98.8912 318.664 99.2272 318.664 99.5392C318.664 101.579 318.832 103.259 318.952 104.627C320.944 105.155 322.192 106.091 322.984 106.883C323.512 107.387 323.8 107.915 323.8 108.467C323.8 109.259 323.368 109.739 322.72 109.739C322.168 109.739 321.808 109.355 321.016 108.611C320.392 108.035 319.792 107.579 319.168 107.195V107.339C319.168 109.619 317.728 110.819 314.512 110.819C312.352 110.819 310.432 109.691 310.432 107.627C310.432 105.251 312.856 104.219 315.616 104.219C316 104.219 316.36 104.243 316.72 104.267C316.648 102.851 316.552 101.075 316.528 99.4912V98.9152C315.76 99.0112 314.992 99.0592 314.272 99.0592C312.712 99.0592 311.488 98.8672 310.312 96.2032L310.6 95.9392C311.776 96.7312 312.856 97.0432 313.84 97.0432C314.848 97.0432 315.736 96.9472 316.528 96.8032L316.552 94.4032C316.552 93.3712 316.36 93.2992 315.952 93.1552C315.424 92.9392 314.8 92.8432 314.224 92.7472ZM329.992 102.587L330.472 102.563C330.712 105.947 331.696 107.867 336.448 107.867C340.12 107.867 342.016 106.787 342.688 106.787C343.576 106.787 345.04 107.315 345.04 108.323C345.04 109.091 344.752 109.403 343.72 109.787C342.4 110.243 340 110.555 337.216 110.555C330.208 110.555 328.672 107.219 329.992 102.587ZM333.544 98.7952L333.328 98.4352C334.264 97.7392 335.488 96.7552 336.184 96.1792C336.376 96.0112 336.352 95.9392 336.064 95.9152C333.592 95.8192 331.528 95.5072 330.592 92.9872L330.856 92.7472C332.248 93.6832 333.208 93.8992 335.128 93.8992C338.296 93.8992 338.92 93.2752 340.072 93.2752C341.224 93.2752 343.072 94.0192 343.072 94.9312C343.072 95.6032 342.688 95.9632 341.824 96.1312C341.056 96.2752 340.144 96.4192 339.256 96.6592C337.816 97.0192 335.68 97.8592 333.544 98.7952ZM355.384 91.7392V91.3792C356.032 91.0912 356.56 90.9232 357.136 90.9232C358.768 90.9232 360.352 91.6912 360.352 92.3392C360.352 92.9872 359.8 93.1792 359.512 94.1872C359.416 94.5472 359.296 94.9552 359.176 95.4112C360.424 95.0992 361.552 94.6912 362.344 94.2832C363.28 93.7792 363.664 93.5392 363.904 93.5392C364.552 93.5392 366.04 93.6832 366.04 94.6912C366.04 95.3152 365.56 95.7712 364.48 96.1792C363.448 96.5872 361.192 97.2832 358.6 97.6672C358.12 99.5392 357.472 101.867 357.232 102.755C357.136 103.067 357.184 103.139 357.472 102.923C359.896 101.435 361.816 100.475 364.192 100.475C368.008 100.475 369.784 102.803 369.784 105.371C369.784 110.099 363.424 111.803 357.328 111.227L357.28 110.723C359.08 110.579 360.856 110.195 362.512 109.547C366.04 108.275 367.048 106.355 367.048 104.555C367.048 102.947 365.968 101.483 363.952 101.483C361.384 101.483 358.624 104.195 357.088 106.043C356.608 106.619 356.368 107.555 355.624 107.555C354.856 107.555 354.064 106.163 354.064 105.155C354.064 104.795 354.256 104.699 354.616 104.003C355.144 103.019 355.912 99.9472 356.392 97.8832C355.984 97.9072 355.552 97.9312 355.144 97.9312C353.056 97.9312 352.096 97.3792 351.112 94.5712L351.448 94.3552C352.624 95.4592 353.776 95.9152 355.288 95.9152C355.792 95.9152 356.32 95.8912 356.824 95.8192C357.04 94.7872 357.184 93.8512 357.232 93.2752C357.304 92.6752 357.184 92.5552 356.8 92.3152C356.416 92.0992 356.008 91.9312 355.384 91.7392ZM383.704 93.5872C383.08 92.6032 381.928 92.1472 380.44 91.6432L380.536 91.2832C382.912 91.1152 384.4 91.4992 385.384 92.0752C386.752 92.8672 387.52 93.8992 387.52 95.2912C387.52 95.9632 387.184 96.3712 386.392 96.3712C385.6 96.3712 385.024 96.1072 383.944 96.0112C382.816 95.9392 381.232 96.1312 380.632 96.2272C380.2 96.2752 380.104 96.4672 380.104 96.6592C380.104 97.0432 380.464 97.6432 380.536 98.3152C380.584 99.0112 380.464 99.5152 380.368 100.283C380.248 101.219 379.984 102.203 380.008 102.923C380.032 103.187 380.128 103.235 380.32 103.115C382.024 102.011 385 100.043 388.264 100.043C392.128 100.043 394.048 102.683 394.048 105.251C394.048 109.931 387.112 111.827 381.088 111.275L381.04 110.795C382.912 110.555 384.784 110.099 385.888 109.691C390.016 108.203 391.192 106.283 391.192 104.315C391.192 102.635 390.064 101.051 388 101.051C385.312 101.051 382.432 103.979 381.064 105.707C380.464 106.547 380.152 107.507 379.36 107.507C378.904 107.507 378.448 107.243 377.992 106.715C377.56 106.259 377.368 105.755 377.368 105.203C377.368 104.747 377.536 104.219 377.68 103.283C377.848 102.155 378.232 99.7792 378.352 98.6512C378.424 97.9552 378.4 97.5472 378.4 96.9472C378.4 96.2992 378.664 95.5552 379.504 95.4112C380.56 95.2432 382.816 94.6672 383.608 94.2352C383.896 94.0912 383.92 93.8752 383.704 93.5872Z" fill="#4D3A3F"/>
<path d="M117 102.2C117 101.591 117.469 101.075 118.125 101.075H120.375C120.984 101.075 121.5 101.591 121.5 102.2V104.45C121.5 105.106 120.984 105.575 120.375 105.575H118.125C117.469 105.575 117 105.106 117 104.45V102.2ZM120 104.075V102.575H118.5V104.075H120ZM117 90.2002C117 89.5908 117.469 89.0752 118.125 89.0752H120.375C120.984 89.0752 121.5 89.5908 121.5 90.2002V92.4502C121.5 93.1064 120.984 93.5752 120.375 93.5752H118.125C117.469 93.5752 117 93.1064 117 92.4502V90.2002ZM118.5 90.5752V92.0752H120V90.5752H118.5ZM118.125 99.5752C117.469 99.5752 117 99.1064 117 98.4502V96.2002C117 95.5908 117.469 95.0752 118.125 95.0752H120.375C120.984 95.0752 121.5 95.5908 121.5 96.2002V98.4502C121.5 99.1064 120.984 99.5752 120.375 99.5752H118.125ZM118.5 96.5752V98.0752H120V96.5752H118.5ZM123 86.0752C124.641 86.0752 126 87.4346 126 89.0752V107.075C126 108.763 124.641 110.075 123 110.075H115.5C113.812 110.075 112.5 108.763 112.5 107.075V89.0752C112.5 87.4346 113.812 86.0752 115.5 86.0752H123ZM123 87.5752H115.5C114.656 87.5752 114 88.2783 114 89.0752V107.075C114 107.919 114.656 108.575 115.5 108.575H123C123.797 108.575 124.5 107.919 124.5 107.075V89.0752C124.5 88.2783 123.797 87.5752 123 87.5752ZM110.25 93.5752H105C104.156 93.5752 103.5 94.2783 103.5 95.0752V107.075C103.5 107.919 104.156 108.575 105 108.575H111C111.375 108.575 111.75 108.95 111.75 109.325C111.75 109.747 111.375 110.075 111 110.075H105C103.312 110.075 102 108.763 102 107.075V95.0752C102 93.4346 103.312 92.0752 105 92.0752H110.25C110.625 92.0752 111 92.4502 111 92.8252C111 93.2471 110.625 93.5752 110.25 93.5752ZM108.375 101.075C108.984 101.075 109.5 101.591 109.5 102.2V104.45C109.5 105.106 108.984 105.575 108.375 105.575H106.125C105.469 105.575 105 105.106 105 104.45V102.2C105 101.591 105.469 101.075 106.125 101.075H108.375ZM108 104.075V102.575H106.5V104.075H108ZM108.375 95.0752C108.984 95.0752 109.5 95.5908 109.5 96.2002V98.4502C109.5 99.1064 108.984 99.5752 108.375 99.5752H106.125C105.469 99.5752 105 99.1064 105 98.4502V96.2002C105 95.5908 105.469 95.0752 106.125 95.0752H108.375ZM108 98.0752V96.5752H106.5V98.0752H108Z" fill="#4D3A3F"/>
<path d="M471.375 91.4033L479.625 99.2783C479.859 99.5127 480 99.7939 480 100.122C480 100.403 479.859 100.685 479.625 100.919L471.375 108.794C470.953 109.216 470.203 109.216 469.781 108.747C469.359 108.325 469.359 107.575 469.828 107.153L476.062 101.247H460.125C459.469 101.247 459 100.731 459 100.122C459 99.4658 459.469 98.9971 460.125 98.9971H476.062L469.828 93.0439C469.359 92.6221 469.359 91.8721 469.781 91.4502C470.203 90.9814 470.906 90.9814 471.375 91.4033Z" fill="#4D3A3F"/>
</svg>
