<svg width="510" height="211" viewBox="0 0 510 211" fill="none" xmlns="http://www.w3.org/2000/svg">
<rect x="10" y="10.9414" width="499.999" height="200" fill="#CFAE7F" fill-opacity="0.6"/>
<rect x="1" y="1.94141" width="497.999" height="198" stroke="#4D3A3F" stroke-width="2"/>
<path d="M149.944 92.5094C149.944 91.7574 150.208 91.1174 150.736 90.5894C151.264 90.0614 151.912 89.7974 152.68 89.7974C153.432 89.7974 154.072 90.0614 154.6 90.5894C155.128 91.1174 155.392 91.7574 155.392 92.5094C155.392 93.2774 155.128 93.9254 154.6 94.4534C154.072 94.9814 153.432 95.2454 152.68 95.2454C151.912 95.2454 151.264 94.9814 150.736 94.4534C150.208 93.9254 149.944 93.2774 149.944 92.5094ZM150.928 92.5094C150.928 93.0054 151.096 93.4214 151.432 93.7574C151.784 94.0934 152.2 94.2614 152.68 94.2614C153.16 94.2614 153.568 94.0934 153.904 93.7574C154.24 93.4214 154.408 93.0054 154.408 92.5094C154.408 92.0294 154.24 91.6214 153.904 91.2854C153.568 90.9494 153.16 90.7814 152.68 90.7814C152.2 90.7814 151.784 90.9494 151.432 91.2854C151.096 91.6214 150.928 92.0294 150.928 92.5094ZM139.48 94.8374L139.552 94.4774C139.808 94.4294 140.104 94.3894 140.44 94.3574C140.776 94.3094 141.096 94.2934 141.4 94.3094C141.816 94.3414 142.216 94.4774 142.6 94.7174C143 94.9574 143.352 95.2534 143.656 95.6054C143.976 95.9574 144.224 96.3094 144.4 96.6614C144.592 97.0134 144.688 97.3254 144.688 97.5974C144.688 97.9014 144.536 98.1734 144.232 98.4134C143.944 98.6374 143.664 98.9094 143.392 99.2294C142.88 99.8534 142.264 100.501 141.544 101.173C140.84 101.845 140.056 102.509 139.192 103.165C138.328 103.821 137.424 104.437 136.48 105.013C135.552 105.573 134.616 106.061 133.672 106.477L133.384 106.069C134.136 105.525 134.88 104.909 135.616 104.221C136.352 103.517 137.04 102.797 137.68 102.061C138.336 101.325 138.912 100.605 139.408 99.9014C139.92 99.1974 140.32 98.5574 140.608 97.9814C140.912 97.4054 141.064 96.9494 141.064 96.6134C141.064 96.3894 140.992 96.1734 140.848 95.9654C140.704 95.7414 140.512 95.5334 140.272 95.3414C140.048 95.1494 139.784 94.9814 139.48 94.8374ZM153.688 105.253C153.192 105.269 152.824 105.093 152.584 104.725C152.344 104.357 152.136 103.869 151.96 103.261C151.448 101.565 150.768 99.9974 149.92 98.5574C149.088 97.1174 147.952 95.7974 146.512 94.5974L146.8 94.2134C147.808 94.6454 148.808 95.1814 149.8 95.8214C150.808 96.4454 151.72 97.1574 152.536 97.9574C153.352 98.7414 154.008 99.5654 154.504 100.429C155 101.277 155.272 102.133 155.32 102.997C155.336 103.381 155.272 103.749 155.128 104.101C155 104.453 154.808 104.733 154.552 104.941C154.312 105.149 154.024 105.253 153.688 105.253ZM159.448 96.8774C159.688 97.1974 159.904 97.4774 160.096 97.7174C160.304 97.9574 160.544 98.1494 160.816 98.2934C161.088 98.4214 161.432 98.4854 161.848 98.4854C162.28 98.4854 162.816 98.4774 163.456 98.4614C164.112 98.4294 164.824 98.3974 165.592 98.3654C166.36 98.3174 167.128 98.2694 167.896 98.2214C168.68 98.1734 169.424 98.1254 170.128 98.0774C170.832 98.0294 171.44 97.9894 171.952 97.9574C172.48 97.9094 172.872 97.8854 173.128 97.8854C173.928 97.8054 174.6 97.7334 175.144 97.6694C175.688 97.5894 176.104 97.5494 176.392 97.5494C176.888 97.5494 177.336 97.6294 177.736 97.7894C178.136 97.9334 178.456 98.1414 178.696 98.4134C178.952 98.6694 179.08 98.9734 179.08 99.3254C179.08 99.6774 178.944 99.9414 178.672 100.117C178.4 100.277 178.008 100.357 177.496 100.357C177.032 100.357 176.544 100.349 176.032 100.333C175.536 100.301 174.864 100.285 174.016 100.285C173.648 100.285 173.16 100.301 172.552 100.333C171.96 100.349 171.304 100.381 170.584 100.429C169.864 100.461 169.144 100.501 168.424 100.549C167.704 100.597 167.04 100.645 166.432 100.693C165.824 100.741 165.336 100.789 164.968 100.837C164.392 100.885 163.944 100.973 163.624 101.101C163.304 101.213 163.024 101.325 162.784 101.437C162.544 101.533 162.272 101.581 161.968 101.581C161.664 101.581 161.312 101.437 160.912 101.149C160.528 100.845 160.168 100.485 159.832 100.069C159.496 99.6374 159.256 99.2294 159.112 98.8454C159 98.5734 158.952 98.2774 158.968 97.9574C158.984 97.6214 159.008 97.3094 159.04 97.0214L159.448 96.8774ZM187.912 89.6774C188.264 89.5174 188.624 89.3654 188.992 89.2214C189.376 89.0614 189.744 88.9814 190.096 88.9814C190.384 88.9814 190.72 89.0534 191.104 89.1974C191.488 89.3254 191.856 89.4854 192.208 89.6774C192.576 89.8694 192.872 90.0854 193.096 90.3254C193.32 90.5494 193.432 90.7574 193.432 90.9494C193.432 91.1894 193.384 91.3894 193.288 91.5494C193.208 91.7094 193.112 91.8774 193 92.0534C192.904 92.2294 192.832 92.4694 192.784 92.7734C192.736 93.1254 192.688 93.5334 192.64 93.9974C192.608 94.4614 192.584 94.9574 192.568 95.4854C192.552 96.0134 192.544 96.5574 192.544 97.1174C192.528 97.7574 192.512 98.4294 192.496 99.1334C192.496 99.8374 192.496 100.541 192.496 101.245C192.512 101.949 192.528 102.621 192.544 103.261C192.56 103.901 192.568 104.493 192.568 105.037C192.6 105.645 192.624 106.157 192.64 106.573C192.656 106.973 192.664 107.253 192.664 107.413C192.664 108.037 192.576 108.485 192.4 108.757C192.24 109.029 191.92 109.165 191.44 109.165C191.04 109.165 190.696 109.029 190.408 108.757C190.12 108.485 189.896 108.125 189.736 107.677C189.592 107.213 189.52 106.685 189.52 106.093C189.52 105.773 189.56 105.453 189.64 105.133C189.72 104.797 189.792 104.365 189.856 103.837C189.904 103.389 189.944 102.877 189.976 102.301C190.008 101.709 190.024 101.101 190.024 100.477C190.04 99.8534 190.048 99.2694 190.048 98.7254C190.064 98.1814 190.072 97.7334 190.072 97.3814C190.072 96.8694 190.064 96.3254 190.048 95.7494C190.048 95.1574 190.032 94.5734 190 93.9974C189.984 93.4214 189.96 92.8934 189.928 92.4134C189.896 91.9334 189.856 91.5574 189.808 91.2854C189.728 90.8854 189.52 90.6054 189.184 90.4454C188.848 90.2854 188.432 90.1574 187.936 90.0614L187.912 89.6774ZM191.992 96.3494C193.304 96.4614 194.544 96.6774 195.712 96.9974C196.896 97.3014 197.84 97.6694 198.544 98.1014C199.072 98.4054 199.496 98.7574 199.816 99.1574C200.136 99.5574 200.296 100.077 200.296 100.717C200.296 101.101 200.168 101.445 199.912 101.749C199.672 102.037 199.336 102.181 198.904 102.181C198.52 102.181 198.208 102.109 197.968 101.965C197.728 101.805 197.504 101.589 197.296 101.317C197.088 101.029 196.84 100.701 196.552 100.333C196.264 99.9654 195.888 99.5734 195.424 99.1574C195.008 98.8054 194.528 98.4614 193.984 98.1254C193.456 97.7894 192.792 97.4534 191.992 97.1174V96.3494ZM219.064 96.6374C218.936 98.7494 218.536 100.621 217.864 102.253C217.192 103.869 216.208 105.269 214.912 106.453C213.616 107.621 211.944 108.589 209.896 109.357L209.608 108.925C211.096 107.933 212.328 106.821 213.304 105.589C214.296 104.357 215.048 102.989 215.56 101.485C216.088 99.9814 216.376 98.3334 216.424 96.5414C216.44 95.9814 216.448 95.3814 216.448 94.7414C216.448 94.0854 216.432 93.4614 216.4 92.8694C216.384 92.2774 216.344 91.8054 216.28 91.4534C216.264 91.2294 216.152 91.0534 215.944 90.9254C215.736 90.7814 215.496 90.6614 215.224 90.5654C214.952 90.4694 214.68 90.3894 214.408 90.3254L214.384 89.9654C214.656 89.7894 215 89.5894 215.416 89.3654C215.848 89.1254 216.248 89.0054 216.616 89.0054C217.096 89.0054 217.584 89.1094 218.08 89.3174C218.576 89.5094 218.992 89.7494 219.328 90.0374C219.68 90.3094 219.856 90.5734 219.856 90.8294C219.856 91.0374 219.816 91.2054 219.736 91.3334C219.656 91.4614 219.568 91.6054 219.472 91.7654C219.376 91.9094 219.312 92.1494 219.28 92.4854C219.232 93.1414 219.192 93.8454 219.16 94.5974C219.128 95.3334 219.096 96.0134 219.064 96.6374ZM206.944 95.4134L207.256 95.2934C207.56 95.6134 207.848 95.8774 208.12 96.0854C208.408 96.2774 208.76 96.3734 209.176 96.3734C209.4 96.3734 209.744 96.3574 210.208 96.3254C210.672 96.2774 211.208 96.2214 211.816 96.1574C212.424 96.0774 213.064 95.9974 213.736 95.9174C214.408 95.8374 215.08 95.7574 215.752 95.6774C216.424 95.5814 217.032 95.5014 217.576 95.4374C218.76 95.2934 219.728 95.1654 220.48 95.0534C221.232 94.9414 221.832 94.8374 222.28 94.7414C222.728 94.6454 223.072 94.5654 223.312 94.5014C223.568 94.4374 223.752 94.3894 223.864 94.3574C223.992 94.3254 224.112 94.3094 224.224 94.3094C224.448 94.3094 224.736 94.3574 225.088 94.4534C225.456 94.5494 225.808 94.6854 226.144 94.8614C226.496 95.0374 226.792 95.2374 227.032 95.4614C227.272 95.6854 227.392 95.9174 227.392 96.1574C227.392 96.5574 227.272 96.8374 227.032 96.9974C226.792 97.1574 226.512 97.2374 226.192 97.2374C225.824 97.2374 225.256 97.2134 224.488 97.1654C223.72 97.1014 222.76 97.0694 221.608 97.0694C220.456 97.0534 219.12 97.1174 217.6 97.2614C216.96 97.3254 216.264 97.4214 215.512 97.5494C214.776 97.6774 214.08 97.8134 213.424 97.9574C212.784 98.1014 212.264 98.2294 211.864 98.3414C211.496 98.4374 211.16 98.5734 210.856 98.7494C210.552 98.9254 210.216 99.0134 209.848 99.0134C209.576 99.0134 209.248 98.8934 208.864 98.6534C208.48 98.3974 208.128 98.0934 207.808 97.7414C207.488 97.3734 207.272 97.0534 207.16 96.7814C207.096 96.6374 207.048 96.4534 207.016 96.2294C206.984 95.9894 206.96 95.7174 206.944 95.4134ZM231.448 96.8774C231.688 97.1974 231.904 97.4774 232.096 97.7174C232.304 97.9574 232.544 98.1494 232.816 98.2934C233.088 98.4214 233.432 98.4854 233.848 98.4854C234.28 98.4854 234.816 98.4774 235.456 98.4614C236.112 98.4294 236.824 98.3974 237.592 98.3654C238.36 98.3174 239.128 98.2694 239.896 98.2214C240.68 98.1734 241.424 98.1254 242.128 98.0774C242.832 98.0294 243.44 97.9894 243.952 97.9574C244.48 97.9094 244.872 97.8854 245.128 97.8854C245.928 97.8054 246.6 97.7334 247.144 97.6694C247.688 97.5894 248.104 97.5494 248.392 97.5494C248.888 97.5494 249.336 97.6294 249.736 97.7894C250.136 97.9334 250.456 98.1414 250.696 98.4134C250.952 98.6694 251.08 98.9734 251.08 99.3254C251.08 99.6774 250.944 99.9414 250.672 100.117C250.4 100.277 250.008 100.357 249.496 100.357C249.032 100.357 248.544 100.349 248.032 100.333C247.536 100.301 246.864 100.285 246.016 100.285C245.648 100.285 245.16 100.301 244.552 100.333C243.96 100.349 243.304 100.381 242.584 100.429C241.864 100.461 241.144 100.501 240.424 100.549C239.704 100.597 239.04 100.645 238.432 100.693C237.824 100.741 237.336 100.789 236.968 100.837C236.392 100.885 235.944 100.973 235.624 101.101C235.304 101.213 235.024 101.325 234.784 101.437C234.544 101.533 234.272 101.581 233.968 101.581C233.664 101.581 233.312 101.437 232.912 101.149C232.528 100.845 232.168 100.485 231.832 100.069C231.496 99.6374 231.256 99.2294 231.112 98.8454C231 98.5734 230.952 98.2774 230.968 97.9574C230.984 97.6214 231.008 97.3094 231.04 97.0214L231.448 96.8774ZM264.28 91.6454C264.536 91.8854 264.8 92.1814 265.072 92.5334C265.344 92.8854 265.568 93.2614 265.744 93.6614C265.936 94.0454 266.032 94.4454 266.032 94.8614C266.032 95.4694 265.968 96.1494 265.84 96.9014C265.712 97.6534 265.512 98.3974 265.24 99.1334C265.016 99.7414 264.736 100.389 264.4 101.077C264.08 101.749 263.696 102.413 263.248 103.069C262.816 103.709 262.352 104.293 261.856 104.821C261.36 105.349 260.832 105.773 260.272 106.093C259.712 106.397 259.136 106.549 258.544 106.549C258.064 106.549 257.6 106.381 257.152 106.045C256.72 105.709 256.328 105.253 255.976 104.677C255.64 104.101 255.368 103.453 255.16 102.733C254.952 102.013 254.848 101.261 254.848 100.477C254.848 99.7254 254.968 98.9334 255.208 98.1014C255.464 97.2534 255.856 96.4214 256.384 95.6054C256.912 94.7734 257.576 94.0214 258.376 93.3494C259.352 92.5014 260.448 91.8614 261.664 91.4294C262.88 90.9974 264.216 90.7814 265.672 90.7814C267.064 90.7814 268.328 91.0054 269.464 91.4534C270.616 91.9014 271.608 92.5254 272.44 93.3254C273.288 94.1254 273.944 95.0614 274.408 96.1334C274.872 97.2054 275.104 98.3654 275.104 99.6134C275.104 100.749 274.896 101.829 274.48 102.853C274.064 103.861 273.408 104.765 272.512 105.565C271.616 106.365 270.456 107.013 269.032 107.509C267.624 108.005 265.904 108.293 263.872 108.373L263.776 107.917C265.808 107.437 267.432 106.765 268.648 105.901C269.88 105.037 270.768 104.013 271.312 102.829C271.856 101.645 272.128 100.365 272.128 98.9894C272.128 97.5174 271.84 96.2454 271.264 95.1734C270.688 94.0854 269.888 93.2454 268.864 92.6534C267.856 92.0454 266.704 91.7414 265.408 91.7414C264.32 91.7414 263.208 91.9974 262.072 92.5094C260.952 93.0054 259.976 93.6934 259.144 94.5734C258.456 95.3414 257.92 96.1414 257.536 96.9734C257.168 97.8054 256.984 98.7174 256.984 99.7094C256.984 100.333 257.064 100.925 257.224 101.485C257.4 102.045 257.624 102.501 257.896 102.853C258.168 103.205 258.472 103.381 258.808 103.381C259.144 103.381 259.512 103.205 259.912 102.853C260.328 102.485 260.736 102.037 261.136 101.509C261.552 100.981 261.92 100.437 262.24 99.8774C262.576 99.3174 262.84 98.8294 263.032 98.4134C263.352 97.7254 263.608 96.9894 263.8 96.2054C264.008 95.4214 264.112 94.7174 264.112 94.0934C264.112 93.6614 264.016 93.2454 263.824 92.8454C263.648 92.4454 263.44 92.1094 263.2 91.8374L264.28 91.6454ZM285.976 97.2374H295.144V97.9094H285.976V97.2374ZM277.768 92.3414H295.6L297.208 90.2294C297.208 90.2294 297.312 90.3094 297.52 90.4694C297.728 90.6294 297.984 90.8294 298.288 91.0694C298.608 91.3094 298.936 91.5734 299.272 91.8614C299.608 92.1334 299.92 92.3894 300.208 92.6294C300.176 92.7574 300.096 92.8534 299.968 92.9174C299.856 92.9814 299.712 93.0134 299.536 93.0134H277.96L277.768 92.3414ZM293.656 97.2374H293.392L294.88 95.7494L297.496 97.9574C297.4 98.0694 297.264 98.1654 297.088 98.2454C296.928 98.3094 296.712 98.3654 296.44 98.4134C296.36 99.8694 296.248 101.189 296.104 102.373C295.976 103.557 295.816 104.597 295.624 105.493C295.432 106.373 295.2 107.109 294.928 107.701C294.656 108.277 294.344 108.709 293.992 108.997C293.56 109.349 293.064 109.605 292.504 109.765C291.96 109.941 291.288 110.029 290.488 110.029C290.488 109.613 290.448 109.237 290.368 108.901C290.288 108.565 290.136 108.293 289.912 108.085C289.752 107.925 289.528 107.781 289.24 107.653C288.952 107.525 288.624 107.405 288.256 107.293C287.888 107.181 287.496 107.085 287.08 107.005V106.693C287.512 106.725 288 106.765 288.544 106.813C289.088 106.845 289.592 106.877 290.056 106.909C290.52 106.941 290.848 106.957 291.04 106.957C291.264 106.957 291.44 106.941 291.568 106.909C291.712 106.861 291.848 106.781 291.976 106.669C292.184 106.509 292.376 106.165 292.552 105.637C292.728 105.109 292.88 104.437 293.008 103.621C293.152 102.789 293.272 101.837 293.368 100.765C293.48 99.6774 293.576 98.5014 293.656 97.2374ZM287.464 87.4934L291.208 87.7814C291.192 87.9414 291.12 88.0854 290.992 88.2134C290.88 88.3254 290.664 88.4134 290.344 88.4774V92.5814H287.464V87.4934ZM285.208 92.5094H288.424C288.312 94.4294 288.088 96.2694 287.752 98.0294C287.432 99.7734 286.904 101.405 286.168 102.925C285.432 104.445 284.408 105.813 283.096 107.029C281.8 108.229 280.12 109.245 278.056 110.077L277.888 109.837C279.376 108.765 280.592 107.589 281.536 106.309C282.496 105.013 283.232 103.629 283.744 102.157C284.272 100.685 284.64 99.1414 284.848 97.5254C285.072 95.9094 285.192 94.2374 285.208 92.5094ZM310.312 94.0694L310.6 93.8054C311.192 94.2054 311.76 94.4934 312.304 94.6694C312.848 94.8294 313.36 94.9094 313.84 94.9094C314.544 94.9094 315.192 94.8694 315.784 94.7894C316.376 94.7094 316.92 94.6054 317.416 94.4774C317.912 94.3494 318.344 94.2214 318.712 94.0934C319.576 93.8054 320.192 93.5734 320.56 93.3974C320.928 93.2214 321.152 93.1334 321.232 93.1334C321.664 93.1334 322.08 93.2374 322.48 93.4454C322.88 93.6374 323.08 93.9174 323.08 94.2854C323.08 94.6694 322.96 94.9414 322.72 95.1014C322.496 95.2614 322.112 95.4614 321.568 95.7014C321.296 95.7974 320.896 95.9174 320.368 96.0614C319.84 96.2054 319.232 96.3414 318.544 96.4694C317.872 96.5974 317.168 96.7094 316.432 96.8054C315.696 96.8854 314.976 96.9254 314.272 96.9254C313.744 96.9254 313.256 96.8774 312.808 96.7814C312.36 96.6694 311.928 96.4134 311.512 96.0134C311.112 95.5974 310.712 94.9494 310.312 94.0694ZM314.224 90.6134L314.152 90.2534C314.456 90.0294 314.808 89.8134 315.208 89.6054C315.624 89.3974 315.992 89.2934 316.312 89.2934C316.856 89.2934 317.36 89.3734 317.824 89.5334C318.304 89.6934 318.688 89.8934 318.976 90.1334C319.28 90.3574 319.432 90.5894 319.432 90.8294C319.432 91.0214 319.408 91.1894 319.36 91.3334C319.312 91.4614 319.256 91.6134 319.192 91.7894C319.144 91.9494 319.088 92.1734 319.024 92.4614C318.976 92.7654 318.92 93.1814 318.856 93.7094C318.792 94.2374 318.744 94.8214 318.712 95.4614C318.68 96.1014 318.664 96.7494 318.664 97.4054C318.664 98.6214 318.704 99.7174 318.784 100.693C318.864 101.669 318.944 102.533 319.024 103.285C319.12 104.021 319.168 104.661 319.168 105.205C319.168 105.957 319 106.597 318.664 107.125C318.344 107.637 317.84 108.021 317.152 108.277C316.48 108.549 315.6 108.685 314.512 108.685C313.808 108.685 313.144 108.557 312.52 108.301C311.896 108.061 311.392 107.701 311.008 107.221C310.624 106.741 310.432 106.165 310.432 105.493C310.432 104.693 310.672 104.045 311.152 103.549C311.632 103.037 312.264 102.669 313.048 102.445C313.848 102.205 314.704 102.085 315.616 102.085C316.944 102.085 318.088 102.229 319.048 102.517C320.008 102.789 320.808 103.133 321.448 103.549C322.104 103.949 322.616 104.349 322.984 104.749C323.256 105.005 323.456 105.261 323.584 105.517C323.728 105.773 323.8 106.045 323.8 106.333C323.8 106.733 323.704 107.045 323.512 107.269C323.32 107.493 323.056 107.605 322.72 107.605C322.448 107.605 322.192 107.509 321.952 107.317C321.728 107.125 321.416 106.845 321.016 106.477C320.312 105.821 319.6 105.293 318.88 104.893C318.16 104.493 317.424 104.197 316.672 104.005C315.92 103.813 315.12 103.717 314.272 103.717C313.84 103.717 313.416 103.781 313 103.909C312.584 104.037 312.248 104.221 311.992 104.461C311.736 104.685 311.608 104.965 311.608 105.301C311.608 105.749 311.824 106.077 312.256 106.285C312.704 106.477 313.216 106.573 313.792 106.573C314.608 106.573 315.232 106.477 315.664 106.285C316.096 106.093 316.392 105.821 316.552 105.469C316.712 105.101 316.792 104.637 316.792 104.077C316.792 103.773 316.776 103.373 316.744 102.877C316.728 102.381 316.704 101.829 316.672 101.221C316.64 100.597 316.608 99.9574 316.576 99.3014C316.56 98.6294 316.544 97.9814 316.528 97.3574C316.528 96.7494 316.528 96.1094 316.528 95.4374C316.544 94.7494 316.552 94.1254 316.552 93.5654C316.552 92.9894 316.552 92.5574 316.552 92.2694C316.552 91.9174 316.528 91.6694 316.48 91.5254C316.432 91.3654 316.368 91.2534 316.288 91.1894C316.208 91.1254 316.096 91.0694 315.952 91.0214C315.696 90.9094 315.416 90.8294 315.112 90.7814C314.808 90.7174 314.512 90.6614 314.224 90.6134ZM303.616 89.5814L303.856 89.3174C304.256 89.4134 304.592 89.5174 304.864 89.6294C305.152 89.7414 305.448 89.9014 305.752 90.1094C305.992 90.2534 306.272 90.4934 306.592 90.8294C306.928 91.1654 307.216 91.5494 307.456 91.9814C307.696 92.3974 307.816 92.8214 307.816 93.2534C307.816 93.5894 307.728 93.9094 307.552 94.2134C307.376 94.5174 307.152 94.9494 306.88 95.5094C306.592 96.0374 306.304 96.6534 306.016 97.3574C305.728 98.0454 305.488 98.7814 305.296 99.5654C305.104 100.349 305.008 101.141 305.008 101.941C305.008 102.309 305.032 102.645 305.08 102.949C305.128 103.237 305.192 103.461 305.272 103.621C305.352 103.797 305.448 103.893 305.56 103.909C305.672 103.925 305.784 103.837 305.896 103.645C306.04 103.437 306.216 103.133 306.424 102.733C306.648 102.333 306.88 101.901 307.12 101.437C307.36 100.973 307.592 100.525 307.816 100.093C308.04 99.6454 308.232 99.2694 308.392 98.9654L308.92 99.1814C308.808 99.5174 308.672 99.8934 308.512 100.309C308.368 100.725 308.224 101.149 308.08 101.581C307.936 101.997 307.8 102.389 307.672 102.757C307.56 103.109 307.472 103.397 307.408 103.621C307.312 104.101 307.24 104.485 307.192 104.773C307.144 105.045 307.12 105.269 307.12 105.445C307.12 105.877 307.192 106.293 307.336 106.693C307.496 107.093 307.576 107.485 307.576 107.869C307.576 108.765 307.168 109.213 306.352 109.213C306.064 109.213 305.784 109.109 305.512 108.901C305.24 108.709 304.984 108.453 304.744 108.133C304.44 107.733 304.176 107.245 303.952 106.669C303.728 106.077 303.552 105.405 303.424 104.653C303.312 103.901 303.256 103.069 303.256 102.157C303.256 101.405 303.312 100.621 303.424 99.8054C303.552 98.9894 303.696 98.2134 303.856 97.4774C304.032 96.7414 304.184 96.1334 304.312 95.6534C304.472 95.0614 304.6 94.5174 304.696 94.0214C304.808 93.5094 304.864 92.9814 304.864 92.4374C304.864 91.8934 304.728 91.3734 304.456 90.8774C304.2 90.3814 303.92 89.9494 303.616 89.5814ZM330.592 90.8534C330.912 91.7014 331.336 92.3254 331.864 92.7254C332.408 93.1254 333.04 93.3974 333.76 93.5414C334.48 93.6694 335.248 93.7494 336.064 93.7814C336.336 93.7974 336.376 93.8854 336.184 94.0454C335.832 94.3334 335.384 94.6934 334.84 95.1254C334.296 95.5574 333.792 95.9494 333.328 96.3014L333.544 96.6614C334.264 96.3414 334.968 96.0454 335.656 95.7734C336.344 95.4854 337 95.2374 337.624 95.0294C338.248 94.8054 338.792 94.6374 339.256 94.5254C339.704 94.3974 340.144 94.2934 340.576 94.2134C341.024 94.1334 341.44 94.0614 341.824 93.9974C342.656 93.8374 343.072 93.4374 343.072 92.7974C343.072 92.5734 342.968 92.3574 342.76 92.1494C342.568 91.9414 342.312 91.7654 341.992 91.6214C341.688 91.4614 341.36 91.3414 341.008 91.2614C340.672 91.1814 340.36 91.1414 340.072 91.1414C339.784 91.1414 339.512 91.1734 339.256 91.2374C339 91.2854 338.704 91.3574 338.368 91.4534C338.032 91.5334 337.608 91.6054 337.096 91.6694C336.584 91.7334 335.928 91.7654 335.128 91.7654C334.488 91.7654 333.936 91.7334 333.472 91.6694C333.008 91.6054 332.568 91.4934 332.152 91.3334C331.752 91.1574 331.32 90.9174 330.856 90.6134L330.592 90.8534ZM330.472 100.429C330.536 101.277 330.656 102.029 330.832 102.685C331.024 103.341 331.336 103.901 331.768 104.365C332.2 104.813 332.792 105.157 333.544 105.397C334.296 105.621 335.264 105.733 336.448 105.733C337.68 105.733 338.712 105.645 339.544 105.469C340.392 105.277 341.072 105.093 341.584 104.917C342.096 104.741 342.464 104.653 342.688 104.653C342.992 104.653 343.32 104.717 343.672 104.845C344.04 104.957 344.36 105.125 344.632 105.349C344.904 105.573 345.04 105.853 345.04 106.189C345.04 106.573 344.944 106.869 344.752 107.077C344.576 107.269 344.232 107.461 343.72 107.653C343.064 107.877 342.16 108.061 341.008 108.205C339.872 108.349 338.608 108.421 337.216 108.421C335.472 108.421 334.048 108.229 332.944 107.845C331.84 107.445 331.016 106.885 330.472 106.165C329.928 105.445 329.624 104.605 329.56 103.645C329.512 102.669 329.656 101.605 329.992 100.453L330.472 100.429ZM351.448 92.2214C351.848 92.5894 352.24 92.8934 352.624 93.1334C353.024 93.3574 353.44 93.5254 353.872 93.6374C354.304 93.7334 354.776 93.7814 355.288 93.7814C356.136 93.7814 357 93.7014 357.88 93.5414C358.776 93.3814 359.616 93.1814 360.4 92.9414C361.184 92.6854 361.832 92.4214 362.344 92.1494C362.808 91.8934 363.152 91.7094 363.376 91.5974C363.616 91.4694 363.792 91.4054 363.904 91.4054C364.08 91.4054 364.28 91.4214 364.504 91.4534C364.744 91.4854 364.976 91.5414 365.2 91.6214C365.44 91.6854 365.64 91.7974 365.8 91.9574C365.96 92.1014 366.04 92.3014 366.04 92.5574C366.04 92.8614 365.912 93.1334 365.656 93.3734C365.416 93.6134 365.024 93.8374 364.48 94.0454C364.096 94.2054 363.576 94.3814 362.92 94.5734C362.28 94.7654 361.536 94.9574 360.688 95.1494C359.856 95.3414 358.968 95.5014 358.024 95.6294C357.08 95.7414 356.12 95.7974 355.144 95.7974C354.616 95.7974 354.152 95.7574 353.752 95.6774C353.368 95.5814 353.016 95.4134 352.696 95.1734C352.392 94.9334 352.112 94.5974 351.856 94.1654C351.6 93.7334 351.352 93.1574 351.112 92.4374L351.448 92.2214ZM355.384 89.6054V89.2454C355.704 89.1014 356 88.9894 356.272 88.9094C356.56 88.8294 356.848 88.7894 357.136 88.7894C357.68 88.7894 358.192 88.8614 358.672 89.0054C359.168 89.1494 359.568 89.3334 359.872 89.5574C360.192 89.7654 360.352 89.9814 360.352 90.2054C360.352 90.4134 360.296 90.5974 360.184 90.7574C360.088 90.9014 359.976 91.0694 359.848 91.2614C359.72 91.4534 359.608 91.7174 359.512 92.0534C359.4 92.4054 359.28 92.8214 359.152 93.3014C359.04 93.7654 358.912 94.2934 358.768 94.8854C358.64 95.3654 358.504 95.8854 358.36 96.4454C358.216 97.0054 358.064 97.5654 357.904 98.1254C357.76 98.6694 357.624 99.1574 357.496 99.5894C357.384 100.021 357.296 100.365 357.232 100.621C357.184 100.765 357.176 100.861 357.208 100.909C357.24 100.941 357.328 100.901 357.472 100.789C358.688 100.037 359.816 99.4454 360.856 99.0134C361.896 98.5654 363.008 98.3414 364.192 98.3414C365.472 98.3414 366.52 98.5734 367.336 99.0374C368.168 99.4854 368.784 100.085 369.184 100.837C369.584 101.573 369.784 102.373 369.784 103.237C369.784 104.181 369.552 105.013 369.088 105.733C368.624 106.437 367.976 107.029 367.144 107.509C366.328 107.989 365.392 108.365 364.336 108.637C363.28 108.909 362.152 109.077 360.952 109.141C359.752 109.221 358.544 109.205 357.328 109.093L357.28 108.589C358.176 108.509 359.064 108.373 359.944 108.181C360.824 107.989 361.68 107.733 362.512 107.413C363.68 106.981 364.592 106.493 365.248 105.949C365.92 105.405 366.384 104.829 366.64 104.221C366.912 103.613 367.048 103.013 367.048 102.421C367.048 101.877 366.928 101.373 366.688 100.909C366.464 100.445 366.12 100.069 365.656 99.7814C365.192 99.4934 364.624 99.3494 363.952 99.3494C363.312 99.3494 362.664 99.5014 362.008 99.8054C361.352 100.093 360.72 100.469 360.112 100.933C359.504 101.397 358.944 101.893 358.432 102.421C357.92 102.949 357.472 103.445 357.088 103.909C356.928 104.101 356.784 104.317 356.656 104.557C356.528 104.797 356.384 105.005 356.224 105.181C356.064 105.341 355.864 105.421 355.624 105.421C355.368 105.421 355.12 105.293 354.88 105.037C354.656 104.765 354.464 104.445 354.304 104.077C354.144 103.709 354.064 103.357 354.064 103.021C354.064 102.829 354.112 102.677 354.208 102.565C354.304 102.437 354.44 102.205 354.616 101.869C354.776 101.581 354.944 101.149 355.12 100.573C355.312 99.9974 355.496 99.3574 355.672 98.6534C355.848 97.9494 356.016 97.2614 356.176 96.5894C356.352 95.9174 356.488 95.3414 356.584 94.8614C356.696 94.3654 356.792 93.8854 356.872 93.4214C356.968 92.9414 357.048 92.5094 357.112 92.1254C357.176 91.7254 357.216 91.3974 357.232 91.1414C357.264 90.8534 357.248 90.6534 357.184 90.5414C357.12 90.4134 356.992 90.2934 356.8 90.1814C356.608 90.0694 356.4 89.9734 356.176 89.8934C355.968 89.7974 355.704 89.7014 355.384 89.6054ZM380.44 89.5094L380.536 89.1494C381.736 89.0694 382.72 89.1094 383.488 89.2694C384.272 89.4294 384.904 89.6534 385.384 89.9414C386.072 90.3254 386.6 90.7814 386.968 91.3094C387.336 91.8374 387.52 92.4534 387.52 93.1574C387.52 93.4934 387.432 93.7574 387.256 93.9494C387.08 94.1414 386.792 94.2374 386.392 94.2374C386.12 94.2374 385.864 94.2134 385.624 94.1654C385.4 94.1174 385.152 94.0694 384.88 94.0214C384.624 93.9574 384.312 93.9094 383.944 93.8774C383.576 93.8614 383.168 93.8614 382.72 93.8774C382.288 93.8934 381.88 93.9254 381.496 93.9734C381.128 94.0054 380.84 94.0454 380.632 94.0934C380.424 94.1094 380.28 94.1654 380.2 94.2614C380.136 94.3574 380.104 94.4454 380.104 94.5254C380.104 94.7174 380.168 94.9574 380.296 95.2454C380.424 95.5334 380.504 95.8454 380.536 96.1814C380.552 96.5174 380.544 96.8374 380.512 97.1414C380.48 97.4294 380.432 97.7654 380.368 98.1494C380.32 98.6294 380.24 99.1014 380.128 99.5654C380.032 100.029 379.992 100.437 380.008 100.789C380.024 101.045 380.128 101.109 380.32 100.981C380.752 100.709 381.248 100.397 381.808 100.045C382.384 99.6934 383.016 99.3574 383.704 99.0374C384.392 98.7014 385.12 98.4294 385.888 98.2214C386.672 98.0134 387.464 97.9094 388.264 97.9094C389.56 97.9094 390.632 98.1654 391.48 98.6774C392.328 99.1894 392.968 99.8454 393.4 100.645C393.832 101.429 394.048 102.253 394.048 103.117C394.048 104.061 393.792 104.885 393.28 105.589C392.768 106.293 392.08 106.901 391.216 107.413C390.352 107.909 389.36 108.301 388.24 108.589C387.12 108.893 385.952 109.085 384.736 109.165C383.52 109.261 382.304 109.253 381.088 109.141L381.04 108.661C381.984 108.533 382.888 108.365 383.752 108.157C384.632 107.965 385.344 107.765 385.888 107.557C387.264 107.061 388.336 106.525 389.104 105.949C389.872 105.357 390.408 104.749 390.712 104.125C391.032 103.485 391.192 102.837 391.192 102.181C391.192 101.605 391.064 101.069 390.808 100.573C390.568 100.077 390.208 99.6774 389.728 99.3734C389.264 99.0694 388.688 98.9174 388 98.9174C387.328 98.9174 386.656 99.0774 385.984 99.3974C385.312 99.7174 384.664 100.125 384.04 100.621C383.432 101.101 382.872 101.605 382.36 102.133C381.848 102.661 381.416 103.141 381.064 103.573C380.872 103.845 380.696 104.125 380.536 104.413C380.376 104.685 380.208 104.917 380.032 105.109C379.856 105.285 379.632 105.373 379.36 105.373C378.896 105.373 378.44 105.109 377.992 104.581C377.784 104.357 377.624 104.117 377.512 103.861C377.416 103.605 377.368 103.341 377.368 103.069C377.368 102.845 377.4 102.589 377.464 102.301C377.528 101.997 377.6 101.613 377.68 101.149C377.744 100.765 377.816 100.285 377.896 99.7094C377.992 99.1334 378.08 98.5574 378.16 97.9814C378.256 97.3894 378.32 96.9014 378.352 96.5174C378.384 96.1654 378.4 95.8694 378.4 95.6294C378.4 95.3894 378.4 95.1174 378.4 94.8134C378.4 94.4934 378.48 94.1814 378.64 93.8774C378.8 93.5574 379.088 93.3574 379.504 93.2774C379.856 93.2134 380.296 93.1174 380.824 92.9894C381.368 92.8614 381.896 92.7174 382.408 92.5574C382.936 92.3974 383.336 92.2454 383.608 92.1014C383.88 91.9574 383.912 91.7414 383.704 91.4534C383.4 90.9574 382.968 90.5734 382.408 90.3014C381.848 90.0134 381.192 89.7494 380.44 89.5094Z" fill="#4D3A3F"/>
<path d="M117 103.066C117 102.457 117.469 101.941 118.125 101.941H120.375C120.984 101.941 121.5 102.457 121.5 103.066V105.316C121.5 105.973 120.984 106.441 120.375 106.441H118.125C117.469 106.441 117 105.973 117 105.316V103.066ZM120 104.941V103.441H118.5V104.941H120ZM117 91.0664C117 90.457 117.469 89.9414 118.125 89.9414H120.375C120.984 89.9414 121.5 90.457 121.5 91.0664V93.3164C121.5 93.9727 120.984 94.4414 120.375 94.4414H118.125C117.469 94.4414 117 93.9727 117 93.3164V91.0664ZM118.5 91.4414V92.9414H120V91.4414H118.5ZM118.125 100.441C117.469 100.441 117 99.9727 117 99.3164V97.0664C117 96.457 117.469 95.9414 118.125 95.9414H120.375C120.984 95.9414 121.5 96.457 121.5 97.0664V99.3164C121.5 99.9727 120.984 100.441 120.375 100.441H118.125ZM118.5 97.4414V98.9414H120V97.4414H118.5ZM123 86.9414C124.641 86.9414 126 88.3008 126 89.9414V107.941C126 109.629 124.641 110.941 123 110.941H115.5C113.812 110.941 112.5 109.629 112.5 107.941V89.9414C112.5 88.3008 113.812 86.9414 115.5 86.9414H123ZM123 88.4414H115.5C114.656 88.4414 114 89.1445 114 89.9414V107.941C114 108.785 114.656 109.441 115.5 109.441H123C123.797 109.441 124.5 108.785 124.5 107.941V89.9414C124.5 89.1445 123.797 88.4414 123 88.4414ZM110.25 94.4414H105C104.156 94.4414 103.5 95.1445 103.5 95.9414V107.941C103.5 108.785 104.156 109.441 105 109.441H111C111.375 109.441 111.75 109.816 111.75 110.191C111.75 110.613 111.375 110.941 111 110.941H105C103.312 110.941 102 109.629 102 107.941V95.9414C102 94.3008 103.312 92.9414 105 92.9414H110.25C110.625 92.9414 111 93.3164 111 93.6914C111 94.1133 110.625 94.4414 110.25 94.4414ZM108.375 101.941C108.984 101.941 109.5 102.457 109.5 103.066V105.316C109.5 105.973 108.984 106.441 108.375 106.441H106.125C105.469 106.441 105 105.973 105 105.316V103.066C105 102.457 105.469 101.941 106.125 101.941H108.375ZM108 104.941V103.441H106.5V104.941H108ZM108.375 95.9414C108.984 95.9414 109.5 96.457 109.5 97.0664V99.3164C109.5 99.9727 108.984 100.441 108.375 100.441H106.125C105.469 100.441 105 99.9727 105 99.3164V97.0664C105 96.457 105.469 95.9414 106.125 95.9414H108.375ZM108 98.9414V97.4414H106.5V98.9414H108Z" fill="#4D3A3F"/>
<path d="M471.375 92.2695L479.625 100.145C479.859 100.379 480 100.66 480 100.988C480 101.27 479.859 101.551 479.625 101.785L471.375 109.66C470.953 110.082 470.203 110.082 469.781 109.613C469.359 109.191 469.359 108.441 469.828 108.02L476.062 102.113H460.125C459.469 102.113 459 101.598 459 100.988C459 100.332 459.469 99.8633 460.125 99.8633H476.062L469.828 93.9102C469.359 93.4883 469.359 92.7383 469.781 92.3164C470.203 91.8477 470.906 91.8477 471.375 92.2695Z" fill="#4D3A3F"/>
</svg>
