<svg width="514" height="211" viewBox="0 0 514 211" fill="none" xmlns="http://www.w3.org/2000/svg">
<rect x="14.0008" y="10.0752" width="499.999" height="200" fill="#CFAE7F" fill-opacity="0.6"/>
<g filter="url(#filter0_d_239_810)">
<rect x="5.00079" y="1.0752" width="497.999" height="198" stroke="#4D3A3F" stroke-width="2" shape-rendering="crispEdges"/>
</g>
<path d="M139.501 100.075C136.173 100.075 133.501 97.4033 133.501 94.0752C133.501 90.7939 136.173 88.0752 139.501 88.0752C142.782 88.0752 145.501 90.7939 145.501 94.0752C145.501 97.4033 142.782 100.075 139.501 100.075ZM139.501 89.5752C137.016 89.5752 135.001 91.6377 135.001 94.0752C135.001 96.5596 137.016 98.5752 139.501 98.5752C141.938 98.5752 144.001 96.5596 144.001 94.0752C144.001 91.6377 141.938 89.5752 139.501 89.5752ZM141.845 102.325C146.345 102.325 150.001 105.981 150.001 110.481C150.001 111.372 149.251 112.075 148.36 112.075H130.595C129.704 112.075 129.001 111.372 129.001 110.481C129.001 105.981 132.61 102.325 137.11 102.325H141.845ZM148.36 110.575C148.407 110.575 148.501 110.528 148.501 110.481C148.501 106.825 145.501 103.825 141.845 103.825H137.11C133.454 103.825 130.501 106.825 130.501 110.481C130.501 110.528 130.548 110.575 130.595 110.575H148.36Z" fill="#4D3A3F"/>
<path d="M170.849 90.0112L171.017 89.8192C179.417 90.2992 177.761 96.3472 174.665 94.7392C173.993 93.0112 172.289 91.1152 170.849 90.0112ZM181.433 110.387L183.137 108.203C183.137 108.203 185.057 109.667 186.257 110.675C186.185 110.939 185.921 111.059 185.561 111.059H163.961L163.769 110.387H173.393V103.139H166.577L166.385 102.443H173.393V96.2992H165.569L165.377 95.6272H180.545L182.225 93.5152C182.225 93.5152 184.097 94.9312 185.249 95.9152C185.177 96.1792 184.913 96.2992 184.553 96.2992H176.489V102.443H179.753L181.385 100.403C181.385 100.403 183.209 101.771 184.313 102.755C184.265 103.019 183.977 103.139 183.665 103.139H176.489V110.387H181.433ZM198.737 107.123V110.027H201.617V107.123H198.737ZM201.617 100.043H198.737V102.899H201.617V100.043ZM201.617 106.451V103.571H198.737V106.451H201.617ZM206.465 110.027L207.977 108.107C207.977 108.107 209.633 109.427 210.641 110.339C210.593 110.603 210.329 110.723 209.993 110.723H198.737V111.323C198.737 111.491 197.921 112.115 196.505 112.115H196.025V101.771C195.137 102.611 194.201 103.355 193.241 103.931L193.001 103.715C194.537 101.987 196.097 98.9872 196.961 96.4672C196.697 96.5152 196.409 96.5392 196.145 96.5392H195.713V91.1392C195.545 91.2832 195.305 91.3552 194.969 91.3552C194.273 93.1792 193.481 94.8592 192.593 96.3952L193.745 96.8272C193.673 97.0432 193.457 97.2112 193.001 97.2832V111.395C192.953 111.611 191.825 112.211 190.769 112.211H190.241V99.8512C189.449 100.835 188.609 101.723 187.721 102.491L187.409 102.299C189.185 99.2032 191.033 94.3072 191.969 89.6752L195.713 90.8032V90.7312L199.337 91.0192C199.289 91.3792 199.097 91.5952 198.449 91.6912V94.6432H200.969V89.9152L204.497 90.2272C204.449 90.5152 204.305 90.7312 203.705 90.8272V94.6432H206.273V90.7312L209.897 91.0192C209.849 91.3792 209.657 91.5952 209.009 91.6912V95.6512C209.009 95.8432 207.833 96.2032 206.753 96.2032H206.273V95.3152H198.449V95.9632C198.449 95.9872 198.425 96.0352 198.353 96.0832L200.897 96.6832C200.801 96.9472 200.609 97.0432 199.961 97.0192C199.529 97.7152 199.025 98.4112 198.449 99.1312L199.073 99.3712H201.665C201.881 98.4352 202.193 97.0192 202.361 96.0112L206.009 96.7312C205.913 97.1152 205.601 97.2832 205.049 97.3072C204.401 97.9072 203.393 98.7472 202.649 99.3712H206.177L207.593 97.5232C207.593 97.5232 209.177 98.7712 210.161 99.6592C210.089 99.9232 209.849 100.043 209.513 100.043H204.329V102.899H206.009L207.353 101.099C207.353 101.099 208.841 102.347 209.753 103.187C209.681 103.451 209.441 103.571 209.105 103.571H204.329V106.451H205.985L207.329 104.675C207.329 104.675 208.841 105.899 209.753 106.763C209.681 107.027 209.441 107.123 209.105 107.123H204.329V110.027H206.465ZM222.785 94.2112V97.9552H223.025C224.465 96.7312 225.785 95.4592 226.961 94.2112H222.785ZM227.513 102.227H220.001V105.491H227.513V102.227ZM220.001 109.667H227.513V106.187H220.001V109.667ZM229.913 97.9552L231.425 96.0112C231.425 96.0112 233.129 97.3312 234.161 98.2432C234.089 98.5072 233.849 98.6272 233.489 98.6272H225.665C224.273 99.6352 222.785 100.619 221.177 101.531H227.273L228.593 100.115L231.329 102.179C231.161 102.371 230.849 102.587 230.345 102.683V111.371C230.321 111.539 228.929 112.091 227.969 112.091H227.513V110.363H220.001V111.299C220.001 111.587 218.825 112.211 217.649 112.211H217.217V103.523C215.465 104.315 213.617 105.011 211.673 105.563L211.505 105.227C213.473 104.363 215.393 103.331 217.217 102.203V100.379L218.969 101.075C220.097 100.283 221.201 99.4672 222.233 98.6272H212.153L211.961 97.9552H219.977V94.2112H214.313L214.121 93.5392H219.977V89.6512L223.577 89.9632C223.529 90.2752 223.361 90.4912 222.785 90.5872V93.5392H224.033L225.497 91.6432C225.497 91.6432 226.697 92.5792 227.681 93.3952C228.617 92.3392 229.433 91.2832 230.105 90.2752L233.177 92.5072C232.985 92.7232 232.697 92.8192 232.121 92.6512C230.657 94.4032 228.785 96.2272 226.553 97.9552H229.913ZM246.113 96.2272C246.113 95.4352 245.777 94.7152 245.369 94.1632C243.809 94.5952 242.297 95.4832 241.145 96.7072C239.753 98.2432 238.985 99.8752 238.985 101.843C238.985 103.739 239.801 105.515 240.809 105.515C242.153 105.515 244.265 102.203 245.033 100.547C245.657 99.1552 246.113 97.4992 246.113 96.2272ZM245.873 110.507L245.777 110.051C251.849 108.611 254.129 105.275 254.129 101.123C254.129 96.7072 251.297 93.8752 247.409 93.8752C247.097 93.8752 246.761 93.8992 246.449 93.9472C247.169 94.6912 248.033 95.8672 248.033 96.9952C248.033 98.2192 247.793 99.8032 247.241 101.267C246.161 104.315 243.473 108.683 240.545 108.683C238.625 108.683 236.849 105.731 236.849 102.611C236.849 100.379 237.953 97.5232 240.377 95.4832C242.321 93.8032 244.745 92.9152 247.673 92.9152C253.193 92.9152 257.105 96.7552 257.105 101.747C257.105 106.283 253.937 110.171 245.873 110.507ZM277.601 94.4752L279.233 92.3632C279.233 92.3632 281.081 93.7792 282.209 94.7632C282.137 95.0272 281.873 95.1232 281.537 95.1232H270.401C270.305 96.5872 270.161 98.0032 269.921 99.3712H275.393L276.905 97.8832L279.497 100.091C279.305 100.307 278.993 100.451 278.465 100.547C278.105 106.403 277.409 109.979 275.993 111.131C275.129 111.827 274.097 112.163 272.489 112.139C272.489 111.323 272.369 110.627 271.913 110.219C271.433 109.763 270.329 109.379 269.081 109.139V108.827C270.401 108.923 272.441 109.067 273.065 109.067C273.521 109.067 273.737 109.019 274.001 108.803C274.769 108.155 275.321 104.771 275.609 100.043H269.801C268.769 105.347 266.273 109.667 260.057 112.211L259.889 111.971C265.721 107.771 267.065 101.819 267.233 95.1232H259.961L259.769 94.4752H269.465V89.6272L273.233 89.9152C273.185 90.2512 272.993 90.4912 272.345 90.5872V94.4752H277.601ZM290.393 101.099L290.921 101.315C290.465 102.635 289.673 104.891 289.409 105.755C289.217 106.715 289.121 107.219 289.121 107.579C289.121 108.443 289.577 109.259 289.577 110.003C289.577 110.867 289.145 111.347 288.353 111.347C287.777 111.347 287.201 110.915 286.745 110.267C285.857 109.067 285.257 107.027 285.257 104.291C285.257 102.083 285.929 99.2272 286.313 97.7872C286.625 96.6112 286.865 95.6512 286.865 94.5712C286.865 93.4672 286.241 92.4592 285.617 91.7152L285.857 91.4512C286.649 91.6432 287.153 91.8352 287.753 92.2432C288.473 92.6992 289.817 94.0912 289.817 95.3872C289.817 96.0592 289.433 96.5392 288.881 97.6432C287.993 99.2512 287.009 101.675 287.009 104.075C287.009 104.819 287.105 105.419 287.273 105.755C287.417 106.115 287.681 106.139 287.897 105.779C288.473 104.915 289.745 102.299 290.393 101.099ZM298.793 106.211V106.163C298.001 105.947 297.161 105.851 296.273 105.851C294.929 105.851 293.609 106.427 293.609 107.435C293.609 108.323 294.665 108.707 295.793 108.707C298.217 108.707 298.793 107.867 298.793 106.211ZM296.225 92.7472L296.153 92.3872C296.777 91.9552 297.665 91.4272 298.313 91.4272C299.921 91.4272 301.433 92.2672 301.433 92.9632C301.433 93.5392 301.193 93.7312 301.025 94.5952C300.953 94.9792 300.881 95.5312 300.809 96.2032C302.465 95.6512 303.089 95.2672 303.233 95.2672C304.097 95.2672 305.081 95.6752 305.081 96.4192C305.081 97.2112 304.673 97.3792 303.569 97.8352C303.041 98.0272 301.961 98.3392 300.689 98.5792C300.665 98.8912 300.665 99.2272 300.665 99.5392C300.665 101.579 300.833 103.259 300.953 104.627C302.945 105.155 304.193 106.091 304.985 106.883C305.513 107.387 305.801 107.915 305.801 108.467C305.801 109.259 305.369 109.739 304.721 109.739C304.169 109.739 303.809 109.355 303.017 108.611C302.393 108.035 301.793 107.579 301.169 107.195V107.339C301.169 109.619 299.729 110.819 296.513 110.819C294.353 110.819 292.433 109.691 292.433 107.627C292.433 105.251 294.857 104.219 297.617 104.219C298.001 104.219 298.361 104.243 298.721 104.267C298.649 102.851 298.553 101.075 298.529 99.4912V98.9152C297.761 99.0112 296.993 99.0592 296.273 99.0592C294.713 99.0592 293.489 98.8672 292.313 96.2032L292.601 95.9392C293.777 96.7312 294.857 97.0432 295.841 97.0432C296.849 97.0432 297.737 96.9472 298.529 96.8032L298.553 94.4032C298.553 93.3712 298.361 93.2992 297.953 93.1552C297.425 92.9392 296.801 92.8432 296.225 92.7472ZM311.993 102.587L312.473 102.563C312.713 105.947 313.697 107.867 318.449 107.867C322.121 107.867 324.017 106.787 324.689 106.787C325.577 106.787 327.041 107.315 327.041 108.323C327.041 109.091 326.753 109.403 325.721 109.787C324.401 110.243 322.001 110.555 319.217 110.555C312.209 110.555 310.673 107.219 311.993 102.587ZM315.545 98.7952L315.329 98.4352C316.265 97.7392 317.489 96.7552 318.185 96.1792C318.377 96.0112 318.353 95.9392 318.065 95.9152C315.593 95.8192 313.529 95.5072 312.593 92.9872L312.857 92.7472C314.249 93.6832 315.209 93.8992 317.129 93.8992C320.297 93.8992 320.921 93.2752 322.073 93.2752C323.225 93.2752 325.073 94.0192 325.073 94.9312C325.073 95.6032 324.689 95.9632 323.825 96.1312C323.057 96.2752 322.145 96.4192 321.257 96.6592C319.817 97.0192 317.681 97.8592 315.545 98.7952ZM337.385 91.7392V91.3792C338.033 91.0912 338.561 90.9232 339.137 90.9232C340.769 90.9232 342.353 91.6912 342.353 92.3392C342.353 92.9872 341.801 93.1792 341.513 94.1872C341.417 94.5472 341.297 94.9552 341.177 95.4112C342.425 95.0992 343.553 94.6912 344.345 94.2832C345.281 93.7792 345.665 93.5392 345.905 93.5392C346.553 93.5392 348.041 93.6832 348.041 94.6912C348.041 95.3152 347.561 95.7712 346.481 96.1792C345.449 96.5872 343.193 97.2832 340.601 97.6672C340.121 99.5392 339.473 101.867 339.233 102.755C339.137 103.067 339.185 103.139 339.473 102.923C341.897 101.435 343.817 100.475 346.193 100.475C350.009 100.475 351.785 102.803 351.785 105.371C351.785 110.099 345.425 111.803 339.329 111.227L339.281 110.723C341.081 110.579 342.857 110.195 344.513 109.547C348.041 108.275 349.049 106.355 349.049 104.555C349.049 102.947 347.969 101.483 345.953 101.483C343.385 101.483 340.625 104.195 339.089 106.043C338.609 106.619 338.369 107.555 337.625 107.555C336.857 107.555 336.065 106.163 336.065 105.155C336.065 104.795 336.257 104.699 336.617 104.003C337.145 103.019 337.913 99.9472 338.393 97.8832C337.985 97.9072 337.553 97.9312 337.145 97.9312C335.057 97.9312 334.097 97.3792 333.113 94.5712L333.449 94.3552C334.625 95.4592 335.777 95.9152 337.289 95.9152C337.793 95.9152 338.321 95.8912 338.825 95.8192C339.041 94.7872 339.185 93.8512 339.233 93.2752C339.305 92.6752 339.185 92.5552 338.801 92.3152C338.417 92.0992 338.009 91.9312 337.385 91.7392ZM365.705 93.5872C365.081 92.6032 363.929 92.1472 362.441 91.6432L362.537 91.2832C364.913 91.1152 366.401 91.4992 367.385 92.0752C368.753 92.8672 369.521 93.8992 369.521 95.2912C369.521 95.9632 369.185 96.3712 368.393 96.3712C367.601 96.3712 367.025 96.1072 365.945 96.0112C364.817 95.9392 363.233 96.1312 362.633 96.2272C362.201 96.2752 362.105 96.4672 362.105 96.6592C362.105 97.0432 362.465 97.6432 362.537 98.3152C362.585 99.0112 362.465 99.5152 362.369 100.283C362.249 101.219 361.985 102.203 362.009 102.923C362.033 103.187 362.129 103.235 362.321 103.115C364.025 102.011 367.001 100.043 370.265 100.043C374.129 100.043 376.049 102.683 376.049 105.251C376.049 109.931 369.113 111.827 363.089 111.275L363.041 110.795C364.913 110.555 366.785 110.099 367.889 109.691C372.017 108.203 373.193 106.283 373.193 104.315C373.193 102.635 372.065 101.051 370.001 101.051C367.313 101.051 364.433 103.979 363.065 105.707C362.465 106.547 362.153 107.507 361.361 107.507C360.905 107.507 360.449 107.243 359.993 106.715C359.561 106.259 359.369 105.755 359.369 105.203C359.369 104.747 359.537 104.219 359.681 103.283C359.849 102.155 360.233 99.7792 360.353 98.6512C360.425 97.9552 360.401 97.5472 360.401 96.9472C360.401 96.2992 360.665 95.5552 361.505 95.4112C362.561 95.2432 364.817 94.6672 365.609 94.2352C365.897 94.0912 365.921 93.8752 365.705 93.5872Z" fill="#4D3A3F"/>
<path d="M474.376 91.4033L482.626 99.2783C482.86 99.5127 483.001 99.7939 483.001 100.122C483.001 100.403 482.86 100.685 482.626 100.919L474.376 108.794C473.954 109.216 473.204 109.216 472.782 108.747C472.36 108.325 472.36 107.575 472.829 107.153L479.063 101.247H463.126C462.47 101.247 462.001 100.731 462.001 100.122C462.001 99.4658 462.47 98.9971 463.126 98.9971H479.063L472.829 93.0439C472.36 92.6221 472.36 91.8721 472.782 91.4502C473.204 90.9814 473.907 90.9814 474.376 91.4033Z" fill="#4D3A3F"/>
<defs>
<filter id="filter0_d_239_810" x="0.000793457" y="0.0751953" width="507.999" height="208" filterUnits="userSpaceOnUse" color-interpolation-filters="sRGB">
<feFlood flood-opacity="0" result="BackgroundImageFix"/>
<feColorMatrix in="SourceAlpha" type="matrix" values="0 0 0 0 0 0 0 0 0 0 0 0 0 0 0 0 0 0 127 0" result="hardAlpha"/>
<feOffset dy="4"/>
<feGaussianBlur stdDeviation="2"/>
<feComposite in2="hardAlpha" operator="out"/>
<feColorMatrix type="matrix" values="0 0 0 0 0 0 0 0 0 0 0 0 0 0 0 0 0 0 0.25 0"/>
<feBlend mode="normal" in2="BackgroundImageFix" result="effect1_dropShadow_239_810"/>
<feBlend mode="normal" in="SourceGraphic" in2="effect1_dropShadow_239_810" result="shape"/>
</filter>
</defs>
</svg>
