<svg width="205" height="253" viewBox="0 0 205 253" fill="none" xmlns="http://www.w3.org/2000/svg">
<line x1="96.0845" y1="83" x2="96.0845" y2="253" stroke="#4D3A3F"/>
<path d="M16.5778 60.312C14.7058 60.104 12.1752 60 8.98582 60C5.83116 60 3.17916 60.156 1.02982 60.468L0.873823 59.324C1.70582 58.9773 3.02316 58.596 4.82582 58.18C5.13782 56.0653 5.29382 52.512 5.29382 47.52C5.29382 42.528 5.15516 38.8533 4.87782 36.496C3.00582 35.9413 1.72316 35.456 1.02982 35.04L1.23782 33.896C3.56049 34.312 6.36849 34.52 9.66182 34.52C12.9898 34.52 15.3992 34.4333 16.8898 34.26L17.0458 35.456C15.7285 35.8027 14.6712 36.1667 13.8738 36.548C13.4578 39.772 13.2498 43.6373 13.2498 48.144C13.2498 52.616 13.4232 55.9267 13.7698 58.076C14.8792 58.4573 15.8672 58.856 16.7338 59.272L16.5778 60.312ZM32.6885 38.056C32.2031 37.5707 31.5271 37.328 30.6605 37.328C29.8285 37.328 29.1698 37.5533 28.6845 38.004C28.3031 39.2173 28.1125 40.5867 28.1125 42.112C28.1125 43.6027 28.1471 44.7293 28.2165 45.492C28.3205 46.22 28.5285 46.948 28.8405 47.676C29.3951 49.0973 30.6258 49.808 32.5325 49.808V50.276C31.0765 51.732 30.0018 53.292 29.3085 54.956C26.3618 54.956 24.0045 53.864 22.2365 51.68C20.4685 49.4613 19.5845 46.4453 19.5845 42.632C21.0405 40.6213 22.8605 38.8187 25.0445 37.224C27.2285 35.5947 29.4818 34.4333 31.8045 33.74C39.1538 33.74 42.8285 37.1547 42.8285 43.984C42.8285 49.0107 41.0258 53.5693 37.4205 57.66C33.8151 61.716 29.4991 64.4893 24.4725 65.98L23.7965 65.044C27.4365 62.756 30.0885 60.156 31.7525 57.244C33.4165 54.332 34.2485 50.692 34.2485 46.324C34.2485 41.9213 33.7285 39.1653 32.6885 38.056ZM66.1777 51.316C65.7617 52.668 65.5537 54.228 65.5537 55.996C65.5537 57.7293 65.727 59.2373 66.0737 60.52L65.4497 60.936C59.2097 59.6533 52.935 59.012 46.6257 59.012C46.0364 59.5667 45.4644 60.3293 44.9097 61.3L43.7137 60.78C44.2684 59.3587 45.2564 57.7467 46.6777 55.944C48.1337 54.1067 49.5377 52.4947 50.8897 51.108C52.2417 49.6867 53.4377 48.0747 54.4777 46.272C55.5524 44.4347 56.0897 42.8227 56.0897 41.436C56.0897 40.0147 55.8644 39.0267 55.4137 38.472C54.963 37.8827 54.2697 37.588 53.3337 37.588C52.4324 37.588 51.6177 37.7267 50.8897 38.004C50.6124 38.7667 50.4737 39.6333 50.4737 40.604C50.4737 41.54 50.6644 42.1813 51.0457 42.528L50.9937 42.892C49.1564 43.5507 47.631 44.4173 46.4177 45.492C45.5164 45.4227 45.0657 44.92 45.0657 43.984C45.0657 41.8 46.1404 39.6853 48.2897 37.64C50.4737 35.56 52.7444 34.26 55.1017 33.74C58.2564 33.74 60.7177 34.4507 62.4857 35.872C64.2537 37.2587 65.1377 39.408 65.1377 42.32C61.6017 46.1333 57.2337 49.808 52.0337 53.344V53.864C52.7617 53.4133 53.3337 53.136 53.7497 53.032C56.8004 53.032 60.1457 53.3267 63.7857 53.916C64.2364 53.0493 64.6524 52.0613 65.0337 50.952L66.1777 51.316ZM77.6205 48.82C77.6205 54.4013 78.7472 57.192 81.0005 57.192C81.9712 57.192 82.6992 56.9667 83.1845 56.516C83.5659 55.3027 83.7565 53.7427 83.7565 51.836C83.7565 49.8947 83.4792 48.404 82.9245 47.364C82.3699 46.2893 81.1739 45.752 79.3365 45.752V45.284C80.7925 43.828 81.8672 42.268 82.5605 40.604C85.5765 40.604 87.9512 41.5573 89.6845 43.464C91.4179 45.336 92.2845 48.144 92.2845 51.888C90.8285 53.8987 89.0085 55.7187 86.8245 57.348C84.6405 58.9427 82.3872 60.0867 80.0645 60.78C72.7152 60.78 69.0405 57.3653 69.0405 50.536C69.0405 45.7867 70.8432 41.488 74.4485 37.64C78.0539 33.792 82.3699 31.1053 87.3965 29.58L88.0725 30.516C84.4325 32.804 81.7805 35.3867 80.1165 38.264C78.4525 41.1067 77.6205 44.6253 77.6205 48.82ZM97.6938 44.504C101.438 44.504 104.766 44.3307 107.678 43.984L108.094 44.244L107.782 47.468L95.4578 48.248L94.9898 47.936L95.3018 44.504H97.6938ZM125.504 60.312C123.632 60.104 121.101 60 117.912 60C114.757 60 112.105 60.156 109.956 60.468L109.8 59.324C110.632 58.9773 111.949 58.596 113.752 58.18C114.064 56.0653 114.22 52.512 114.22 47.52C114.22 42.528 114.081 38.8533 113.804 36.496C111.932 35.9413 110.649 35.456 109.956 35.04L110.164 33.896C112.486 34.312 115.294 34.52 118.588 34.52C121.916 34.52 124.325 34.4333 125.816 34.26L125.972 35.456C124.654 35.8027 123.597 36.1667 122.8 36.548C122.384 39.772 122.176 43.6373 122.176 48.144C122.176 52.616 122.349 55.9267 122.696 58.076C123.805 58.4573 124.793 58.856 125.66 59.272L125.504 60.312ZM141.614 38.056C141.129 37.5707 140.453 37.328 139.586 37.328C138.754 37.328 138.096 37.5533 137.61 38.004C137.229 39.2173 137.038 40.5867 137.038 42.112C137.038 43.6027 137.073 44.7293 137.142 45.492C137.246 46.22 137.454 46.948 137.766 47.676C138.321 49.0973 139.552 49.808 141.458 49.808V50.276C140.002 51.732 138.928 53.292 138.234 54.956C135.288 54.956 132.93 53.864 131.162 51.68C129.394 49.4613 128.51 46.4453 128.51 42.632C129.966 40.6213 131.786 38.8187 133.97 37.224C136.154 35.5947 138.408 34.4333 140.73 33.74C148.08 33.74 151.754 37.1547 151.754 43.984C151.754 49.0107 149.952 53.5693 146.346 57.66C142.741 61.716 138.425 64.4893 133.398 65.98L132.722 65.044C136.362 62.756 139.014 60.156 140.678 57.244C142.342 54.332 143.174 50.692 143.174 46.324C143.174 41.9213 142.654 39.1653 141.614 38.056ZM165.691 60.78C162.641 60.78 160.023 60.156 157.839 58.908C155.655 57.6253 154.563 55.7533 154.563 53.292C154.563 50.8307 156.557 48.2133 160.543 45.44C157.389 43.2907 155.811 40.2747 155.811 36.392C156.817 34.9013 158.377 33.4973 160.491 32.18C162.641 30.8627 164.651 29.996 166.523 29.58C168.95 29.58 170.874 30.0133 172.295 30.88C173.717 31.7467 174.427 33.0467 174.427 34.78C174.427 35.8547 173.959 37.016 173.023 38.264C172.122 39.4773 170.995 40.552 169.643 41.488C173.249 43.36 175.45 45.4227 176.247 47.676C176.629 48.7507 176.819 49.9813 176.819 51.368C175.71 53.5173 174.15 55.476 172.139 57.244C170.163 58.9773 168.014 60.156 165.691 60.78ZM168.499 57.088C168.811 55.84 168.967 54.8 168.967 53.968C168.967 53.136 168.933 52.564 168.863 52.252C168.829 51.9053 168.725 51.5933 168.551 51.316C168.378 51.004 168.222 50.744 168.083 50.536C167.945 50.2933 167.702 50.0333 167.355 49.756C167.043 49.4787 166.801 49.2707 166.627 49.132C166.489 48.9933 166.194 48.7853 165.743 48.508C165.293 48.2307 164.981 48.04 164.807 47.936C164.114 47.52 163.421 47.1387 162.727 46.792C161.687 48.5947 161.167 50.3453 161.167 52.044C161.167 53.708 161.67 55.0427 162.675 56.048C163.715 57.0533 164.859 57.556 166.107 57.556C167.39 57.556 168.187 57.4 168.499 57.088ZM163.663 33.22C163.455 33.74 163.351 34.4853 163.351 35.456C163.351 36.4267 163.681 37.2933 164.339 38.056C165.033 38.8187 166.021 39.564 167.303 40.292C168.17 38.94 168.603 37.3973 168.603 35.664C168.603 34.7627 168.309 34.0693 167.719 33.584C167.13 33.064 166.385 32.804 165.483 32.804C164.617 32.804 164.01 32.9427 163.663 33.22ZM187.917 48.82C187.917 54.4013 189.044 57.192 191.297 57.192C192.268 57.192 192.996 56.9667 193.481 56.516C193.863 55.3027 194.053 53.7427 194.053 51.836C194.053 49.8947 193.776 48.404 193.221 47.364C192.667 46.2893 191.471 45.752 189.633 45.752V45.284C191.089 43.828 192.164 42.268 192.857 40.604C195.873 40.604 198.248 41.5573 199.981 43.464C201.715 45.336 202.581 48.144 202.581 51.888C201.125 53.8987 199.305 55.7187 197.121 57.348C194.937 58.9427 192.684 60.0867 190.361 60.78C183.012 60.78 179.337 57.3653 179.337 50.536C179.337 45.7867 181.14 41.488 184.745 37.64C188.351 33.792 192.667 31.1053 197.693 29.58L198.369 30.516C194.729 32.804 192.077 35.3867 190.413 38.264C188.749 41.1067 187.917 44.6253 187.917 48.82Z" fill="#4D3A3F"/>
<ellipse cx="96.0796" cy="83.5" rx="4.45652" ry="4.5" fill="#4D3A3F"/>
</svg>
