<svg width="100" height="365" viewBox="0 0 100 365" fill="none" xmlns="http://www.w3.org/2000/svg">
<line x1="44.0845" y1="87" x2="44.0844" y2="365" stroke="#4D3A3F"/>
<path d="M20.5197 60.312C18.6477 60.104 16.117 60 12.9277 60C9.77299 60 7.12099 60.156 4.97166 60.468L4.81566 59.324C5.64766 58.9773 6.96499 58.596 8.76766 58.18C9.07966 56.0653 9.23566 52.512 9.23566 47.52C9.23566 42.528 9.09699 38.8533 8.81966 36.496C6.94766 35.9413 5.66499 35.456 4.97166 35.04L5.17966 33.896C7.50232 34.312 10.3103 34.52 13.6037 34.52C16.9317 34.52 19.341 34.4333 20.8317 34.26L20.9877 35.456C19.6703 35.8027 18.613 36.1667 17.8157 36.548C17.3997 39.772 17.1917 43.6373 17.1917 48.144C17.1917 52.616 17.365 55.9267 17.7117 58.076C18.821 58.4573 19.809 58.856 20.6757 59.272L20.5197 60.312ZM34.7583 60.78C31.7076 60.78 29.0903 60.156 26.9063 58.908C24.7223 57.6253 23.6303 55.7533 23.6303 53.292C23.6303 50.8307 25.6236 48.2133 29.6103 45.44C26.4556 43.2907 24.8783 40.2747 24.8783 36.392C25.8836 34.9013 27.4436 33.4973 29.5583 32.18C31.7076 30.8627 33.7183 29.996 35.5903 29.58C38.017 29.58 39.941 30.0133 41.3623 30.88C42.7836 31.7467 43.4943 33.0467 43.4943 34.78C43.4943 35.8547 43.0263 37.016 42.0903 38.264C41.189 39.4773 40.0623 40.552 38.7103 41.488C42.3156 43.36 44.517 45.4227 45.3143 47.676C45.6956 48.7507 45.8863 49.9813 45.8863 51.368C44.777 53.5173 43.217 55.476 41.2063 57.244C39.2303 58.9773 37.081 60.156 34.7583 60.78ZM37.5663 57.088C37.8783 55.84 38.0343 54.8 38.0343 53.968C38.0343 53.136 37.9996 52.564 37.9303 52.252C37.8956 51.9053 37.7916 51.5933 37.6183 51.316C37.445 51.004 37.289 50.744 37.1503 50.536C37.0116 50.2933 36.769 50.0333 36.4223 49.756C36.1103 49.4787 35.8676 49.2707 35.6943 49.132C35.5556 48.9933 35.261 48.7853 34.8103 48.508C34.3596 48.2307 34.0476 48.04 33.8743 47.936C33.181 47.52 32.4876 47.1387 31.7943 46.792C30.7543 48.5947 30.2343 50.3453 30.2343 52.044C30.2343 53.708 30.737 55.0427 31.7423 56.048C32.7823 57.0533 33.9263 57.556 35.1743 57.556C36.457 57.556 37.2543 57.4 37.5663 57.088ZM32.7303 33.22C32.5223 33.74 32.4183 34.4853 32.4183 35.456C32.4183 36.4267 32.7476 37.2933 33.4063 38.056C34.0996 38.8187 35.0876 39.564 36.3703 40.292C37.237 38.94 37.6703 37.3973 37.6703 35.664C37.6703 34.7627 37.3756 34.0693 36.7863 33.584C36.197 33.064 35.4516 32.804 34.5503 32.804C33.6836 32.804 33.077 32.9427 32.7303 33.22ZM60.0523 41.436C59.2896 41.4707 58.1976 41.488 56.7763 41.488C55.3896 41.488 53.5176 41.3667 51.1603 41.124C50.7443 42.1293 50.3976 43.2213 50.1203 44.4L48.8722 44.14C49.0803 42.892 49.1843 41.2453 49.1843 39.2C49.1843 37.1547 48.9589 35.456 48.5083 34.104L49.0803 33.636C53.5523 34.572 59.2029 35.04 66.0323 35.04C66.4136 34.6587 66.7603 34.208 67.0723 33.688L68.3203 34.312C61.9416 45.3707 58.7523 54.956 58.7523 63.068C60.4163 63.4147 61.8896 63.8653 63.1723 64.42L63.0163 65.564C61.0056 65.3213 58.5096 65.2 55.5283 65.2C52.5469 65.2 49.9643 65.4253 47.7803 65.876L47.5203 64.68C48.2136 64.5067 49.1496 64.0907 50.3283 63.432C50.6056 61.2133 51.2816 58.9773 52.3563 56.724C53.4309 54.436 55.4069 51.004 58.2843 46.428L61.6643 41.072L61.4563 40.864C60.9709 41.1067 60.5029 41.2973 60.0523 41.436ZM89.923 33.74C89.3683 36.86 89.091 40.292 89.091 44.036C89.091 47.7453 89.1257 50.848 89.195 53.344C90.5817 53.344 91.5523 53.2227 92.107 52.98C92.6617 52.7027 93.147 52.0267 93.563 50.952L94.551 51.16C94.1697 53.1013 93.979 55.4413 93.979 58.18L93.719 58.284C92.471 58.18 90.9803 58.128 89.247 58.128C89.247 60.0693 89.3857 61.82 89.663 63.38C90.3217 63.7267 91.2577 64.0733 92.471 64.42L92.211 65.668C90.131 65.356 87.6523 65.2 84.775 65.2C81.9323 65.2 79.1937 65.408 76.559 65.824L76.351 64.68C77.079 64.2987 78.535 63.8307 80.719 63.276C80.9617 61.716 81.083 60 81.083 58.128H67.927L67.511 56.88C72.1217 51.1947 76.3683 43.8627 80.251 34.884C81.603 34.8493 83.267 34.7107 85.243 34.468C87.219 34.1907 88.623 33.8787 89.455 33.532L89.923 33.74ZM80.875 39.252C79.107 44.4867 77.0443 48.9933 74.687 52.772C76.5937 52.98 78.7257 53.1187 81.083 53.188L81.239 39.252H80.875Z" fill="#4D3A3F"/>
<ellipse cx="44.0796" cy="87.5" rx="4.45652" ry="4.5" fill="#4D3A3F"/>
</svg>
