<svg width="101" height="233" viewBox="0 0 101 233" fill="none" xmlns="http://www.w3.org/2000/svg">
<line x1="43.2088" y1="83" x2="43.2088" y2="233" stroke="#4D3A3F"/>
<path d="M19.0407 60.312C17.1687 60.104 14.638 60 11.4487 60C8.29405 60 5.64205 60.156 3.49271 60.468L3.33671 59.324C4.16871 58.9773 5.48605 58.596 7.28871 58.18C7.60071 56.0653 7.75671 52.512 7.75671 47.52C7.75671 42.528 7.61805 38.8533 7.34071 36.496C5.46871 35.9413 4.18605 35.456 3.49271 35.04L3.70071 33.896C6.02338 34.312 8.83138 34.52 12.1247 34.52C15.4527 34.52 17.862 34.4333 19.3527 34.26L19.5087 35.456C18.1914 35.8027 17.134 36.1667 16.3367 36.548C15.9207 39.772 15.7127 43.6373 15.7127 48.144C15.7127 52.616 15.886 55.9267 16.2327 58.076C17.342 58.4573 18.33 58.856 19.1967 59.272L19.0407 60.312ZM33.2794 60.78C30.2287 60.78 27.6114 60.156 25.4274 58.908C23.2434 57.6253 22.1514 55.7533 22.1514 53.292C22.1514 50.8307 24.1447 48.2133 28.1314 45.44C24.9767 43.2907 23.3994 40.2747 23.3994 36.392C24.4047 34.9013 25.9647 33.4973 28.0794 32.18C30.2287 30.8627 32.2394 29.996 34.1114 29.58C36.538 29.58 38.462 30.0133 39.8834 30.88C41.3047 31.7467 42.0154 33.0467 42.0154 34.78C42.0154 35.8547 41.5474 37.016 40.6114 38.264C39.71 39.4773 38.5834 40.552 37.2314 41.488C40.8367 43.36 43.038 45.4227 43.8354 47.676C44.2167 48.7507 44.4074 49.9813 44.4074 51.368C43.298 53.5173 41.738 55.476 39.7274 57.244C37.7514 58.9773 35.602 60.156 33.2794 60.78ZM36.0874 57.088C36.3994 55.84 36.5554 54.8 36.5554 53.968C36.5554 53.136 36.5207 52.564 36.4514 52.252C36.4167 51.9053 36.3127 51.5933 36.1394 51.316C35.966 51.004 35.81 50.744 35.6714 50.536C35.5327 50.2933 35.29 50.0333 34.9434 49.756C34.6314 49.4787 34.3887 49.2707 34.2154 49.132C34.0767 48.9933 33.782 48.7853 33.3314 48.508C32.8807 48.2307 32.5687 48.04 32.3954 47.936C31.702 47.52 31.0087 47.1387 30.3154 46.792C29.2754 48.5947 28.7554 50.3453 28.7554 52.044C28.7554 53.708 29.258 55.0427 30.2634 56.048C31.3034 57.0533 32.4474 57.556 33.6954 57.556C34.978 57.556 35.7754 57.4 36.0874 57.088ZM31.2514 33.22C31.0434 33.74 30.9394 34.4853 30.9394 35.456C30.9394 36.4267 31.2687 37.2933 31.9274 38.056C32.6207 38.8187 33.6087 39.564 34.8914 40.292C35.758 38.94 36.1914 37.3973 36.1914 35.664C36.1914 34.7627 35.8967 34.0693 35.3074 33.584C34.718 33.064 33.9727 32.804 33.0714 32.804C32.2047 32.804 31.598 32.9427 31.2514 33.22ZM60.2373 38.056C59.752 37.5707 59.076 37.328 58.2093 37.328C57.3773 37.328 56.7186 37.5533 56.2333 38.004C55.852 39.2173 55.6613 40.5867 55.6613 42.112C55.6613 43.6027 55.696 44.7293 55.7653 45.492C55.8693 46.22 56.0773 46.948 56.3893 47.676C56.944 49.0973 58.1746 49.808 60.0813 49.808V50.276C58.6253 51.732 57.5506 53.292 56.8573 54.956C53.9106 54.956 51.5533 53.864 49.7853 51.68C48.0173 49.4613 47.1333 46.4453 47.1333 42.632C48.5893 40.6213 50.4093 38.8187 52.5933 37.224C54.7773 35.5947 57.0306 34.4333 59.3533 33.74C66.7026 33.74 70.3773 37.1547 70.3773 43.984C70.3773 49.0107 68.5746 53.5693 64.9693 57.66C61.364 61.716 57.048 64.4893 52.0213 65.98L51.3453 65.044C54.9853 62.756 57.6373 60.156 59.3013 57.244C60.9653 54.332 61.7973 50.692 61.7973 46.324C61.7973 41.9213 61.2773 39.1653 60.2373 38.056ZM81.4545 48.82C81.4545 54.4013 82.5812 57.192 84.8345 57.192C85.8052 57.192 86.5332 56.9667 87.0185 56.516C87.3999 55.3027 87.5905 53.7427 87.5905 51.836C87.5905 49.8947 87.3132 48.404 86.7585 47.364C86.2039 46.2893 85.0079 45.752 83.1705 45.752V45.284C84.6265 43.828 85.7012 42.268 86.3945 40.604C89.4105 40.604 91.7852 41.5573 93.5185 43.464C95.2519 45.336 96.1185 48.144 96.1185 51.888C94.6625 53.8987 92.8425 55.7187 90.6585 57.348C88.4745 58.9427 86.2212 60.0867 83.8985 60.78C76.5492 60.78 72.8745 57.3653 72.8745 50.536C72.8745 45.7867 74.6772 41.488 78.2825 37.64C81.8879 33.792 86.2039 31.1053 91.2305 29.58L91.9065 30.516C88.2665 32.804 85.6145 35.3867 83.9505 38.264C82.2865 41.1067 81.4545 44.6253 81.4545 48.82Z" fill="#4D3A3F"/>
<ellipse cx="43.23" cy="83.5" rx="4.69108" ry="4.5" fill="#4D3A3F"/>
</svg>
