<svg width="122" height="253" viewBox="0 0 122 253" fill="none" xmlns="http://www.w3.org/2000/svg">
<line x1="54.0845" y1="83" x2="54.0845" y2="253" stroke="#4D3A3F"/>
<path d="M22.6464 51.316C22.2304 52.668 22.0224 54.228 22.0224 55.996C22.0224 57.7293 22.1958 59.2373 22.5424 60.52L21.9184 60.936C15.6784 59.6533 9.40378 59.012 3.09445 59.012C2.50511 59.5667 1.93311 60.3293 1.37845 61.3L0.182448 60.78C0.737114 59.3587 1.72511 57.7467 3.14645 55.944C4.60245 54.1067 6.00645 52.4947 7.35845 51.108C8.71045 49.6867 9.90645 48.0747 10.9464 46.272C12.0211 44.4347 12.5584 42.8227 12.5584 41.436C12.5584 40.0147 12.3331 39.0267 11.8824 38.472C11.4318 37.8827 10.7384 37.588 9.80245 37.588C8.90111 37.588 8.08645 37.7267 7.35845 38.004C7.08111 38.7667 6.94245 39.6333 6.94245 40.604C6.94245 41.54 7.13311 42.1813 7.51445 42.528L7.46245 42.892C5.62511 43.5507 4.09978 44.4173 2.88645 45.492C1.98511 45.4227 1.53445 44.92 1.53445 43.984C1.53445 41.8 2.60911 39.6853 4.75845 37.64C6.94245 35.56 9.21311 34.26 11.5704 33.74C14.7251 33.74 17.1864 34.4507 18.9544 35.872C20.7224 37.2587 21.6064 39.408 21.6064 42.32C18.0704 46.1333 13.7024 49.808 8.50245 53.344V53.864C9.23045 53.4133 9.80245 53.136 10.2184 53.032C13.2691 53.032 16.6144 53.3267 20.2544 53.916C20.7051 53.0493 21.1211 52.0613 21.5024 50.952L22.6464 51.316ZM24.4693 47.988C25.4053 43.7587 27.2426 40.3267 29.9813 37.692C32.72 35.0573 35.4413 33.74 38.1453 33.74C40.884 33.74 43.4666 34.936 45.8933 37.328C48.3546 39.72 50.088 42.788 51.0933 46.532C50.1573 50.796 48.3373 54.2453 45.6333 56.88C42.964 59.48 40.26 60.78 37.5213 60.78C34.8173 60.78 32.2173 59.584 29.7213 57.192C27.2253 54.7653 25.4746 51.6973 24.4693 47.988ZM35.0253 40.292C34.332 42.4413 33.9853 44.764 33.9853 47.26C33.9853 49.756 34.332 52.096 35.0253 54.28C35.7533 56.4293 36.7066 57.816 37.8853 58.44C39.064 57.816 40 56.412 40.6933 54.228C41.3866 52.044 41.7333 49.7213 41.7333 47.26C41.7333 44.764 41.3866 42.4413 40.6933 40.292C40 38.108 39.064 36.704 37.8853 36.08C36.7066 36.704 35.7533 38.108 35.0253 40.292ZM51.4849 47.988C52.4209 43.7587 54.2583 40.3267 56.9969 37.692C59.7356 35.0573 62.4569 33.74 65.1609 33.74C67.8996 33.74 70.4823 34.936 72.9089 37.328C75.3703 39.72 77.1036 42.788 78.1089 46.532C77.1729 50.796 75.3529 54.2453 72.6489 56.88C69.9796 59.48 67.2756 60.78 64.5369 60.78C61.8329 60.78 59.2329 59.584 56.7369 57.192C54.2409 54.7653 52.4902 51.6973 51.4849 47.988ZM62.0409 40.292C61.3476 42.4413 61.0009 44.764 61.0009 47.26C61.0009 49.756 61.3476 52.096 62.0409 54.28C62.7689 56.4293 63.7223 57.816 64.9009 58.44C66.0796 57.816 67.0156 56.412 67.7089 54.228C68.4023 52.044 68.7489 49.7213 68.7489 47.26C68.7489 44.764 68.4023 42.4413 67.7089 40.292C67.0156 38.108 66.0796 36.704 64.9009 36.08C63.7223 36.704 62.7689 38.108 62.0409 40.292ZM78.5005 47.988C79.4365 43.7587 81.2739 40.3267 84.0125 37.692C86.7512 35.0573 89.4725 33.74 92.1765 33.74C94.9152 33.74 97.4979 34.936 99.9245 37.328C102.386 39.72 104.119 42.788 105.125 46.532C104.189 50.796 102.369 54.2453 99.6645 56.88C96.9952 59.48 94.2912 60.78 91.5525 60.78C88.8485 60.78 86.2485 59.584 83.7525 57.192C81.2565 54.7653 79.5059 51.6973 78.5005 47.988ZM89.0565 40.292C88.3632 42.4413 88.0165 44.764 88.0165 47.26C88.0165 49.756 88.3632 52.096 89.0565 54.28C89.7845 56.4293 90.7379 57.816 91.9165 58.44C93.0952 57.816 94.0312 56.412 94.7245 54.228C95.4179 52.044 95.7645 49.7213 95.7645 47.26C95.7645 44.764 95.4179 42.4413 94.7245 40.292C94.0312 38.108 93.0952 36.704 91.9165 36.08C90.7379 36.704 89.7845 38.108 89.0565 40.292ZM109.26 44.504C113.004 44.504 116.332 44.3307 119.244 43.984L119.66 44.244L119.348 47.468L107.024 48.248L106.556 47.936L106.868 44.504H109.26Z" fill="#4D3A3F"/>
<ellipse cx="54.0796" cy="83.5" rx="4.45652" ry="4.5" fill="#4D3A3F"/>
</svg>
