<svg width="104" height="253" viewBox="0 0 104 253" fill="none" xmlns="http://www.w3.org/2000/svg">
<line x1="45.0845" y1="83" x2="45.0845" y2="253" stroke="#4D3A3F"/>
<path d="M22.7109 51.316C22.2949 52.668 22.0869 54.228 22.0869 55.996C22.0869 57.7293 22.2602 59.2373 22.6069 60.52L21.9829 60.936C15.7429 59.6533 9.46823 59.012 3.1589 59.012C2.56957 59.5667 1.99757 60.3293 1.4429 61.3L0.246901 60.78C0.801568 59.3587 1.78957 57.7467 3.2109 55.944C4.6669 54.1067 6.0709 52.4947 7.4229 51.108C8.7749 49.6867 9.9709 48.0747 11.0109 46.272C12.0856 44.4347 12.6229 42.8227 12.6229 41.436C12.6229 40.0147 12.3976 39.0267 11.9469 38.472C11.4962 37.8827 10.8029 37.588 9.8669 37.588C8.96557 37.588 8.1509 37.7267 7.4229 38.004C7.14557 38.7667 7.0069 39.6333 7.0069 40.604C7.0069 41.54 7.19757 42.1813 7.5789 42.528L7.5269 42.892C5.68957 43.5507 4.16423 44.4173 2.9509 45.492C2.04957 45.4227 1.5989 44.92 1.5989 43.984C1.5989 41.8 2.67357 39.6853 4.8229 37.64C7.0069 35.56 9.27757 34.26 11.6349 33.74C14.7896 33.74 17.2509 34.4507 19.0189 35.872C20.7869 37.2587 21.6709 39.408 21.6709 42.32C18.1349 46.1333 13.7669 49.808 8.5669 53.344V53.864C9.2949 53.4133 9.8669 53.136 10.2829 53.032C13.3336 53.032 16.6789 53.3267 20.3189 53.916C20.7696 53.0493 21.1856 52.0613 21.5669 50.952L22.7109 51.316ZM24.5337 47.988C25.4697 43.7587 27.3071 40.3267 30.0457 37.692C32.7844 35.0573 35.5057 33.74 38.2097 33.74C40.9484 33.74 43.5311 34.936 45.9577 37.328C48.4191 39.72 50.1524 42.788 51.1577 46.532C50.2217 50.796 48.4017 54.2453 45.6977 56.88C43.0284 59.48 40.3244 60.78 37.5857 60.78C34.8817 60.78 32.2817 59.584 29.7857 57.192C27.2897 54.7653 25.5391 51.6973 24.5337 47.988ZM35.0897 40.292C34.3964 42.4413 34.0497 44.764 34.0497 47.26C34.0497 49.756 34.3964 52.096 35.0897 54.28C35.8177 56.4293 36.7711 57.816 37.9497 58.44C39.1284 57.816 40.0644 56.412 40.7577 54.228C41.4511 52.044 41.7977 49.7213 41.7977 47.26C41.7977 44.764 41.4511 42.4413 40.7577 40.292C40.0644 38.108 39.1284 36.704 37.9497 36.08C36.7711 36.704 35.8177 38.108 35.0897 40.292ZM73.4414 51.316C73.0254 52.668 72.8174 54.228 72.8174 55.996C72.8174 57.7293 72.9907 59.2373 73.3374 60.52L72.7134 60.936C66.4734 59.6533 60.1987 59.012 53.8894 59.012C53.3 59.5667 52.728 60.3293 52.1734 61.3L50.9774 60.78C51.532 59.3587 52.52 57.7467 53.9414 55.944C55.3974 54.1067 56.8014 52.4947 58.1534 51.108C59.5054 49.6867 60.7014 48.0747 61.7414 46.272C62.816 44.4347 63.3534 42.8227 63.3534 41.436C63.3534 40.0147 63.128 39.0267 62.6774 38.472C62.2267 37.8827 61.5334 37.588 60.5974 37.588C59.696 37.588 58.8814 37.7267 58.1534 38.004C57.876 38.7667 57.7374 39.6333 57.7374 40.604C57.7374 41.54 57.928 42.1813 58.3094 42.528L58.2574 42.892C56.42 43.5507 54.8947 44.4173 53.6814 45.492C52.78 45.4227 52.3294 44.92 52.3294 43.984C52.3294 41.8 53.404 39.6853 55.5534 37.64C57.7374 35.56 60.008 34.26 62.3654 33.74C65.52 33.74 67.9814 34.4507 69.7494 35.872C71.5174 37.2587 72.4014 39.408 72.4014 42.32C68.8654 46.1333 64.4974 49.808 59.2974 53.344V53.864C60.0254 53.4133 60.5974 53.136 61.0134 53.032C64.064 53.032 67.4094 53.3267 71.0494 53.916C71.5 53.0493 71.916 52.0613 72.2974 50.952L73.4414 51.316ZM97.1042 33.74C96.5495 36.86 96.2722 40.292 96.2722 44.036C96.2722 47.7453 96.3069 50.848 96.3762 53.344C97.7629 53.344 98.7335 53.2227 99.2882 52.98C99.8429 52.7027 100.328 52.0267 100.744 50.952L101.732 51.16C101.351 53.1013 101.16 55.4413 101.16 58.18L100.9 58.284C99.6522 58.18 98.1615 58.128 96.4282 58.128C96.4282 60.0693 96.5669 61.82 96.8442 63.38C97.5029 63.7267 98.4389 64.0733 99.6522 64.42L99.3922 65.668C97.3122 65.356 94.8335 65.2 91.9562 65.2C89.1135 65.2 86.3749 65.408 83.7402 65.824L83.5322 64.68C84.2602 64.2987 85.7162 63.8307 87.9002 63.276C88.1429 61.716 88.2642 60 88.2642 58.128H75.1082L74.6922 56.88C79.3029 51.1947 83.5495 43.8627 87.4322 34.884C88.7842 34.8493 90.4482 34.7107 92.4242 34.468C94.4002 34.1907 95.8042 33.8787 96.6362 33.532L97.1042 33.74ZM88.0562 39.252C86.2882 44.4867 84.2255 48.9933 81.8682 52.772C83.7749 52.98 85.9069 53.1187 88.2642 53.188L88.4202 39.252H88.0562Z" fill="#4D3A3F"/>
<ellipse cx="45.0796" cy="83.5" rx="4.45652" ry="4.5" fill="#4D3A3F"/>
</svg>
