<svg width="40" height="40" viewBox="0 0 40 40" fill="none" xmlns="http://www.w3.org/2000/svg">
<g clip-path="url(#clip0_491_494)">
<path d="M12.1437 34.5086L12.2803 34.2834C12.3236 34.2118 12.3406 34.1525 12.3312 34.1053C12.3218 34.0582 12.2954 34.0206 12.2511 33.9942C12.2125 33.9706 12.1616 33.9659 12.0994 33.98C12.0674 33.9122 12.0231 33.85 11.9675 33.7935C11.9119 33.737 11.846 33.6851 11.7687 33.638C11.5765 33.5221 11.3881 33.4816 11.2025 33.5165C11.0168 33.5523 10.8812 33.6409 10.7945 33.785C10.7398 33.8755 10.7125 33.9753 10.7144 34.0827C10.7163 34.1901 10.7455 34.291 10.8039 34.3842C10.8623 34.4775 10.9641 34.5896 11.1092 34.7187C11.2298 34.8261 11.3052 34.8987 11.3353 34.9373C11.3815 34.9948 11.4088 35.0475 11.4154 35.0965C11.422 35.1455 11.4144 35.1879 11.3918 35.2246C11.3579 35.2802 11.3023 35.3104 11.2251 35.316C11.1016 35.3264 10.9726 35.2915 10.8388 35.2105C10.753 35.1587 10.6833 35.0956 10.6296 35.0202C10.5759 34.9448 10.5448 34.8845 10.5345 34.8365C10.5307 34.8129 10.5345 34.7752 10.5486 34.7244C10.5618 34.6735 10.5627 34.6311 10.5495 34.5981C10.5373 34.5651 10.5128 34.5378 10.4779 34.5171C10.4318 34.4898 10.3856 34.4822 10.3394 34.4964C10.2933 34.5105 10.248 34.5538 10.2047 34.6254L10.0822 34.8271C10.0389 34.8987 10.0219 34.958 10.0313 35.0051C10.0408 35.0522 10.0681 35.0899 10.1142 35.1182C10.1378 35.1323 10.1604 35.1399 10.1811 35.1408C10.2028 35.1417 10.2358 35.1342 10.281 35.1191C10.3309 35.2039 10.3894 35.2802 10.4553 35.3481C10.5222 35.4159 10.5966 35.4743 10.6795 35.5243C10.8944 35.6543 11.1064 35.7023 11.3155 35.6694C11.4738 35.6439 11.5972 35.5563 11.6867 35.4084C11.7508 35.3019 11.7791 35.1936 11.7715 35.0833C11.763 34.9731 11.7291 34.8751 11.6688 34.7894C11.6085 34.7036 11.5105 34.599 11.3749 34.4756C11.2392 34.3522 11.1591 34.274 11.1346 34.2401C11.0969 34.1901 11.0753 34.1402 11.0706 34.0903C11.0658 34.0403 11.0743 33.9961 11.0969 33.9593C11.1299 33.9047 11.193 33.8717 11.2863 33.8594C11.3796 33.8472 11.4804 33.8736 11.5887 33.9395C11.6632 33.9847 11.7207 34.0366 11.7621 34.0959C11.8036 34.1553 11.8271 34.2128 11.8328 34.2665C11.8365 34.2976 11.829 34.3418 11.8092 34.3984C11.7894 34.4549 11.7857 34.4973 11.797 34.5274C11.8111 34.5661 11.8365 34.5972 11.8733 34.6198C11.9176 34.6462 11.9628 34.6527 12.009 34.6386C12.0551 34.6245 12.1003 34.5811 12.1437 34.5095V34.5086Z" fill="#4D3A3F"/>
<path d="M14.0619 35.1826C14.1081 35.1675 14.141 35.1355 14.1627 35.0883C14.1844 35.0403 14.1844 34.9941 14.1646 34.9508C14.1448 34.9074 14.0958 34.8679 14.0186 34.834L13.0509 34.4034C12.9737 34.3695 12.9124 34.36 12.8663 34.3751C12.8201 34.3902 12.7871 34.4222 12.7655 34.4703C12.7438 34.5183 12.7438 34.5645 12.7636 34.6088C12.7834 34.6531 12.8314 34.6926 12.9087 34.7266L13.2328 34.8698L12.6769 36.1238L12.3528 35.9806C12.2755 35.9467 12.2143 35.9372 12.1681 35.9523C12.122 35.9674 12.089 35.9985 12.0683 36.0456C12.0466 36.0936 12.0466 36.1398 12.0664 36.1841C12.0862 36.2284 12.1342 36.2679 12.2115 36.3019L13.18 36.7306C13.2573 36.7645 13.3185 36.7739 13.3647 36.7588C13.4109 36.7437 13.4438 36.7127 13.4646 36.6655C13.4862 36.6175 13.4862 36.5713 13.4674 36.527C13.4485 36.4828 13.3995 36.4432 13.3223 36.4093L12.9982 36.2661L13.5541 35.012L13.8782 35.1552C13.9554 35.1892 14.0167 35.1986 14.0628 35.1835L14.0619 35.1826Z" fill="#4D3A3F"/>
<path d="M16.3645 35.7784C16.3795 35.7285 16.3739 35.6823 16.3494 35.6418C16.3239 35.6013 16.2712 35.5683 16.1902 35.5447L15.7502 35.4119C15.6691 35.3874 15.607 35.3864 15.5636 35.4072C15.5203 35.4279 15.4901 35.4637 15.476 35.5136C15.4609 35.5636 15.4666 35.6097 15.4911 35.6512C15.5165 35.6927 15.5693 35.7256 15.6503 35.7492L15.7718 35.785L15.4703 36.7969L15.0124 35.1933L14.6243 35.0755C14.5432 35.051 14.4811 35.0501 14.4377 35.0708C14.3944 35.0916 14.3642 35.1274 14.3501 35.1773C14.335 35.2272 14.3397 35.2734 14.3652 35.3148C14.3906 35.3563 14.4434 35.3893 14.5244 35.4128L14.5772 35.4288L14.1862 36.7441C14.1155 36.7234 14.058 36.7234 14.0147 36.7441C13.9713 36.7658 13.9421 36.8007 13.928 36.8487C13.9129 36.8986 13.9176 36.9448 13.9431 36.9863C13.9685 37.0277 14.0213 37.0607 14.1023 37.0842L14.5432 37.2152C14.6243 37.2397 14.6864 37.2406 14.7298 37.2199C14.7731 37.1992 14.8023 37.1643 14.8174 37.1144C14.8325 37.0645 14.8278 37.0183 14.8023 36.9768C14.7769 36.9354 14.7241 36.9024 14.6431 36.8789L14.5216 36.8431L14.824 35.8264L15.2857 37.4357L15.6183 37.5346L16.1101 35.8839C16.1798 35.9046 16.2363 35.9046 16.2797 35.883C16.323 35.8613 16.3522 35.8255 16.3663 35.7765L16.3645 35.7784Z" fill="#4D3A3F"/>
<path d="M18.0946 35.8832C18.0654 35.8785 18.0371 35.8813 18.0088 35.8917C17.9806 35.9021 17.9542 35.92 17.9278 35.9463C17.86 35.887 17.7846 35.838 17.7007 35.8012C17.6169 35.7636 17.5255 35.7372 17.4256 35.7202C17.2589 35.6929 17.0949 35.7099 16.9319 35.7692C16.7699 35.8295 16.6333 35.9303 16.524 36.0726C16.4147 36.2149 16.345 36.376 16.3158 36.5559L16.2771 36.7905C16.2489 36.9629 16.2696 37.1297 16.3393 37.2899C16.409 37.4501 16.5042 37.5763 16.6267 37.6649C16.7774 37.776 16.9545 37.8486 17.1599 37.8816C17.3352 37.9098 17.501 37.9061 17.6555 37.8693C17.7714 37.842 17.8694 37.7949 17.9514 37.727C18.007 37.6809 18.039 37.6338 18.0475 37.5867C18.055 37.5396 18.0446 37.4953 18.0154 37.4548C17.9862 37.4142 17.9485 37.3898 17.9024 37.3822C17.8769 37.3784 17.8524 37.3794 17.8308 37.3869C17.8091 37.3945 17.7771 37.4133 17.7347 37.4435C17.6668 37.4934 17.6046 37.5245 17.55 37.5367C17.4558 37.5575 17.3437 37.5565 17.2155 37.5367C17.0007 37.5019 16.8415 37.418 16.7388 37.2871C16.6361 37.1561 16.5984 37.0072 16.6257 36.8405L16.6625 36.6162C16.6851 36.4768 16.7378 36.3618 16.8208 36.2714C16.9037 36.1809 16.9922 36.1206 17.0865 36.0896C17.1807 36.0585 17.2796 36.0519 17.3832 36.0688C17.4661 36.082 17.5472 36.1112 17.6244 36.1555C17.7017 36.1998 17.7601 36.2507 17.7978 36.3091C17.8176 36.3392 17.827 36.3779 17.827 36.4269C17.8289 36.5003 17.8421 36.5522 17.8656 36.5823C17.8892 36.6125 17.925 36.6322 17.9712 36.6398C18.022 36.6483 18.0663 36.637 18.104 36.6068C18.1417 36.5767 18.1681 36.5201 18.1813 36.4363L18.2293 36.1423C18.2425 36.0594 18.2368 35.9972 18.2105 35.9576C18.1841 35.9171 18.1455 35.8936 18.0946 35.8851V35.8832Z" fill="#4D3A3F"/>
<path d="M20.073 37.2933C20.0202 37.2914 19.9778 37.3074 19.9439 37.3423C19.91 37.3771 19.8921 37.4365 19.8883 37.5213L19.8817 37.7107L18.9876 37.6786L19.0064 37.1642L19.3145 37.1755C19.3107 37.2679 19.3173 37.3272 19.3334 37.3545C19.3663 37.412 19.4163 37.4412 19.4803 37.444C19.5416 37.4459 19.5915 37.4214 19.6301 37.3687C19.649 37.3432 19.6603 37.2923 19.6631 37.216L19.6782 36.8128C19.681 36.7289 19.6669 36.6677 19.6358 36.6309C19.6047 36.5942 19.5632 36.5744 19.5124 36.5725C19.4474 36.5706 19.3965 36.5961 19.3588 36.6507C19.3409 36.6762 19.3305 36.7346 19.3268 36.826L19.0187 36.8147L19.0366 36.3087L19.8534 36.3379L19.8468 36.5207C19.844 36.6055 19.8581 36.6658 19.8892 36.7016C19.9203 36.7384 19.9618 36.7572 20.0145 36.7591C20.0673 36.761 20.1097 36.7449 20.1427 36.7101C20.1757 36.6752 20.1936 36.6159 20.1973 36.533L20.2171 35.9997L18.6446 35.9413C18.5598 35.9384 18.4995 35.9526 18.4628 35.9837C18.426 36.0148 18.4063 36.0572 18.4044 36.109C18.4025 36.1617 18.4185 36.2041 18.4534 36.2381C18.4882 36.272 18.5476 36.2899 18.6324 36.2936L18.687 36.2955L18.6371 37.6664L18.5824 37.6645C18.4995 37.6617 18.4392 37.6758 18.4015 37.7069C18.3639 37.738 18.3441 37.7795 18.3422 37.8303C18.3403 37.8831 18.3563 37.9255 18.3912 37.9594C18.426 37.9933 18.4854 38.0112 18.5702 38.015L20.2199 38.0744L20.2397 37.5345C20.2426 37.4506 20.2284 37.3894 20.1973 37.3526C20.1662 37.3159 20.1248 37.2961 20.0739 37.2942L20.073 37.2933Z" fill="#4D3A3F"/>
<path d="M24.4589 37.1523C24.4203 37.124 24.376 37.1165 24.3232 37.1278C24.2865 37.1353 24.2507 37.1607 24.2177 37.2031L23.4677 37.3671C23.7466 37.0015 23.9322 36.75 24.0264 36.6115C24.1461 36.4362 24.2168 36.3034 24.2384 36.2139C24.2601 36.1244 24.261 36.032 24.2403 35.9378C24.1998 35.7513 24.0962 35.608 23.9294 35.5072C23.7626 35.4064 23.5714 35.3791 23.3556 35.4262C23.2162 35.4564 23.0937 35.5148 22.9882 35.6005C22.8826 35.6862 22.8101 35.7861 22.7696 35.9001C22.73 36.0141 22.7168 36.1046 22.7319 36.1715C22.7413 36.2157 22.7668 36.2515 22.8082 36.277C22.8497 36.3034 22.8939 36.3109 22.9401 36.3005C22.9806 36.2921 23.0117 36.2742 23.0343 36.2487C23.0569 36.2223 23.0711 36.1846 23.0767 36.1347C23.0862 36.0546 23.1078 35.9906 23.1417 35.9435C23.2077 35.8539 23.3019 35.7965 23.4244 35.7701C23.5459 35.7437 23.6496 35.7541 23.7372 35.8021C23.8239 35.8502 23.8766 35.9161 23.8945 36C23.9096 36.0669 23.8927 36.1451 23.8437 36.2336C23.7476 36.4079 23.4461 36.8159 22.9401 37.4604L23.0193 37.8231L24.5804 37.483L24.5446 37.319C24.5267 37.2352 24.4985 37.1796 24.4598 37.1523H24.4589Z" fill="#4D3A3F"/>
<path d="M26.1462 35.6076C26.085 35.4295 25.986 35.2759 25.8485 35.1459C25.7109 35.0168 25.5856 34.9386 25.4735 34.9113C25.3614 34.8849 25.2389 34.8934 25.106 34.9396C24.8743 35.0187 24.7301 35.1789 24.6736 35.4191C24.6171 35.6594 24.6255 35.8874 24.699 36.1022L24.8234 36.4668C24.8837 36.644 24.9826 36.7975 25.1192 36.9266C25.2558 37.0557 25.3802 37.1348 25.4923 37.1622C25.6045 37.1895 25.7279 37.1801 25.8617 37.1348C26.0934 37.0557 26.2385 36.8955 26.2951 36.6562C26.3516 36.4169 26.3441 36.188 26.2706 35.9722L26.1462 35.6076ZM25.9502 36.5959C25.9144 36.6996 25.8475 36.7683 25.7477 36.8022C25.6431 36.8381 25.5498 36.8286 25.4688 36.773C25.3218 36.6741 25.2172 36.5337 25.155 36.3528L25.0307 35.9882C24.9675 35.8045 24.9638 35.6349 25.0175 35.4776C25.0533 35.3739 25.1211 35.3051 25.2219 35.2703C25.3256 35.2345 25.4188 35.2448 25.5008 35.2995C25.6469 35.4003 25.7514 35.5407 25.8127 35.7206L25.937 36.0853C26.0002 36.269 26.0039 36.4386 25.9502 36.5959Z" fill="#4D3A3F"/>
<path d="M28.2171 35.7004C28.1738 35.6815 28.1276 35.6844 28.0796 35.707C28.0456 35.723 28.0164 35.756 27.9938 35.805L27.3004 36.1347C27.4888 35.7155 27.6122 35.4281 27.6725 35.2717C27.7489 35.0738 27.7875 34.9287 27.7884 34.8364C27.7894 34.7441 27.7686 34.6546 27.7272 34.567C27.6452 34.3955 27.5114 34.2786 27.3268 34.2183C27.1421 34.158 26.9489 34.175 26.7492 34.2702C26.6201 34.3314 26.5146 34.4162 26.4317 34.5236C26.3488 34.631 26.3007 34.745 26.2875 34.8647C26.2744 34.9843 26.2828 35.0757 26.312 35.137C26.3318 35.1784 26.3648 35.2067 26.411 35.2227C26.4571 35.2387 26.5014 35.2359 26.5448 35.2161C26.5815 35.1982 26.6088 35.1747 26.6248 35.1436C26.6409 35.1134 26.6465 35.0729 26.6399 35.023C26.6305 34.9429 26.6371 34.876 26.6597 34.8223C26.703 34.7205 26.7822 34.6433 26.8952 34.5886C27.0074 34.5349 27.111 34.5217 27.2071 34.5491C27.3023 34.5764 27.3692 34.6282 27.4059 34.7054C27.4351 34.7676 27.437 34.8468 27.4097 34.9438C27.355 35.1351 27.1553 35.6015 26.8086 36.3439L26.9678 36.6793L28.4103 35.9934L28.3387 35.8417C28.3019 35.7645 28.2614 35.7164 28.2181 35.6985L28.2171 35.7004Z" fill="#4D3A3F"/>
<path d="M29.7794 34.834C29.7323 34.8237 29.6767 34.8387 29.6136 34.8764L29.541 34.7568C29.6032 34.7191 29.6418 34.6767 29.655 34.6296C29.6682 34.5825 29.6616 34.5372 29.6352 34.493C29.6089 34.4487 29.5721 34.4223 29.525 34.4129C29.4779 34.4034 29.4223 34.4176 29.3592 34.4562L28.6469 33.2832L28.2502 33.5235L28.2747 35.1817L28.4264 35.4314L29.2405 34.9367L29.313 35.0564L29.1962 35.127C29.1236 35.1704 29.0812 35.2156 29.0671 35.2627C29.053 35.3089 29.0596 35.3541 29.086 35.3984C29.1133 35.4436 29.151 35.47 29.1981 35.4794C29.2452 35.4888 29.3055 35.4709 29.378 35.4276L29.7803 35.1836C29.8529 35.1402 29.8953 35.095 29.9094 35.0479C29.9235 35.0017 29.917 34.9565 29.8906 34.9122C29.8642 34.8679 29.8265 34.8416 29.7794 34.8312V34.834ZM28.6243 34.9028L28.6111 33.9022L29.0586 34.639L28.6243 34.9028Z" fill="#4D3A3F"/>
<path d="M3.03273 24.2154L4.37062 23.9422L4.38193 23.9959C4.39889 24.0769 4.42621 24.1325 4.46484 24.1608C4.50347 24.19 4.54869 24.1994 4.59863 24.1891C4.6495 24.1787 4.68719 24.1523 4.71169 24.1109C4.73618 24.0694 4.73995 24.0072 4.72299 23.9253L4.5176 22.9209C4.49216 22.7975 4.45636 22.6976 4.41019 22.6213C4.36403 22.545 4.31126 22.4837 4.25285 22.4366C4.21045 22.4008 4.15863 22.3744 4.09551 22.3575C4.0126 22.3339 3.92874 22.3311 3.84206 22.349C3.73277 22.3716 3.64138 22.4187 3.566 22.4894C3.49063 22.561 3.43222 22.6571 3.38982 22.7786C3.32198 22.7315 3.25226 22.6995 3.1816 22.6844C3.10999 22.6693 3.03744 22.6684 2.96301 22.6844C2.80661 22.7164 2.68319 22.8069 2.59557 22.9539C2.507 23.1018 2.48345 23.278 2.52584 23.4824L2.70109 24.3398C2.71805 24.4218 2.74537 24.4774 2.78494 24.5056C2.82357 24.5339 2.8688 24.5433 2.91967 24.533C2.97055 24.5226 3.00824 24.4962 3.03273 24.4548C3.05723 24.4133 3.061 24.3511 3.04404 24.2691L3.03273 24.2154ZM3.73371 22.8606C3.7827 22.7617 3.84206 22.7051 3.91084 22.691C3.96831 22.6797 4.01731 22.691 4.05782 22.7287C4.11058 22.7767 4.15109 22.871 4.17936 23.0095L4.29996 23.6002L3.80155 23.702L3.70921 23.2497C3.67624 23.0895 3.68472 22.9595 3.73371 22.8606ZM2.96301 23.8734L2.87162 23.4278C2.84618 23.3044 2.85089 23.2101 2.88387 23.1442C2.91685 23.0782 2.96396 23.0396 3.02425 23.0264C3.09209 23.0123 3.15522 23.0311 3.21269 23.082C3.29843 23.1574 3.3559 23.262 3.38322 23.3967L3.46048 23.7717L2.96396 23.8734H2.96301Z" fill="#4D3A3F"/>
<path d="M2.58526 22.0921C2.6154 22.0544 2.62765 21.9931 2.622 21.9093L2.61823 21.8546L3.98061 21.7661L3.98438 21.8207C3.99004 21.9036 4.00982 21.962 4.04468 21.996C4.07954 22.0299 4.12194 22.0459 4.17282 22.0421C4.22464 22.0384 4.26609 22.0186 4.29624 21.9799C4.32639 21.9422 4.33864 21.881 4.33299 21.7972L4.29907 21.2686C4.29342 21.1847 4.27363 21.1263 4.23877 21.0924C4.20391 21.0585 4.16151 21.0434 4.11064 21.0472C4.05882 21.051 4.01736 21.0707 3.98721 21.1094C3.95706 21.1471 3.94481 21.2083 3.95047 21.2921L3.95895 21.4175L3.52083 21.4457L3.49822 21.1009C3.57454 20.9096 3.82139 20.659 4.23877 20.3481L4.22558 20.1493C4.21993 20.0654 4.20014 20.007 4.16528 19.974C4.13042 19.9411 4.08802 19.926 4.03715 19.9298C3.97402 19.9335 3.92597 19.9627 3.89394 20.0155C3.87792 20.0447 3.87226 20.1041 3.87792 20.1926C3.74696 20.2897 3.65085 20.3669 3.58961 20.4225C3.49445 20.513 3.41719 20.5968 3.3569 20.675C3.27964 20.5516 3.19484 20.4612 3.10157 20.4037C3.00829 20.3462 2.90748 20.3208 2.79913 20.3274C2.62483 20.3387 2.48067 20.4159 2.36856 20.5591C2.25549 20.7023 2.20744 20.8964 2.22346 21.1423L2.2734 21.9309C2.27905 22.0148 2.29883 22.0732 2.33369 22.1071C2.36856 22.141 2.4119 22.1561 2.46371 22.1524C2.51553 22.1486 2.55699 22.1288 2.58714 22.0902L2.58526 22.0921ZM2.63331 20.7947C2.68513 20.7212 2.74354 20.6816 2.80949 20.6779C2.85377 20.675 2.89994 20.6901 2.94705 20.724C2.9951 20.7579 3.04221 20.8267 3.09026 20.9304C3.12606 21.0076 3.14679 21.0962 3.15339 21.197L3.17129 21.4683L2.59562 21.506L2.57018 21.1065C2.5617 20.9718 2.58243 20.8672 2.63425 20.7937L2.63331 20.7947Z" fill="#4D3A3F"/>
<path d="M2.33851 19.5137C2.39033 19.5184 2.43462 19.5033 2.46948 19.4704C2.50434 19.4374 2.52601 19.379 2.5326 19.2951L2.53731 19.2405L3.89781 19.3535L3.8931 19.4082C3.88651 19.4911 3.89781 19.5514 3.92702 19.59C3.95623 19.6286 3.99674 19.6503 4.04762 19.655C4.09944 19.6597 4.14278 19.6447 4.17858 19.6117C4.21344 19.5787 4.23511 19.5203 4.24171 19.4364L4.37738 17.7999L3.84128 17.7556C3.75743 17.749 3.69619 17.7594 3.6585 17.7895C3.61987 17.8187 3.59914 17.8592 3.59443 17.9101C3.58972 17.9619 3.6048 18.0053 3.63777 18.0411C3.67075 18.0759 3.72916 18.0976 3.81302 18.1042L4.00145 18.1202L3.92796 19.0078L3.4173 18.9654L3.44274 18.6601C3.53413 18.6676 3.59349 18.6639 3.62176 18.6497C3.68017 18.6196 3.7122 18.5715 3.71692 18.5075C3.72163 18.4462 3.69901 18.3953 3.64908 18.3548C3.62458 18.335 3.57465 18.3209 3.49833 18.3153L3.09791 18.2823C3.01405 18.2757 2.95281 18.286 2.91512 18.3162C2.8765 18.3454 2.85577 18.3859 2.85106 18.4368C2.8454 18.5009 2.86896 18.5536 2.92172 18.5932C2.94622 18.612 3.00369 18.6252 3.09414 18.6328L3.0687 18.938L2.56652 18.8966L2.63341 18.0854L2.81525 18.1004C2.89911 18.107 2.95941 18.0967 2.99709 18.0665C3.03478 18.0373 3.05551 17.9968 3.06022 17.945C3.06493 17.8932 3.04986 17.8498 3.01688 17.815C2.9839 17.7801 2.92643 17.7594 2.84352 17.7528L2.31402 17.7085L2.18306 19.2687C2.17646 19.3526 2.18682 19.4138 2.21697 19.4515C2.24618 19.4901 2.28669 19.5109 2.33851 19.5156V19.5137Z" fill="#4D3A3F"/>
<path d="M2.63709 16.7661C2.68797 16.7784 2.73319 16.7699 2.77276 16.7426C2.81233 16.7152 2.84154 16.6606 2.86039 16.5786L2.9122 16.3563L4.11725 17.1995C4.09558 17.2834 4.09652 17.3465 4.12007 17.3908C4.14363 17.4351 4.18131 17.4624 4.23125 17.4746C4.28213 17.4869 4.32735 17.4784 4.36692 17.4511C4.40649 17.4238 4.4357 17.3691 4.45454 17.2871L4.56101 16.8292C4.57985 16.7473 4.57797 16.6851 4.55441 16.6436C4.53086 16.6012 4.49411 16.5749 4.44418 16.5635C4.3933 16.5513 4.34808 16.5598 4.30851 16.5871C4.26894 16.6144 4.23973 16.6691 4.22088 16.751L4.20204 16.8339L4.01361 16.703L4.20581 15.8776L4.43193 15.8447L4.41309 15.9276C4.39424 16.0095 4.39613 16.0717 4.41968 16.1132C4.44324 16.1556 4.47998 16.182 4.52992 16.1933C4.5808 16.2055 4.62602 16.197 4.66559 16.1697C4.70516 16.1424 4.73437 16.0877 4.75321 16.0058L4.85968 15.5479C4.87852 15.4659 4.87664 15.4047 4.85308 15.3632C4.82953 15.3218 4.79278 15.2954 4.74285 15.2831C4.68349 15.269 4.62885 15.2831 4.58079 15.3255C4.55724 15.3472 4.53651 15.3971 4.51767 15.4772L2.69079 15.7655L2.51838 16.4995C2.49953 16.5814 2.50142 16.6436 2.52497 16.6851C2.54853 16.7275 2.58527 16.7539 2.63615 16.7661H2.63709ZM3.83459 15.9389L3.7074 16.4872L3.09781 16.0557L3.83459 15.9389Z" fill="#4D3A3F"/>
<path d="M3.23916 14.3944C3.28626 14.4133 3.33149 14.4123 3.37483 14.3916C3.41817 14.3709 3.45397 14.3266 3.48224 14.2588L4.7504 14.7647C4.72214 14.8316 4.71743 14.8881 4.73439 14.9334C4.75134 14.9786 4.78432 15.0106 4.83143 15.0295C4.87948 15.0493 4.92565 15.0483 4.96899 15.0266C5.01233 15.005 5.04907 14.956 5.08016 14.8778L5.3402 14.2267C5.4071 14.059 5.43631 13.913 5.42877 13.7877C5.42406 13.7085 5.40239 13.6181 5.36564 13.5163C5.3289 13.4146 5.26671 13.3194 5.17909 13.2299C5.09147 13.1414 4.97935 13.0697 4.84274 13.0151L4.68822 12.9529C4.57516 12.9077 4.47529 12.8823 4.38672 12.8766C4.2991 12.871 4.20488 12.8766 4.10596 12.8954C4.00703 12.9143 3.92506 12.9378 3.86193 12.9661C3.77714 13.0029 3.69611 13.0641 3.61697 13.1498C3.53782 13.2356 3.47753 13.3307 3.43513 13.4353L3.16284 14.1127C3.13175 14.1909 3.12421 14.2522 3.14117 14.2974C3.15813 14.3426 3.1911 14.3747 3.23916 14.3944ZM3.74793 13.5927C3.7941 13.4777 3.8544 13.391 3.92977 13.3326C4.00514 13.2742 4.11444 13.2384 4.25953 13.2252C4.35186 13.2167 4.44985 13.2327 4.5516 13.2742L4.70518 13.3354C4.82389 13.3826 4.91246 13.4429 4.96993 13.5163C5.0274 13.5898 5.0632 13.6784 5.07828 13.783C5.08959 13.8631 5.06886 13.9676 5.01798 14.0958L4.88042 14.4406L3.61226 13.9347L3.74887 13.5936L3.74793 13.5927Z" fill="#4D3A3F"/>
<path d="M5.43398 11.3936L4.74634 12.6787L5.02712 12.829L5.71477 11.5438L5.43398 11.3936Z" fill="#4D3A3F"/>
<path d="M4.88903 10.8389C4.93237 10.8681 4.97665 10.8775 5.02376 10.8662C5.07087 10.8549 5.11797 10.8153 5.16508 10.7456L5.19618 10.7004L6.32113 11.4739L6.29004 11.5191C6.24293 11.587 6.22314 11.6454 6.2288 11.6934C6.23445 11.7415 6.25895 11.7801 6.30135 11.8093C6.34469 11.8385 6.38897 11.8479 6.43608 11.8366C6.48318 11.8253 6.53029 11.7858 6.5774 11.716L7.15778 10.8718C7.22939 10.7682 7.2765 10.673 7.29911 10.5873C7.32172 10.5016 7.3302 10.4205 7.3236 10.3461C7.31984 10.2915 7.30288 10.2349 7.27178 10.1784C7.23127 10.103 7.17474 10.0399 7.10219 9.98997C7.0108 9.92684 6.91282 9.89293 6.80918 9.88916C6.70554 9.88445 6.5953 9.90894 6.47847 9.96265C6.46623 9.88068 6.43984 9.80907 6.40216 9.74689C6.36353 9.68471 6.31359 9.63194 6.25047 9.5886C6.11856 9.49816 5.96876 9.47177 5.80105 9.5104C5.63334 9.54903 5.49013 9.65456 5.37142 9.82697L4.87584 10.5477C4.82873 10.6165 4.808 10.6749 4.81365 10.723C4.82025 10.771 4.84474 10.8097 4.88808 10.8389H4.88903ZM6.3607 10.5195C6.45304 10.3847 6.55196 10.3009 6.65843 10.267C6.76395 10.234 6.84592 10.2368 6.90339 10.2764C6.95239 10.3103 6.97688 10.3536 6.97783 10.4083C6.97971 10.4799 6.94014 10.5741 6.86005 10.6909L6.51899 11.1875L6.09972 10.8992L6.3607 10.5195ZM5.65219 10.0399C5.72379 9.93627 5.79446 9.87314 5.86512 9.85147C5.93578 9.8298 5.99608 9.8364 6.04696 9.87126C6.10443 9.91083 6.13458 9.9683 6.13835 10.0456C6.144 10.1596 6.1082 10.2736 6.03 10.3866L5.8133 10.7023L5.39497 10.4149L5.65219 10.0408V10.0399Z" fill="#4D3A3F"/>
<path d="M6.47746 8.84771C6.52551 8.84299 6.57733 8.80908 6.63386 8.74595L6.86847 8.48308L7.88507 9.39417L7.64953 9.65703C7.59394 9.72016 7.56567 9.7748 7.56567 9.82285C7.56567 9.87091 7.58546 9.91236 7.62315 9.94628C7.66178 9.98114 7.70512 9.99621 7.75317 9.99056C7.80122 9.98491 7.85304 9.95193 7.90957 9.88881L8.61243 9.10398C8.66802 9.04179 8.69628 8.9862 8.69628 8.93815C8.69628 8.8901 8.6765 8.84865 8.63881 8.81473C8.60018 8.77987 8.55684 8.76479 8.50879 8.77045C8.46074 8.7761 8.40892 8.80908 8.35239 8.8722L8.11779 9.13507L7.10118 8.22399L7.33578 7.96112C7.39137 7.89894 7.41964 7.84335 7.41964 7.7953C7.41964 7.74725 7.39985 7.70579 7.36122 7.67093C7.32259 7.63607 7.27925 7.62099 7.2312 7.62665C7.18409 7.6323 7.13227 7.66622 7.07574 7.7284L6.37194 8.51229C6.31635 8.57447 6.28809 8.63006 6.28809 8.67811C6.28809 8.72616 6.30787 8.76762 6.3465 8.80248C6.38513 8.83734 6.42847 8.85242 6.47652 8.84676L6.47746 8.84771Z" fill="#4D3A3F"/>
<path d="M8.31954 7.67954C8.36759 7.68519 8.41093 7.672 8.44956 7.63903C8.48913 7.60511 8.50986 7.56365 8.5108 7.5156C8.51174 7.46755 8.48536 7.41102 8.43072 7.34789L8.2159 7.09728L8.50326 6.85137L9.39173 7.88776L9.21461 8.03945C9.15054 8.0941 9.11568 8.14497 9.11002 8.19302C9.10437 8.24107 9.11756 8.28441 9.15054 8.32304C9.18446 8.36261 9.22591 8.38334 9.27396 8.38428C9.32201 8.38523 9.37854 8.35885 9.44167 8.3042L10.0616 7.77281C10.1257 7.71817 10.1605 7.66729 10.1662 7.61924C10.1719 7.57119 10.1587 7.52785 10.1257 7.48922C10.0918 7.44965 10.0503 7.42892 10.0023 7.42798C9.95421 7.42704 9.89768 7.45342 9.83456 7.50806L9.65649 7.66069L8.76802 6.6243L9.05915 6.37463L9.27396 6.62525C9.32861 6.68931 9.37949 6.72417 9.42754 6.72983C9.47559 6.73548 9.51893 6.72229 9.55756 6.68931C9.59713 6.6554 9.61786 6.61394 9.6188 6.56589C9.61974 6.51784 9.59336 6.46131 9.53871 6.39818L9.09683 5.88281L7.72314 7.0577L8.16597 7.57496C8.22061 7.63903 8.27149 7.67389 8.31954 7.67954Z" fill="#4D3A3F"/>
<path d="M9.8107 5.73571C9.85875 5.74325 9.91717 5.72346 9.98783 5.6773L10.2827 5.48415L11.0318 6.62513L10.7369 6.81827C10.6662 6.86444 10.6257 6.9106 10.6134 6.95771C10.6012 7.00482 10.6097 7.0491 10.637 7.0915C10.6653 7.13484 10.7039 7.16028 10.751 7.16782C10.799 7.17535 10.8575 7.15557 10.9281 7.1094L11.8091 6.53091C11.8797 6.48474 11.9202 6.43857 11.9325 6.39147C11.9447 6.34436 11.9362 6.30007 11.9089 6.25768C11.8807 6.21434 11.842 6.1889 11.7949 6.18136C11.7469 6.17382 11.6885 6.19361 11.6178 6.23978L11.3229 6.43292L10.5739 5.29195L10.8688 5.0988C10.9394 5.05264 10.9799 5.00647 10.9922 4.95936C11.0044 4.91225 10.996 4.86797 10.9677 4.82369C10.9394 4.78035 10.9008 4.75491 10.8537 4.74737C10.8066 4.74078 10.7472 4.75962 10.6775 4.80579L9.79563 5.3824C9.72496 5.42856 9.68445 5.47473 9.6722 5.52184C9.65995 5.56895 9.66843 5.61323 9.6967 5.65751C9.72496 5.70179 9.76359 5.72629 9.8107 5.73383V5.73571Z" fill="#4D3A3F"/>
<path d="M11.4381 4.68443C11.4843 4.69762 11.5455 4.68631 11.6209 4.64956L11.6699 4.62601L12.2663 5.85366C12.1994 5.8857 12.1579 5.92433 12.141 5.96955C12.124 6.01478 12.1259 6.05906 12.1476 6.10428C12.1702 6.15139 12.205 6.18154 12.2512 6.19473C12.2974 6.20792 12.3586 6.19661 12.434 6.15987L12.8457 5.96013C12.9211 5.92338 12.9682 5.88287 12.9861 5.83765C13.004 5.79336 13.0021 5.7472 12.9795 5.70197C12.9569 5.65486 12.922 5.62472 12.8759 5.61152C12.8297 5.59833 12.7684 5.60964 12.6931 5.64639L12.58 5.70103L12.1183 4.75132L13.5391 5.62283L13.8501 5.47208L13.101 3.93069C13.166 3.89865 13.2075 3.86097 13.2254 3.81574C13.2424 3.77052 13.2405 3.72529 13.2179 3.67913C13.1953 3.63202 13.1604 3.60187 13.1142 3.58962C13.0681 3.57643 13.0078 3.58868 12.9314 3.62542L12.5188 3.82422C12.4434 3.86097 12.3963 3.90148 12.3784 3.9467C12.3605 3.99099 12.3624 4.03715 12.3859 4.08426C12.4095 4.13137 12.4434 4.16152 12.4896 4.17471C12.5357 4.1879 12.597 4.17659 12.6723 4.13985L12.7854 4.0852L13.2442 5.0302L11.831 4.16152L11.4673 4.33582C11.3919 4.37257 11.3448 4.41308 11.3269 4.4583C11.309 4.50259 11.3109 4.54875 11.3345 4.59586C11.358 4.64297 11.3919 4.67312 11.4381 4.68631V4.68443Z" fill="#4D3A3F"/>
<path d="M13.899 4.50622C13.9461 4.64943 14.0167 4.77003 14.11 4.86801C14.2033 4.966 14.2918 5.03384 14.3766 5.07152C14.4614 5.10921 14.567 5.129 14.6923 5.12994C14.8534 5.13277 15.0183 5.10638 15.1879 5.0508C15.3094 5.01028 15.4177 4.95846 15.5139 4.8944C15.61 4.83033 15.7183 4.73328 15.8417 4.60232L15.6947 4.15762C15.7371 4.12841 15.7654 4.09449 15.7795 4.05775C15.7927 4.021 15.7937 3.98331 15.7805 3.94468C15.7645 3.89475 15.7343 3.86083 15.69 3.84199C15.6458 3.82314 15.5845 3.82691 15.5044 3.85329L14.9156 4.0455C14.8355 4.07188 14.7837 4.1058 14.7601 4.14819C14.7366 4.19059 14.7328 4.23582 14.7488 4.28575C14.7648 4.33569 14.795 4.3696 14.8393 4.38939C14.8835 4.40918 14.9448 4.40541 15.0249 4.37903L15.3631 4.26785L15.4413 4.50528C15.3348 4.60326 15.2058 4.6777 15.0541 4.72763C14.8298 4.80206 14.6508 4.8096 14.518 4.75119C14.3842 4.69277 14.289 4.575 14.2297 4.39693L14.1505 4.15762C14.1119 4.04079 14.1053 3.92396 14.1307 3.80524C14.1562 3.68653 14.1967 3.59608 14.2523 3.5339C14.3314 3.44816 14.4369 3.38315 14.5679 3.33981C14.6593 3.30966 14.746 3.29458 14.8279 3.29458C14.9099 3.29458 14.9702 3.30495 15.0098 3.32662C15.0343 3.33981 15.0635 3.37184 15.0965 3.42272C15.1294 3.4736 15.1596 3.50375 15.186 3.51223C15.2218 3.52636 15.2595 3.5273 15.2981 3.51505C15.3461 3.49904 15.381 3.46889 15.3998 3.4246C15.4187 3.38032 15.4159 3.31908 15.3895 3.239L15.3188 3.02418C15.2924 2.9441 15.2585 2.89322 15.2171 2.86966C15.1756 2.84611 15.1313 2.84234 15.0823 2.85836C15.0399 2.87249 15.0041 2.90641 14.973 2.96105C14.8873 2.94881 14.8016 2.94692 14.7139 2.9554C14.6263 2.96388 14.5378 2.98272 14.4473 3.01287C14.1354 3.11557 13.9282 3.31437 13.8245 3.60927C13.7473 3.82691 13.7444 4.04644 13.8179 4.26785L13.8971 4.50716L13.899 4.50622Z" fill="#4D3A3F"/>
<path d="M16.6361 2.78344C16.6756 2.81077 16.7378 2.81831 16.8207 2.807L16.8744 2.79946L17.0619 4.15148L17.0082 4.15902C16.9262 4.17033 16.8697 4.19482 16.8377 4.23157C16.8066 4.26831 16.7943 4.31259 16.8009 4.36253C16.8085 4.41435 16.832 4.45392 16.8716 4.4803C16.9112 4.50762 16.9734 4.51516 17.0563 4.50385L17.5811 4.43131C17.664 4.42 17.7214 4.3955 17.7525 4.35876C17.7836 4.32201 17.7959 4.27773 17.7883 4.2278C17.7808 4.17598 17.7572 4.13641 17.7177 4.11003C17.6781 4.0827 17.6159 4.07517 17.533 4.08647L17.4086 4.10343L17.3483 3.66815L17.6903 3.62104C17.8863 3.68322 18.1548 3.91123 18.495 4.30506L18.6919 4.27773C18.7748 4.26643 18.8323 4.24193 18.8624 4.20519C18.8926 4.16844 18.9048 4.12416 18.8973 4.07422C18.8888 4.0111 18.8568 3.96587 18.8012 3.93761C18.771 3.92348 18.7117 3.92253 18.624 3.93478C18.5176 3.81136 18.4337 3.72091 18.3734 3.66344C18.2764 3.57487 18.1869 3.50421 18.1049 3.44956C18.2227 3.36288 18.3065 3.27149 18.3574 3.17445C18.4083 3.0774 18.4262 2.97471 18.4111 2.8673C18.3866 2.69394 18.299 2.55638 18.1482 2.45463C17.9975 2.35287 17.7996 2.31801 17.5556 2.35193L16.7727 2.45934C16.6898 2.47064 16.6323 2.49514 16.6012 2.53188C16.5701 2.56863 16.5579 2.61291 16.5654 2.66473C16.5729 2.71655 16.5965 2.75612 16.6361 2.7825V2.78344ZM17.6169 2.69676C17.7506 2.67792 17.8562 2.69205 17.9334 2.73822C18.0107 2.78439 18.054 2.83998 18.0634 2.90499C18.07 2.94833 18.0578 2.99543 18.0276 3.04537C17.9975 3.0953 17.9325 3.14807 17.8326 3.20271C17.7582 3.24417 17.6706 3.27149 17.5707 3.28562L17.3012 3.32331L17.2221 2.75141L17.6187 2.69676H17.6169Z" fill="#4D3A3F"/>
<path d="M19.3382 4.23594L19.8083 4.24348C19.8922 4.24442 19.9525 4.22934 19.9883 4.19825C20.0241 4.16622 20.0429 4.12476 20.0439 4.07388C20.0439 4.02206 20.0279 3.97967 19.9921 3.94669C19.9563 3.91371 19.8969 3.89676 19.813 3.89487H19.7282L19.8168 3.68194L20.6648 3.69607L20.7449 3.90995H20.6601C20.5762 3.90712 20.5159 3.92219 20.4801 3.95423C20.4443 3.98626 20.4255 4.02772 20.4245 4.07859C20.4245 4.13041 20.4405 4.17281 20.4763 4.20579C20.5121 4.23876 20.5715 4.25572 20.6553 4.25761L21.1255 4.26515C21.2093 4.26609 21.2696 4.25101 21.3054 4.21992C21.3412 4.18883 21.3591 4.14643 21.3601 4.09555C21.361 4.03431 21.3356 3.98438 21.2847 3.94669C21.2593 3.92785 21.2056 3.91842 21.1236 3.91654L20.4565 2.19142L19.7028 2.17729C19.619 2.17635 19.5587 2.19142 19.5229 2.22251C19.487 2.2536 19.4682 2.296 19.4673 2.34876C19.4663 2.40153 19.4833 2.44392 19.5191 2.47596C19.5539 2.50893 19.6142 2.52589 19.6981 2.52778L19.9261 2.53155L19.3561 3.88733C19.2694 3.88356 19.2082 3.8977 19.1695 3.93067C19.1309 3.96365 19.1121 4.00511 19.1111 4.05692C19.1102 4.10874 19.1271 4.15208 19.1629 4.18412C19.1978 4.21709 19.2581 4.23405 19.342 4.23594H19.3382ZM20.2559 2.64932L20.5253 3.34464L19.9619 3.33522L20.2559 2.64837V2.64932Z" fill="#4D3A3F"/>
<path d="M21.9431 4.28378C22.0939 4.39307 22.272 4.46279 22.4764 4.49388C22.6517 4.52026 22.8156 4.51461 22.9701 4.47598C23.0851 4.44772 23.1821 4.39872 23.2622 4.33089C23.3178 4.28378 23.3489 4.23761 23.3555 4.1905C23.363 4.14339 23.3517 4.10005 23.3215 4.05954C23.2914 4.01903 23.2546 3.99641 23.2085 3.98888C23.183 3.98511 23.1585 3.98699 23.1369 3.99453C23.1152 4.00207 23.0832 4.02091 23.0417 4.052C22.9748 4.10288 22.9136 4.13397 22.8589 4.14622C22.7647 4.16789 22.6545 4.16883 22.5263 4.14905C22.3115 4.11701 22.1532 4.03599 22.0496 3.90597C21.946 3.77595 21.9064 3.62897 21.9318 3.46314L21.9658 3.23891C21.9865 3.09946 22.0383 2.98452 22.1193 2.89407C22.2013 2.80268 22.288 2.74144 22.3813 2.71035C22.4745 2.67831 22.5725 2.67078 22.6762 2.68585C22.7591 2.6981 22.8401 2.72636 22.9174 2.76876C22.9956 2.81116 23.053 2.86204 23.0917 2.91951C23.1114 2.94872 23.1218 2.98735 23.1218 3.03634C23.1246 3.10889 23.1378 3.16071 23.1623 3.19086C23.1868 3.22101 23.2217 3.23985 23.2678 3.24644C23.3187 3.25398 23.3621 3.24268 23.3997 3.21253C23.4374 3.18238 23.4619 3.1249 23.4742 3.04199L23.5185 2.74898C23.5307 2.66606 23.5241 2.60482 23.4977 2.56525C23.4713 2.52568 23.4327 2.50213 23.3818 2.49459C23.3526 2.48988 23.3244 2.49365 23.297 2.50401C23.2697 2.51437 23.2433 2.53322 23.217 2.55866C23.1491 2.50024 23.0728 2.45313 22.9899 2.41639C22.907 2.37964 22.8147 2.35421 22.7148 2.33913C22.549 2.31369 22.385 2.33254 22.2249 2.39378C22.0637 2.45502 21.93 2.55771 21.8225 2.69998C21.7151 2.84319 21.6482 3.00431 21.6209 3.18332L21.5851 3.41698C21.5587 3.58845 21.5813 3.75428 21.653 3.9135C21.7236 4.07273 21.8207 4.19616 21.9431 4.28378Z" fill="#4D3A3F"/>
<path d="M23.7503 4.67874L25.3256 5.14511L25.4782 4.62974C25.5018 4.54966 25.5037 4.48748 25.4829 4.44414C25.4622 4.4008 25.4273 4.37159 25.3784 4.35746C25.3284 4.34238 25.2832 4.34803 25.2417 4.37253C25.2003 4.39797 25.1683 4.45073 25.1447 4.53082L25.091 4.71171L24.2374 4.45921L24.3825 3.96834L24.6764 4.05502C24.6501 4.14358 24.6416 4.202 24.651 4.23215C24.6689 4.29527 24.7094 4.33579 24.7707 4.35463C24.8291 4.37159 24.8837 4.36028 24.9337 4.31977C24.9581 4.29998 24.9817 4.25382 25.0034 4.18033L25.1174 3.79498C25.1409 3.71489 25.1428 3.65271 25.1221 3.60937C25.1014 3.56603 25.0665 3.53682 25.0175 3.52269C24.9553 3.50385 24.8997 3.51704 24.8498 3.56038C24.8262 3.58016 24.8017 3.63387 24.7754 3.72149L24.4814 3.63481L24.6246 3.15147L25.4047 3.38231L25.3529 3.55661C25.3294 3.63669 25.3275 3.69888 25.3491 3.74127C25.3699 3.78461 25.4057 3.81288 25.4556 3.82795C25.5055 3.84303 25.5508 3.83738 25.5913 3.81194C25.6318 3.7865 25.6638 3.73468 25.6874 3.65459L25.8381 3.14582L24.3373 2.69923C24.2562 2.67567 24.195 2.67379 24.1516 2.69452C24.1083 2.71525 24.0791 2.75105 24.064 2.80098C24.0489 2.85092 24.0546 2.89709 24.0791 2.9376C24.1045 2.97905 24.1573 3.01109 24.2374 3.03559L24.2892 3.05066L23.901 4.35934L23.8492 4.34426C23.7701 4.32071 23.7079 4.31977 23.6645 4.3405C23.6212 4.36122 23.5911 4.39608 23.5769 4.44508C23.5618 4.49501 23.5675 4.54024 23.592 4.58169C23.6174 4.62315 23.6702 4.65518 23.7503 4.67874Z" fill="#4D3A3F"/>
<path d="M26.1915 5.48474L26.6127 5.6939C26.6881 5.73159 26.7484 5.74289 26.7955 5.73065C26.8416 5.71746 26.8765 5.68825 26.8991 5.64208C26.9227 5.59497 26.9255 5.54975 26.9076 5.50452C26.8897 5.4593 26.8435 5.41879 26.7681 5.3811L26.6918 5.34341L26.8624 5.19078L27.6218 5.56765L27.602 5.79566L27.5256 5.75797C27.4503 5.72028 27.39 5.70898 27.3429 5.72122C27.2958 5.73347 27.2618 5.76362 27.2392 5.80979C27.2157 5.8569 27.2128 5.90212 27.2307 5.94735C27.2486 5.99257 27.2948 6.03308 27.3702 6.07077L27.7913 6.27993C27.8667 6.31762 27.927 6.32893 27.9732 6.31574C28.0193 6.30255 28.0533 6.2724 28.0759 6.22717C28.1032 6.17253 28.1013 6.116 28.0712 6.05946C28.0561 6.0312 28.0118 5.99917 27.9383 5.96336L28.0778 4.11953L27.4032 3.78317C27.3278 3.74549 27.2675 3.73418 27.2204 3.74643C27.1733 3.75868 27.1394 3.78977 27.1158 3.83593C27.0922 3.8821 27.0894 3.92827 27.1073 3.97349C27.1252 4.01872 27.1714 4.05923 27.2468 4.09692L27.4512 4.19867L26.3536 5.17853C26.2773 5.13802 26.2151 5.12483 26.167 5.13708C26.119 5.15027 26.0832 5.17947 26.0596 5.22658C26.0361 5.27369 26.0332 5.31892 26.0511 5.36414C26.069 5.40936 26.1152 5.44988 26.1906 5.48757L26.1915 5.48474ZM27.7018 4.44646L27.6462 5.19078L27.1412 4.94016L27.7018 4.44646Z" fill="#4D3A3F"/>
<path d="M28.3134 6.59886C28.336 6.61393 28.3577 6.62241 28.3794 6.62524C28.401 6.62712 28.434 6.62147 28.4802 6.60922C28.5254 6.6959 28.5791 6.77504 28.6413 6.84571C28.7035 6.91637 28.7751 6.97855 28.8542 7.0332C29.0606 7.17358 29.2688 7.23294 29.4789 7.21127C29.6372 7.19431 29.7653 7.11423 29.8624 6.97196C29.9321 6.8702 29.966 6.76374 29.9632 6.6535C29.9603 6.54327 29.9321 6.44434 29.8765 6.35577C29.8209 6.26721 29.7295 6.15792 29.6014 6.02884C29.4732 5.89976 29.3979 5.81685 29.3753 5.78199C29.3404 5.73111 29.3216 5.68024 29.3197 5.62936C29.3178 5.57942 29.3281 5.53608 29.3526 5.50028C29.3884 5.44752 29.4525 5.41831 29.5467 5.41077C29.64 5.40324 29.7389 5.43527 29.8426 5.50593C29.9142 5.55398 29.9688 5.60957 30.0065 5.67081C30.0442 5.73206 30.0649 5.79047 30.0678 5.84417C30.0696 5.87527 30.0593 5.91861 30.0376 5.97419C30.015 6.02884 30.0093 6.07124 30.0188 6.10139C30.0301 6.14096 30.0536 6.17299 30.0894 6.19655C30.1318 6.22481 30.1761 6.23423 30.2232 6.22293C30.2703 6.21162 30.3174 6.17111 30.3645 6.10139L30.5115 5.88469C30.5586 5.81591 30.5784 5.75844 30.5718 5.71039C30.5652 5.66233 30.5407 5.62465 30.4983 5.59544C30.4606 5.57 30.4107 5.56246 30.3485 5.57377C30.3203 5.50499 30.2797 5.44092 30.227 5.38157C30.1752 5.32221 30.112 5.26662 30.0376 5.21669C29.8529 5.09138 29.6673 5.0405 29.4817 5.06594C29.2961 5.09138 29.1557 5.1724 29.0615 5.3109C29.0022 5.39853 28.9701 5.49557 28.9664 5.60204C28.9626 5.70944 28.9861 5.81026 29.0389 5.90636C29.0917 6.00246 29.1868 6.11835 29.3244 6.25496C29.4384 6.36802 29.509 6.44434 29.5373 6.48391C29.5806 6.54327 29.6042 6.59791 29.608 6.64596C29.6117 6.69496 29.6014 6.73641 29.5778 6.77222C29.5411 6.82592 29.4845 6.85324 29.4073 6.85418C29.2839 6.85795 29.1576 6.8165 29.0295 6.72888C28.9466 6.67235 28.8816 6.60639 28.8326 6.52914C28.7836 6.45188 28.7553 6.38969 28.7478 6.34164C28.7449 6.31809 28.7515 6.2804 28.7676 6.23047C28.7836 6.18053 28.7864 6.13908 28.7751 6.10516C28.7638 6.07124 28.7421 6.04297 28.7082 6.02036C28.6639 5.99021 28.6187 5.98079 28.5716 5.9921C28.5245 6.0034 28.4774 6.04392 28.4303 6.11364L28.2984 6.30772C28.2512 6.3765 28.2315 6.43398 28.2381 6.48203C28.2446 6.53008 28.2701 6.56871 28.3144 6.59886H28.3134Z" fill="#4D3A3F"/>
<path d="M30.4729 7.61801C30.4729 7.59352 30.4842 7.55771 30.5078 7.5106C30.5304 7.4635 30.5389 7.42204 30.5323 7.38718C30.5257 7.35232 30.5078 7.32123 30.4767 7.29485C30.4371 7.25904 30.3928 7.24397 30.3448 7.24962C30.2967 7.25433 30.2449 7.28825 30.1893 7.35138L30.0329 7.52662C29.9773 7.5888 29.95 7.64345 29.951 7.6915C29.9519 7.73955 29.9707 7.78195 30.0112 7.81681C30.031 7.83471 30.0518 7.84602 30.0725 7.85167C30.0932 7.85732 30.1271 7.85544 30.1742 7.84884C30.2072 7.94118 30.2506 8.02597 30.3033 8.10417C30.3561 8.18237 30.4183 8.25398 30.4899 8.31805C30.6755 8.48481 30.8743 8.57055 31.0853 8.5762C31.2446 8.57997 31.3821 8.51779 31.4971 8.38965C31.58 8.29732 31.6271 8.19651 31.6393 8.08721C31.6516 7.97792 31.6365 7.87617 31.5922 7.78101C31.5479 7.68585 31.4716 7.56525 31.3623 7.42016C31.2521 7.27506 31.189 7.18367 31.1701 7.14598C31.1419 7.09039 31.1306 7.03763 31.1343 6.9877C31.1381 6.93776 31.155 6.89631 31.1843 6.86427C31.2267 6.81716 31.2945 6.79549 31.3878 6.80115C31.481 6.8068 31.5753 6.85108 31.6685 6.93494C31.7326 6.99241 31.7797 7.05365 31.8089 7.1196C31.8381 7.18555 31.8513 7.24491 31.8466 7.29956C31.8447 7.33065 31.8287 7.3721 31.7995 7.42392C31.7703 7.47574 31.758 7.51626 31.7637 7.54735C31.7703 7.58786 31.7891 7.62272 31.8212 7.65099C31.8589 7.68491 31.9022 7.69904 31.9502 7.69433C31.9983 7.68962 32.0501 7.6557 32.1057 7.59257L32.28 7.39754C32.3356 7.33536 32.3629 7.28071 32.362 7.23266C32.362 7.18461 32.3422 7.14316 32.3045 7.10924C32.2706 7.07909 32.2216 7.06496 32.1585 7.06778C32.1387 6.99618 32.1076 6.92646 32.0633 6.8605C32.019 6.79455 31.9644 6.73143 31.8975 6.67207C31.7307 6.52321 31.5536 6.44877 31.3661 6.44972C31.1786 6.45066 31.0288 6.51284 30.9176 6.63721C30.847 6.71635 30.8027 6.80774 30.7848 6.91327C30.7669 7.01879 30.7772 7.12243 30.8168 7.22513C30.8564 7.32782 30.9355 7.45502 31.0542 7.60859C31.1522 7.73578 31.2125 7.82058 31.2351 7.86392C31.27 7.92893 31.286 7.98546 31.2841 8.03445C31.2822 8.08345 31.2662 8.12396 31.237 8.15599C31.1937 8.20404 31.1343 8.22383 31.0571 8.21441C30.9346 8.20216 30.8149 8.14375 30.699 8.04011C30.6246 7.97321 30.5681 7.89878 30.5294 7.81587C30.4908 7.73296 30.471 7.667 30.4701 7.61895L30.4729 7.61801Z" fill="#4D3A3F"/>
<path d="M31.7033 9.13461C31.6949 9.38805 31.7674 9.60381 31.9181 9.78C32.0868 9.97597 32.3129 10.0824 32.5975 10.0975C32.882 10.1126 33.142 10.0193 33.3766 9.81769C33.6122 9.61512 33.745 9.37204 33.7723 9.08844C33.8006 8.80485 33.7299 8.56459 33.5613 8.36862C33.4096 8.19244 33.208 8.0888 32.9564 8.0577C32.6436 8.02096 32.3591 8.11235 32.1028 8.33282C31.8465 8.55329 31.7128 8.81992 31.7024 9.13367L31.7033 9.13461ZM32.3308 8.59851C32.491 8.46096 32.6653 8.395 32.8556 8.4016C33.045 8.40819 33.1929 8.47226 33.2984 8.59569C33.4049 8.72005 33.4473 8.87551 33.4247 9.063C33.403 9.2505 33.3116 9.41349 33.1505 9.55199C32.9894 9.69049 32.8151 9.7555 32.6257 9.74891C32.4373 9.74137 32.2894 9.67636 32.1829 9.55199C32.0774 9.42857 32.035 9.27311 32.0576 9.08562C32.0793 8.89812 32.1707 8.73513 32.3308 8.59757V8.59851Z" fill="#4D3A3F"/>
<path d="M33.4349 10.1503C33.2899 10.2445 33.1806 10.3717 33.109 10.531C33.0374 10.6902 33.0091 10.8447 33.0251 10.9936C33.0439 11.1792 33.1099 11.3582 33.223 11.5306C33.32 11.6795 33.4331 11.7982 33.565 11.8868C33.663 11.9537 33.7638 11.9942 33.8674 12.0083C33.939 12.0187 33.9946 12.0102 34.0351 11.9847C34.0747 11.9584 34.1001 11.9216 34.1105 11.8726C34.1209 11.8236 34.1133 11.7803 34.0879 11.7407C34.0737 11.719 34.0568 11.7021 34.0361 11.6908C34.0163 11.6795 33.9805 11.6682 33.9305 11.6578C33.8476 11.6408 33.7836 11.6164 33.7383 11.5843C33.6601 11.5287 33.5857 11.4468 33.515 11.3375C33.3963 11.1556 33.3511 10.9832 33.3794 10.8193C33.4067 10.6553 33.4915 10.5281 33.6319 10.4367L33.8212 10.3133C33.939 10.237 34.0596 10.1984 34.1812 10.1984C34.3027 10.1984 34.4073 10.2229 34.493 10.2719C34.5787 10.3199 34.6504 10.3887 34.7069 10.4763C34.7531 10.547 34.7851 10.6252 34.8049 10.7119C34.8247 10.7985 34.8256 10.8749 34.8086 10.9418C34.8002 10.9757 34.7775 11.0096 34.7417 11.0416C34.689 11.0925 34.6598 11.1358 34.6532 11.1745C34.6466 11.2122 34.656 11.2508 34.6814 11.2904C34.7088 11.3328 34.7474 11.3582 34.7945 11.3657C34.8416 11.3733 34.901 11.3544 34.9716 11.3083L35.2194 11.1471C35.2901 11.101 35.3306 11.0548 35.3429 11.0086C35.3551 10.9625 35.3466 10.9182 35.3184 10.8749C35.3023 10.8504 35.2816 10.8315 35.2552 10.8174C35.2288 10.8033 35.1978 10.7967 35.161 10.7948C35.1591 10.7053 35.1441 10.6167 35.1158 10.531C35.0875 10.4452 35.0451 10.3595 34.9905 10.2747C34.8991 10.1343 34.7766 10.0241 34.624 9.94493C34.4713 9.86579 34.3055 9.83376 34.1274 9.84883C33.9494 9.86391 33.7845 9.92044 33.6328 10.0194L33.4349 10.1484V10.1503Z" fill="#4D3A3F"/>
<path d="M35.669 12.2759L34.4394 12.8686L34.2868 12.5511C34.25 12.4757 34.2095 12.4286 34.1653 12.4107C34.121 12.3928 34.0757 12.3947 34.0296 12.4163C33.9825 12.4389 33.9523 12.4738 33.9382 12.52C33.925 12.5661 33.9363 12.6274 33.9721 12.7028L34.4291 13.6525C34.4658 13.7278 34.5063 13.7749 34.5506 13.7928C34.5949 13.8107 34.6411 13.8089 34.6863 13.7872C34.7334 13.7646 34.7635 13.7297 34.7767 13.6836C34.7899 13.6374 34.7796 13.5761 34.7428 13.5008L34.5902 13.1833L35.8197 12.5906L35.9723 12.9081C36.0091 12.9835 36.0496 13.0306 36.0939 13.0485C36.1382 13.0664 36.1843 13.0645 36.2314 13.0419C36.2785 13.0193 36.3087 12.9854 36.3219 12.9392C36.3351 12.8931 36.3238 12.8328 36.287 12.7565L35.831 11.8067C35.7943 11.7314 35.7538 11.6843 35.7095 11.6664C35.6652 11.6485 35.619 11.6503 35.5719 11.673C35.5248 11.6956 35.4947 11.7304 35.4815 11.7766C35.4683 11.8228 35.4786 11.884 35.5154 11.9594L35.668 12.2769L35.669 12.2759Z" fill="#4D3A3F"/>
<path d="M36.5035 14.2612L35.0355 14.1633C35.011 14.0803 34.9771 14.0266 34.9347 14.0012C34.8923 13.9758 34.8452 13.971 34.7962 13.9871C34.7463 14.0031 34.7124 14.0332 34.6926 14.0775C34.6728 14.1218 34.6756 14.183 34.702 14.2631L34.8471 14.7097C34.8735 14.7898 34.9074 14.8416 34.9489 14.8652C34.9903 14.8887 35.0355 14.8934 35.0845 14.8774C35.1345 14.8614 35.1684 14.8313 35.1882 14.787C35.208 14.7427 35.2051 14.6814 35.1788 14.6014L35.1524 14.5203L35.3813 14.5354L35.6442 15.341L35.468 15.4861L35.4416 15.405C35.4152 15.325 35.3813 15.2731 35.3399 15.2496C35.2975 15.226 35.2532 15.2213 35.2042 15.2373C35.1543 15.2533 35.1203 15.2835 35.1006 15.3278C35.0808 15.3721 35.0845 15.4333 35.11 15.5134L35.256 15.96C35.2824 16.0401 35.3154 16.0919 35.3578 16.1145C35.3992 16.138 35.4444 16.1418 35.4934 16.1258C35.5519 16.107 35.5905 16.0664 35.6103 16.0052C35.6197 15.9751 35.6112 15.9204 35.5858 15.8431L37 14.6513L36.7682 13.9343C36.7418 13.8542 36.7079 13.8024 36.6664 13.7788C36.625 13.7553 36.5788 13.7515 36.5289 13.7675C36.479 13.7836 36.445 13.8137 36.4253 13.858C36.4055 13.9023 36.4083 13.9635 36.4347 14.0436L36.5053 14.2603L36.5035 14.2612ZM35.9306 15.096L35.7554 14.5608L36.4997 14.6155L35.9297 15.0969L35.9306 15.096Z" fill="#4D3A3F"/>
<path d="M36.5035 16.0032C36.4743 16.0418 36.4649 16.0861 36.4743 16.136C36.4838 16.1869 36.5092 16.2255 36.5506 16.251C36.5921 16.2764 36.6533 16.2811 36.7363 16.2651L37.0613 16.2039L37.131 16.5751L35.7894 16.8276L35.746 16.5986C35.73 16.5157 35.7036 16.4601 35.665 16.4309C35.6264 16.4017 35.5821 16.3923 35.5322 16.4017C35.4813 16.4111 35.4427 16.4366 35.4172 16.478C35.3918 16.5195 35.3871 16.5807 35.4031 16.6636L35.5538 17.4664C35.5689 17.5493 35.5962 17.6049 35.6349 17.6341C35.6735 17.6633 35.7178 17.6727 35.7677 17.6633C35.8186 17.6539 35.8572 17.6284 35.8826 17.587C35.9081 17.5455 35.9128 17.4843 35.8968 17.4014L35.8534 17.1705L37.1951 16.918L37.2658 17.294L36.9407 17.3552C36.8578 17.3712 36.8022 17.3976 36.773 17.4362C36.7438 17.4749 36.7344 17.5191 36.7438 17.5691C36.7532 17.6199 36.7787 17.6586 36.8201 17.684C36.8616 17.7095 36.9228 17.7142 37.0057 17.6981L37.6728 17.5728L37.3402 15.7959L36.6712 15.9221C36.5883 15.9382 36.5327 15.9645 36.5035 16.0032Z" fill="#4D3A3F"/>
<path d="M37.5335 17.9078C37.4817 17.9116 37.4402 17.9323 37.411 17.9709C37.3818 18.0086 37.3696 18.0698 37.3762 18.1537L37.4026 18.5051L36.0411 18.6069L36.0147 18.2555C36.0081 18.1716 35.9874 18.1132 35.9525 18.0802C35.9177 18.0472 35.8743 18.0322 35.8235 18.0359C35.7716 18.0397 35.7311 18.0604 35.701 18.0991C35.6708 18.1377 35.6595 18.198 35.6661 18.2818L35.7453 19.3324C35.7519 19.4162 35.7726 19.4746 35.8065 19.5076C35.8414 19.5406 35.8847 19.5557 35.9356 19.5519C35.9874 19.5481 36.0289 19.5274 36.0581 19.4888C36.0873 19.4511 36.0995 19.3898 36.0929 19.306L36.0665 18.9545L37.428 18.8528L37.4544 19.2042C37.461 19.2881 37.4817 19.3465 37.5166 19.3795C37.5514 19.4124 37.5948 19.4275 37.6466 19.4238C37.6984 19.42 37.7389 19.3993 37.7681 19.3606C37.7973 19.3229 37.8086 19.2617 37.802 19.1778L37.7248 18.1273C37.7182 18.0435 37.6975 17.985 37.6626 17.9521C37.6277 17.9191 37.5844 17.904 37.5326 17.9078H37.5335Z" fill="#4D3A3F"/>
<path d="M36.8088 19.7605C36.4706 19.7464 36.1907 19.8501 35.9693 20.0715C35.7903 20.2514 35.6952 20.4568 35.6857 20.6895C35.6744 20.9477 35.7677 21.1804 35.9646 21.3858C36.1615 21.5912 36.415 21.7005 36.7249 21.7146C37.0359 21.7278 37.2978 21.6411 37.5126 21.4527C37.7265 21.2652 37.8395 21.0419 37.8508 20.7828C37.8612 20.5501 37.784 20.3372 37.621 20.1421C37.4174 19.9019 37.147 19.7737 36.8097 19.7596L36.8088 19.7605ZM37.2742 21.1964C37.1301 21.3189 36.952 21.3754 36.74 21.366C36.528 21.3566 36.3556 21.285 36.2228 21.1512C36.0899 21.0174 36.0268 20.8685 36.0343 20.7055C36.0409 20.5435 36.1172 20.4012 36.2614 20.2787C36.4056 20.1563 36.5836 20.0997 36.7947 20.1092C37.0057 20.1186 37.1781 20.1902 37.3119 20.324C37.4457 20.4578 37.5098 20.6066 37.5022 20.7687C37.4956 20.9317 37.4193 21.0749 37.2752 21.1964H37.2742Z" fill="#4D3A3F"/>
<path d="M37.5475 22.1145C37.4966 22.1051 37.4514 22.1145 37.4128 22.1447C37.3751 22.1739 37.3477 22.2304 37.3327 22.3124L37.3233 22.3661L35.9797 22.122C35.9929 22.0495 35.9863 21.993 35.9599 21.9524C35.9335 21.9119 35.8959 21.8874 35.8469 21.878C35.796 21.8686 35.7508 21.878 35.7121 21.9082C35.6735 21.9374 35.6471 21.9939 35.6321 22.0759L35.5501 22.5262C35.535 22.6091 35.5397 22.6704 35.5652 22.7118C35.5906 22.7524 35.6283 22.7778 35.6792 22.7872C35.73 22.7966 35.7753 22.7872 35.8139 22.7571C35.8525 22.7279 35.8789 22.6713 35.894 22.5894L35.9166 22.465L36.9549 22.6534L35.4125 23.2847L35.3503 23.6248L37.0368 23.931C37.0236 24.0026 37.0302 24.0582 37.0566 24.0987C37.083 24.1392 37.1207 24.1637 37.1706 24.1732C37.2215 24.1826 37.2667 24.1732 37.3044 24.143C37.3421 24.1138 37.3685 24.0573 37.3836 23.9744L37.4665 23.524C37.4815 23.4411 37.4768 23.3798 37.4504 23.3384C37.425 23.2979 37.3864 23.2724 37.3355 23.263C37.2837 23.2536 37.2394 23.263 37.2008 23.2932C37.1631 23.3224 37.1358 23.3789 37.1207 23.4609L37.0981 23.5852L36.0645 23.3977L37.6003 22.7703L37.6737 22.3736C37.6888 22.2907 37.6841 22.2294 37.6577 22.188C37.6323 22.1475 37.5937 22.122 37.5428 22.1126L37.5475 22.1145Z" fill="#4D3A3F"/>
<path d="M19.9995 0C8.97232 0 0 8.97232 0 19.9995C0 31.0267 8.97232 39.9991 19.9995 39.9991C31.0267 39.9991 40 31.0267 40 19.9995C40 8.97232 31.0277 0 19.9995 0ZM19.9995 39.4347C9.28324 39.4347 0.565304 30.7168 0.565304 20.0005C0.565304 9.28418 9.28324 0.565304 19.9995 0.565304C30.7158 0.565304 39.4347 9.28324 39.4347 19.9995C39.4347 30.7158 30.7158 39.4338 19.9995 39.4338V39.4347Z" fill="#4D3A3F"/>
<path d="M19.9995 5.65869C12.0919 5.65869 5.65869 12.0919 5.65869 20.0005C5.65869 27.9091 12.0919 34.3413 19.9995 34.3413C27.9072 34.3413 34.3404 27.9081 34.3404 19.9995C34.3404 12.0909 27.9081 5.65869 19.9995 5.65869ZM32.3674 26.0634C32.0254 25.759 31.414 25.3897 30.6583 25.1494C29.2903 24.716 26.1557 25.2079 24.9478 24.994C24.9035 24.9667 24.8498 24.945 24.8056 24.9196C24.6963 24.8593 24.5653 24.6492 24.4946 24.5483C24.2176 24.1507 24.0396 23.7937 23.9312 23.3245C23.8464 22.9608 23.8163 22.6913 23.8624 22.435C24.5832 21.7887 26.1284 20.8918 26.6013 19.7979C27.1459 18.5382 28.5507 16.4909 27.5482 13.9234C26.9857 12.4829 26.4186 11.2646 24.6388 10.5194C20.9624 8.97986 18.7285 8.26757 16.5238 10.5024C14.811 12.2388 15.4705 11.5397 14.2984 11.9976C13.1348 12.4527 12.9539 13.588 13.6191 15.0107C13.9225 15.6589 14.8015 15.8822 15.4158 15.5675C15.9887 15.2745 15.8361 15.3056 16.5333 14.8157L17.4481 14.4153C17.9022 14.0959 17.9107 15.0286 18.2113 15.2651C19.3023 16.1234 21.0039 16.5163 22.2485 16.0122C22.1043 17.5923 22.3653 17.6073 22.4407 17.841C22.4624 17.907 22.6103 18.2301 22.6706 18.264C23.0192 18.4628 22.9966 19.1111 23.332 19.1421C23.8003 17.8391 23.8427 17.368 24.8432 17.4217C25.7901 17.4726 25.629 18.0916 25.5838 18.9641C25.5593 19.4314 25.1673 19.9251 25.0251 20.3604C24.6953 21.3685 24.0509 21.2969 24.0509 21.2969C24.0509 21.2969 23.625 21.7991 23.7004 22.5924C23.7004 22.5924 23.7004 22.5924 23.7013 22.5914C23.6627 22.8015 23.6665 23.0211 23.706 23.2189C23.7918 23.6354 23.8935 24.0151 24.1093 24.3835C24.1677 24.4833 24.2836 24.6774 24.342 24.7773C24.3995 24.8753 24.5276 25.0157 24.6821 25.0929C24.6821 25.0929 24.6821 25.0929 24.6831 25.0929C24.7198 25.1118 24.7584 25.1259 24.799 25.1353C24.913 25.1975 24.9591 25.3021 24.9441 25.4312C24.6171 25.6431 24.1573 26.0417 23.1134 26.5637C21.5607 27.3409 20.0476 27.585 18.8567 27.5586C16.7679 27.372 16.0829 26.7248 15.7626 26.7003C15.8323 26.6852 15.9011 26.6692 15.9727 26.656C16.6831 26.5175 18.5363 26.5297 18.7323 25.5075C18.8133 25.0854 18.6456 24.5003 18.4939 24.3543L18.2942 24.4617C18.4299 24.5728 18.526 24.8027 18.5627 24.945C18.7954 25.8533 17.8674 26.2716 17.2116 26.3253C16.391 26.3922 15.6533 26.5542 14.9919 26.7738C14.3653 26.9198 13.6879 27.2561 13.0614 27.6801C11.5624 28.6185 10.7634 29.736 10.5693 30.0318C7.89635 27.5171 6.224 23.951 6.224 20.0005C6.224 12.4047 12.4037 6.22494 19.9995 6.22494C27.5953 6.22494 33.776 12.4047 33.776 20.0014C33.776 22.1759 33.2691 24.2346 32.3674 26.0652V26.0634Z" fill="#4D3A3F"/>
<path d="M15.347 19.6803C15.5854 19.8018 15.8925 19.8122 16.1102 19.6567C16.3382 19.7528 16.6265 19.7321 16.8149 19.5719C17.0486 19.3741 17.0467 19.2648 16.7612 19.4664C16.6001 19.5804 16.4946 19.4965 16.2298 19.4749C15.934 19.4504 16.1403 19.4466 15.9943 19.3675C15.9114 19.3232 15.8944 19.4899 15.5873 19.489C15.3885 19.489 15.2933 19.3835 15.1133 19.2535C15.0691 19.2214 14.9862 19.1564 14.9683 19.0302C14.9419 18.8493 15.1237 18.7861 15.1529 18.7409L15.4742 18.4988C15.5665 18.3951 15.6476 18.17 15.6287 18.1257C15.6023 18.1483 15.575 18.169 15.5486 18.1907C15.5609 18.1709 15.5722 18.1502 15.5807 18.1285C15.6815 17.8873 15.6692 17.6084 15.5486 17.3719C15.6636 17.3766 15.7371 17.4841 15.7879 17.5773C15.8002 17.599 15.8124 17.6226 15.8106 17.6471C15.8087 17.6697 15.7955 17.6885 15.7832 17.7083C15.7154 17.8157 15.6532 18.0805 15.7314 18.1841C15.8586 18.0569 15.9764 17.7827 16.0414 17.6216C15.9198 17.5415 15.8775 17.3955 15.7748 17.2966C15.6589 17.1844 15.4751 17.1458 15.3084 17.1656C15.1435 17.1844 15.1416 17.2033 15.0031 17.2777C14.9909 17.3116 14.9993 17.355 15.0191 17.3889C15.1322 17.5839 15.0728 18.039 15.2566 18.2152C15.3046 18.2613 15.38 18.2858 15.445 18.2698C15.2226 18.4347 14.989 18.5864 14.8109 18.7984C14.7836 18.8314 14.7563 18.8662 14.7459 18.9077C14.728 18.9774 14.7619 19.0481 14.7977 19.1112C14.9296 19.3439 15.1077 19.5606 15.3461 19.6821L15.347 19.6803Z" fill="#4D3A3F"/>
<path d="M17.8465 16.8452C18.1574 16.8339 19.2419 17.4049 19.5057 17.5594C19.6056 17.6178 19.9758 17.7686 19.2956 17.1166C19.1929 17.0186 18.9036 16.7124 18.7812 16.6408C18.4175 16.4278 17.9897 16.4429 17.8305 16.4872C17.7156 16.5192 17.0099 16.7077 17.2134 17.0949C17.4461 16.898 17.5243 16.8565 17.8465 16.8452Z" fill="#4D3A3F"/>
<path d="M19.0892 17.8052C18.7868 17.6224 18.4504 17.434 18.1028 17.4915C17.952 17.5169 17.8097 17.6017 17.6731 17.6714C17.5657 17.7261 17.3622 17.728 17.3688 17.8297L17.3811 17.8712C17.5205 17.9334 17.7513 17.8401 17.9954 17.7779C17.8785 17.9155 17.7608 18.0483 17.7796 18.2235C17.7937 18.3573 17.854 18.5853 17.9548 18.6626C18.0453 18.7323 18.1461 18.7907 18.2563 18.8096C18.4806 18.8473 18.6916 18.8623 18.8386 18.3366C18.881 18.1849 18.8659 18.0153 18.8 17.8787C19.0308 18.0257 19.1853 18.2791 19.0072 18.6259C19.1816 18.6193 19.4275 18.2537 19.3747 18.0869C19.3332 17.956 19.207 17.874 19.0902 17.8033L19.0892 17.8052Z" fill="#4D3A3F"/>
<path d="M14.94 16.9553L15.3659 16.7961C15.8596 16.7622 15.7842 16.7763 15.8756 16.9271C15.917 16.9949 15.9868 17.172 16.0659 17.1626C16.1177 17.1014 16.1196 17.01 16.0923 16.9346C16.065 16.8592 16.0122 16.7961 15.9613 16.7349C15.8558 16.6086 15.7371 16.4748 15.575 16.4419C15.4214 16.4108 15.2669 16.4786 15.1247 16.5446C15.0389 16.5851 14.9485 16.6284 14.8976 16.7076C14.8467 16.7867 14.8561 16.9129 14.9409 16.9553H14.94Z" fill="#4D3A3F"/>
<path d="M15.0005 17.2794C15.0005 17.2794 15.0033 17.2775 15.0052 17.2766C15.0099 17.2634 15.0174 17.2511 15.0297 17.2417L15.0014 17.2794H15.0005Z" fill="#4D3A3F"/>
<path d="M35.4615 25.0084C35.4851 24.9339 35.4446 24.8548 35.3711 24.8303C35.2967 24.8058 35.2175 24.8473 35.193 24.9207C34.2292 27.8971 32.4221 30.5088 29.9658 32.4742C29.9046 32.5232 29.8952 32.6117 29.9442 32.673C29.9724 32.7078 30.0129 32.7257 30.0544 32.7257C30.0855 32.7257 30.1166 32.7154 30.143 32.6946C32.6426 30.6953 34.4826 28.0375 35.4634 25.0084H35.4615Z" fill="#4D3A3F"/>
<path d="M10.068 32.501C7.6212 30.5545 5.81223 27.9644 4.83708 25.0117C4.81258 24.9372 4.7325 24.8967 4.65901 24.9222C4.58457 24.9467 4.545 25.0267 4.5695 25.1002C5.56255 28.1058 7.40356 30.741 9.89278 32.7215C9.91916 32.7422 9.95026 32.7526 9.9804 32.7526C10.0219 32.7526 10.0633 32.7347 10.0906 32.6989C10.1396 32.6376 10.1293 32.5491 10.068 32.5001V32.501Z" fill="#4D3A3F"/>
<path d="M36.6438 25.2619C36.5694 25.2374 36.4903 25.2789 36.4658 25.3524C35.4181 28.5765 33.4574 31.4049 30.7939 33.5323C30.7326 33.5813 30.7232 33.6699 30.7713 33.7311C30.7995 33.766 30.8401 33.7839 30.8815 33.7839C30.9126 33.7839 30.9437 33.7735 30.9701 33.7528C33.676 31.5905 35.6696 28.716 36.7334 25.44C36.7579 25.3656 36.7173 25.2864 36.6429 25.2619H36.6438Z" fill="#4D3A3F"/>
<path d="M9.26892 33.5827C6.56017 31.4393 4.57218 28.5788 3.51883 25.3085C3.49528 25.2341 3.41519 25.1936 3.34076 25.2171C3.26633 25.2407 3.22582 25.3208 3.24937 25.3952C4.31874 28.7192 6.3397 31.6268 9.09274 33.8051C9.11912 33.8258 9.14927 33.8352 9.18036 33.8352C9.22181 33.8352 9.26327 33.8164 9.29153 33.7815C9.33959 33.7203 9.32922 33.6317 9.26798 33.5827H9.26892Z" fill="#4D3A3F"/>
<path d="M12.7446 24.5157C12.7606 25.0867 12.9887 25.667 13.4644 26.0731C13.9412 26.4782 14.6827 26.6789 15.3252 26.498L15.2075 26.5291C15.7351 26.5885 16.2646 26.3671 16.6415 26.0505C17.0193 25.7339 17.2718 25.3288 17.5196 24.9312C17.5931 24.8125 17.6524 24.6288 17.6948 24.4083C17.9831 24.4196 18.2196 24.3894 18.6502 24.1793C18.7095 24.1501 18.8282 24.0578 18.7821 24.0456C18.4994 23.973 18.2224 24.1699 17.7325 24.1765C17.8145 23.5528 17.7834 22.7529 17.6128 22.2818C17.5733 22.1716 17.512 22.067 17.448 21.969C17.4677 21.953 17.4866 21.937 17.5035 21.9228C17.5723 21.9897 17.6515 22.0463 17.7438 22.0887C17.7919 22.1113 17.8512 22.083 17.8559 22.0368C17.8644 21.9445 17.8578 21.8512 17.7975 21.7759C17.7636 21.7344 17.7165 21.7024 17.6722 21.6684C17.3641 21.4348 17.2718 20.7771 17.1936 20.7319C17.0956 20.6754 17.138 20.926 17.1107 21.0231C17.1031 21.0513 17.0928 21.0824 17.0645 21.0975C17.0428 21.1097 17.0146 21.1097 16.9882 21.1069C16.6905 21.0796 16.4398 21.0287 16.1553 20.9449C15.8802 20.8638 15.1745 20.8977 15.0869 20.8638C14.8532 20.7743 15.2046 19.8755 15.1114 19.8755L14.8871 20.535C14.8231 20.9882 15.0511 20.9439 15.1886 20.9505C15.2037 20.9505 15.2273 20.9533 15.2546 20.9552C15.1425 21.0278 13.5285 22.0736 13.162 22.8509C12.9114 23.3813 12.7305 23.9438 12.7456 24.5148L12.7446 24.5157ZM15.7351 22.3543C15.7351 22.2837 15.7944 22.2422 15.8632 22.2262C15.9508 22.2064 15.9914 22.2837 15.9914 22.3543C15.9914 22.3986 15.9584 22.4382 15.916 22.4608C15.8434 22.4542 15.786 22.4335 15.786 22.4335L15.7502 22.4269C15.7407 22.4062 15.736 22.3817 15.736 22.3543H15.7351ZM15.8896 23.9617C15.8189 23.9617 15.7869 23.9042 15.7869 23.8336C15.7869 23.7629 15.8463 23.7214 15.915 23.7054C16.0027 23.6856 16.0432 23.7629 16.0432 23.8336C16.0432 23.9042 15.9603 23.9617 15.8896 23.9617ZM17.2002 21.4046C17.2558 21.578 17.3349 21.7353 17.4461 21.8635L17.3952 21.8616C17.3952 21.8616 17.3914 21.8663 17.3839 21.8748C17.2774 21.7231 17.1738 21.5874 17.1408 21.4706C17.137 21.4583 17.1323 21.448 17.1257 21.4376C17.1785 21.4263 17.1945 21.3849 17.2011 21.4037L17.2002 21.4046ZM15.2056 23.2494C15.2056 23.3201 15.1227 23.3775 15.052 23.3775C14.9813 23.3775 14.9493 23.3201 14.9493 23.2494C14.9493 23.1788 15.0087 23.1373 15.0775 23.1213C15.1651 23.1015 15.2056 23.1788 15.2056 23.2494ZM14.8702 22.0971C14.9578 22.0773 14.9983 22.1546 14.9983 22.2253C14.9983 22.2959 14.9154 22.3534 14.8447 22.3534C14.7741 22.3534 14.742 22.2959 14.742 22.2253C14.742 22.1546 14.8014 22.1132 14.8702 22.0971ZM14.3906 23.9645C14.4782 23.9447 14.5187 24.022 14.5187 24.0927C14.5187 24.1633 14.4358 24.2208 14.3652 24.2208C14.2945 24.2208 14.2625 24.1633 14.2625 24.0927C14.2625 24.022 14.3218 23.9805 14.3906 23.9645ZM14.0298 22.8631C14.1174 22.8433 14.1579 22.9206 14.1579 22.9913C14.1579 23.0619 14.075 23.1194 14.0043 23.1194C13.9337 23.1194 13.9016 23.0619 13.9016 22.9913C13.9016 22.9206 13.961 22.8791 14.0298 22.8631Z" fill="#4D3A3F"/>
</g>
<defs>
<clipPath id="clip0_491_494">
<rect width="40" height="40" fill="white"/>
</clipPath>
</defs>
</svg>
