<svg width="246" height="121" viewBox="0 0 246 121" fill="none" xmlns="http://www.w3.org/2000/svg">
<path d="M43.5779 23.68H31.0979C29.9279 23.68 27.7179 23.81 27.7179 25.5C27.7179 26.28 28.3679 27.19 28.7579 27.84C30.4479 30.7 40.5879 49.16 40.5879 51.11C40.5879 52.8 38.6379 53.97 37.2079 54.75C36.4279 55.14 35.2579 55.66 35.2579 56.83C35.2579 57.87 36.6879 57.87 37.4679 57.87H43.5779C45.5279 57.87 47.2179 56.31 47.2179 54.23V27.32C47.2179 25.24 45.6579 23.68 43.5779 23.68ZM85.1779 23.68H71.5279C69.5779 23.68 67.8879 25.24 67.8879 27.32V54.23C67.8879 56.31 69.5779 57.87 71.5279 57.87H78.0279C78.9379 57.87 80.6279 57.87 80.6279 56.7C80.6279 55.79 79.5879 55.14 77.8979 54.1L76.7279 53.32C75.8179 52.67 74.7779 51.89 74.7779 50.59C74.7779 49.68 76.2079 47.86 76.8579 46.95C78.9379 43.83 88.4279 28.62 88.4279 25.63C88.4279 23.81 86.6079 23.68 85.1779 23.68ZM25.3779 5.73999H89.7279C95.1879 5.73999 100.648 5.34999 106.108 5.34999C110.008 5.34999 110.008 7.3 110.008 12.76V18.22C110.008 22.77 109.488 23.94 105.978 23.94C104.288 23.94 102.598 23.81 101.038 23.81C100.258 23.81 99.2179 23.94 99.2179 24.85C99.2179 25.37 99.9979 25.63 100.258 25.76C102.208 26.54 109.748 29.92 109.748 32C109.748 33.17 108.578 33.43 107.668 33.43C105.328 33.56 105.588 33.69 101.558 40.97C99.8679 44.09 95.3179 51.37 93.1079 54.23C92.7179 54.88 92.0679 55.53 92.0679 56.44C92.0679 57.87 93.7579 57.87 95.8379 57.87C100.908 57.87 105.978 57.61 110.918 57.61C114.558 57.61 114.948 59.04 114.948 63.46V70.48C114.948 75.03 114.558 76.46 110.918 76.46C105.588 76.46 100.128 76.07 94.6679 76.07H71.5279C69.5779 76.07 67.8879 77.63 67.8879 79.71V95.31C67.8879 101.94 68.2779 108.57 68.2779 115.2C68.2779 118.58 66.7179 118.97 62.1679 118.97H52.6779C48.2579 118.97 46.6979 118.58 46.6979 115.2C46.6979 108.57 47.2179 101.94 47.2179 95.31V79.71C47.2179 77.63 45.5279 76.07 43.5779 76.07H20.5679C15.2379 76.07 9.77792 76.46 4.31792 76.46C0.677915 76.46 0.417916 74.9 0.417916 70.61V64.11C0.417916 58.52 0.547915 57.48 5.48792 57.48C8.34792 57.48 12.7679 57.87 19.7879 57.87C21.7379 57.87 23.6879 57.87 23.6879 55.92C23.6879 53.32 13.5479 36.29 11.5979 33.17C11.0779 32.39 10.2979 31.35 10.2979 30.44C10.2979 28.49 14.3279 26.67 16.0179 25.76C16.4079 25.5 17.0579 25.11 17.0579 24.59C17.0579 24.2 16.4079 23.81 15.6279 23.81C13.4179 23.81 11.3379 23.94 9.12792 23.94C5.48792 23.94 5.09792 22.51 5.09792 18.09V11.07C5.09792 6.78 5.35792 5.34999 8.99792 5.34999C14.4579 5.34999 19.9179 5.73999 25.3779 5.73999ZM207.898 22.51H215.958C216.998 22.51 218.428 22.38 218.428 21.08C218.428 19.78 216.998 18.22 215.438 16.14C213.098 13.02 210.108 10.29 210.108 8.99C210.108 6.90999 220.638 0.539991 223.238 0.539991C224.408 0.539991 224.798 1.19 226.098 2.74999C227.788 4.83 229.348 6.78 230.908 8.85999C231.948 10.16 236.238 15.36 236.238 16.53C236.238 17.7 234.938 18.87 234.158 19.52C233.898 19.78 232.988 20.69 232.988 21.21C232.988 21.86 233.768 22.38 234.808 22.38C237.278 22.38 239.748 22.25 242.218 22.25C245.078 22.25 245.338 24.07 245.338 27.71V35.12C245.338 39.41 245.078 40.84 241.828 40.84C236.628 40.84 231.298 40.45 226.098 40.45H209.588C207.638 40.45 205.948 42.14 205.948 44.09C205.948 44.48 206.208 46.17 206.338 46.69C206.988 51.76 208.288 57.87 209.328 62.94C209.588 64.11 209.848 65.67 210.888 65.67C212.838 65.67 218.038 53.84 219.598 49.03C220.118 47.6 220.638 46.17 222.458 46.17C223.498 46.17 228.438 48.51 232.598 50.33C234.678 51.24 236.628 52.15 237.538 52.54C238.708 53.06 240.918 53.97 240.918 55.66C240.918 56.7 239.488 57.22 238.578 57.48C237.148 57.74 236.628 58 235.588 60.08C231.298 68.27 226.228 76.2 220.638 83.74C219.858 84.78 218.688 86.21 218.688 87.64C218.688 89.46 223.498 96.87 225.968 96.87C228.828 96.87 229.608 90.37 229.998 86.86C229.998 86.21 230.128 85.69 230.128 85.3C230.258 83.87 230.388 82.96 232.078 82.96C234.678 82.96 238.188 84 240.528 85.04C243.908 86.6 245.988 88.16 245.988 91.93C245.988 102.07 240.138 119.23 227.918 119.23C219.988 119.23 212.578 112.47 208.158 106.23C207.248 105.06 206.338 103.37 204.648 103.37C203.608 103.37 202.958 104.15 202.308 104.8C199.448 107.66 186.058 120.14 182.678 120.14C178.648 120.14 169.288 112.21 169.288 109.35C169.288 108.18 170.328 107.27 171.368 106.62C175.398 104.15 196.198 87.9 196.198 83.87C196.198 83.09 195.548 81.4 195.158 80.49C191.648 70.35 188.658 56.7 187.488 45C187.228 42.66 186.318 40.45 183.718 40.45H158.758C156.678 40.45 155.118 42.14 155.118 44.09V48.25C155.118 50.2 156.678 51.89 158.758 51.89H163.698C167.598 51.89 171.498 51.63 175.398 51.63C182.028 51.63 182.548 54.49 182.548 60.34C182.548 66.19 181.638 82.83 180.858 88.42C179.298 99.34 173.578 103.63 162.788 103.63C157.068 103.63 153.688 102.59 153.688 90.63C153.688 88.68 153.688 85.43 155.898 85.43C157.458 85.43 159.278 86.08 160.838 86.08C163.178 86.08 163.698 84.65 164.088 82.44C164.608 79.06 164.998 74.51 164.998 71.13C164.998 68.66 163.568 68.66 161.228 68.66H158.238C156.288 68.66 154.728 69.83 154.598 72.43C154.338 80.36 152.778 90.63 151.088 98.43C149.918 103.89 148.098 110.52 145.628 115.59C144.718 117.41 143.938 118.19 141.728 118.19C136.658 118.19 127.038 112.6 127.038 108.18C127.038 107.53 127.428 106.88 127.688 106.36C129.508 102.72 131.718 93.36 132.628 89.2C135.098 77.24 136.268 65.28 136.268 53.06V41.1C136.268 36.68 136.008 32.65 136.008 29.14C136.008 23.94 138.348 22.25 143.288 22.25C147.708 22.25 152.258 22.51 156.678 22.51H182.158C184.238 22.51 185.538 20.56 185.538 18.61V15.75C185.538 12.5 185.408 9.25 185.408 5.86999C185.408 3.14 187.358 2.87999 189.698 2.87999C191.388 2.87999 199.448 3.26999 201.788 3.39999C204.778 3.52999 207.768 3.26999 207.768 5.73999C207.768 7.03999 206.858 7.43 205.688 8.07999C204.388 8.72999 204.258 10.29 204.258 13.02V18.74C204.258 20.95 205.688 22.38 207.898 22.51Z" fill="#FFF3DE"/>
</svg>
