<svg width="70" height="70" viewBox="0 0 70 70" fill="none" xmlns="http://www.w3.org/2000/svg">
<g clip-path="url(#clip0_376_102)">
<path d="M17.8236 61.3502C17.7445 61.3766 17.6868 61.3881 17.6489 61.3865C17.6109 61.3848 17.573 61.3716 17.5318 61.3453C17.451 61.2958 17.4048 61.2298 17.3883 61.1474C17.3735 61.065 17.4032 60.9611 17.479 60.8358L17.695 60.4829C17.7725 60.3576 17.8517 60.2818 17.9325 60.2587C18.0132 60.234 18.094 60.2472 18.1748 60.2966C18.2358 60.3345 18.2771 60.3824 18.3001 60.4401C18.3216 60.4978 18.3199 60.572 18.2968 60.661C18.2738 60.75 18.2639 60.816 18.2705 60.8572C18.2869 60.9396 18.3414 61.0468 18.4353 61.1787C18.5277 61.3106 18.648 61.4227 18.7981 61.5134C19.0306 61.6569 19.2564 61.7195 19.4724 61.703C19.6076 61.6948 19.7066 61.642 19.7659 61.5464C19.8055 61.4821 19.8203 61.4063 19.8088 61.3222C19.7972 61.2364 19.7527 61.1441 19.6719 61.0435C19.6192 60.9759 19.4889 60.8473 19.2795 60.6593C19.0256 60.4318 18.8492 60.2356 18.7486 60.0707C18.648 59.9058 18.5969 59.7294 18.5953 59.5415C18.5953 59.3535 18.6414 59.1804 18.7387 59.0221C18.8921 58.7715 19.1311 58.6165 19.4559 58.5571C19.7808 58.4978 20.1105 58.5703 20.4452 58.7764C20.5788 58.8589 20.6958 58.9495 20.7915 59.0501C20.8871 59.1507 20.9646 59.2595 21.0207 59.3782C21.1295 59.3535 21.2185 59.3617 21.2861 59.4046C21.362 59.4524 21.4081 59.5167 21.4246 59.6008C21.4395 59.6833 21.4098 59.7871 21.3339 59.9124L21.0932 60.3049C21.0157 60.4302 20.9366 60.506 20.8558 60.5291C20.775 60.5538 20.6958 60.5423 20.6184 60.4945C20.5541 60.4549 20.5095 60.4005 20.4864 60.3329C20.4667 60.2818 20.4749 60.2059 20.5079 60.107C20.5409 60.0081 20.5573 59.9322 20.5508 59.8762C20.5409 59.7805 20.4996 59.6816 20.4287 59.5761C20.3578 59.4722 20.2573 59.3799 20.127 59.3007C19.939 59.1853 19.7626 59.1375 19.5994 59.1573C19.4362 59.1771 19.324 59.2348 19.2663 59.3304C19.2268 59.3947 19.2103 59.4706 19.2185 59.5596C19.2268 59.6486 19.263 59.736 19.329 59.8218C19.3719 59.8811 19.512 60.0196 19.7478 60.2356C19.9836 60.4516 20.1534 60.6363 20.2589 60.788C20.3644 60.9396 20.4238 61.1111 20.4353 61.304C20.4485 61.4969 20.3974 61.6866 20.2836 61.8712C20.1254 62.1301 19.9077 62.2801 19.6307 62.3246C19.2647 62.3807 18.8937 62.2933 18.5194 62.0641C18.3743 61.9751 18.2441 61.8712 18.1287 61.7525C18.0132 61.6338 17.9127 61.5002 17.8253 61.3502H17.8236Z" fill="#4D3A3F"/>
<path d="M23.5549 61.1968L22.5689 63.3848L23.1344 63.6387C23.2696 63.6997 23.3537 63.7689 23.3867 63.8464C23.4213 63.9239 23.418 64.0047 23.3817 64.0888C23.3455 64.1712 23.2861 64.224 23.2053 64.2504C23.1245 64.2768 23.0173 64.2586 22.8821 64.1993L21.1921 63.4375C21.0569 63.3765 20.9728 63.3073 20.9399 63.2298C20.9052 63.1523 20.9085 63.0715 20.9448 62.9874C20.9811 62.905 21.0404 62.8522 21.1212 62.8258C21.202 62.7994 21.3092 62.8176 21.4444 62.8769L22.0099 63.1309L22.9959 60.9412L22.4304 60.6873C22.2952 60.6263 22.2111 60.5571 22.1781 60.4796C22.1451 60.4021 22.1468 60.3213 22.1831 60.2372C22.221 60.1531 22.2803 60.0987 22.3611 60.0723C22.4419 60.0459 22.5491 60.0641 22.6843 60.1251L24.3727 60.8885C24.5079 60.9495 24.592 61.0171 24.6266 61.0946C24.6612 61.1721 24.6596 61.2512 24.6216 61.3353C24.5837 61.4194 24.5244 61.4738 24.4436 61.5002C24.3628 61.5266 24.2556 61.5084 24.1204 61.4474L23.5549 61.1935V61.1968Z" fill="#4D3A3F"/>
<path d="M25.7643 62.6393L25.2235 64.4151L25.4362 64.4794C25.578 64.5223 25.6703 64.58 25.7132 64.6525C25.7561 64.7251 25.7659 64.8059 25.7379 64.8932C25.7115 64.979 25.6604 65.04 25.5829 65.0763C25.5054 65.1125 25.3966 65.1092 25.2565 65.0664L24.4865 64.8322C24.3447 64.7894 24.2523 64.7317 24.2095 64.6591C24.1666 64.5866 24.1567 64.5058 24.1847 64.4184C24.2111 64.3343 24.2606 64.2733 24.3364 64.237C24.4123 64.2008 24.5129 64.2008 24.6365 64.237L25.3356 61.9402L25.2433 61.9122C25.1015 61.8693 25.0091 61.8116 24.9663 61.7391C24.9234 61.6665 24.9135 61.5857 24.9415 61.4984C24.9679 61.411 25.0207 61.3483 25.0965 61.312C25.174 61.2758 25.2828 61.2791 25.423 61.3219L26.1007 61.5313L26.8838 64.3425L27.4213 62.5767L27.2087 62.5124C27.0669 62.4695 26.9745 62.4118 26.9317 62.3393C26.8888 62.2667 26.8805 62.1859 26.9069 62.0985C26.9333 62.0111 26.9861 61.9485 27.0619 61.9122C27.1378 61.8759 27.2482 61.8792 27.3884 61.9221L28.1584 62.1595C28.3002 62.2024 28.3925 62.2601 28.4354 62.331C28.4799 62.4036 28.4881 62.4827 28.4617 62.5701C28.4354 62.6558 28.3842 62.7168 28.3084 62.7547C28.2326 62.7927 28.1336 62.7927 28.0116 62.7547L27.1328 65.6385L26.5508 65.4621L25.761 62.6393H25.7643Z" fill="#4D3A3F"/>
<path d="M31.1987 62.8835C31.2448 62.839 31.2927 62.8076 31.3405 62.7895C31.3883 62.7714 31.4394 62.7664 31.4905 62.7747C31.5795 62.7895 31.6455 62.8324 31.6917 62.9033C31.7378 62.9742 31.7477 63.0813 31.723 63.2281L31.6356 63.7409C31.6109 63.8859 31.5647 63.9849 31.4988 64.0376C31.4328 64.0904 31.3553 64.1085 31.2663 64.0937C31.1855 64.0805 31.1245 64.0459 31.0833 63.9931C31.042 63.9387 31.019 63.848 31.0173 63.7211C31.0173 63.637 31.0008 63.5677 30.9678 63.515C30.9019 63.4127 30.8013 63.3221 30.6661 63.2446C30.5309 63.1671 30.3891 63.116 30.244 63.0912C30.0626 63.0599 29.8895 63.0714 29.7246 63.1242C29.5598 63.177 29.4048 63.2825 29.258 63.4391C29.1113 63.5958 29.0173 63.7969 28.9761 64.0409L28.9101 64.4334C28.8607 64.7252 28.925 64.9857 29.103 65.2165C29.2811 65.4474 29.5581 65.5941 29.934 65.6584C30.1583 65.6963 30.3528 65.698 30.5194 65.6634C30.615 65.6436 30.7238 65.5892 30.8442 65.5034C30.9184 65.4507 30.9744 65.4193 31.0124 65.4061C31.0503 65.393 31.0932 65.3913 31.1377 65.3996C31.2185 65.4127 31.2844 65.4556 31.3339 65.5265C31.3833 65.5974 31.4031 65.6749 31.3883 65.7573C31.3751 65.8398 31.3174 65.9222 31.2185 66.0014C31.075 66.1184 30.9019 66.2009 30.7007 66.247C30.4287 66.3097 30.1401 66.3163 29.8318 66.2635C29.474 66.2025 29.164 66.0739 28.9019 65.8777C28.6892 65.7194 28.5243 65.5001 28.404 65.2182C28.2836 64.9362 28.249 64.6444 28.3001 64.3427L28.3693 63.9321C28.4221 63.6172 28.5457 63.3369 28.7387 63.0879C28.9316 62.8406 29.1706 62.6642 29.4559 62.562C29.7411 62.4581 30.028 62.4317 30.3199 62.4812C30.4946 62.5108 30.6546 62.5587 30.8013 62.6246C30.9464 62.6906 31.0783 62.7763 31.197 62.8818L31.1987 62.8835Z" fill="#4D3A3F"/>
<path d="M33.0734 65.0239L33.0355 65.9241L34.6002 65.9901L34.615 65.6587C34.6216 65.5119 34.6546 65.4064 34.714 65.347C34.7733 65.2877 34.8492 65.258 34.9415 65.2629C35.0305 65.2662 35.1031 65.3009 35.1575 65.3668C35.2119 65.4328 35.235 65.5383 35.23 65.6867L35.1905 66.6314L32.3051 66.5094C32.1567 66.5028 32.0528 66.4699 31.9934 66.4105C31.9341 66.3511 31.9044 66.2753 31.9093 66.183C31.9126 66.0939 31.9489 66.0214 32.0149 65.967C32.0808 65.9126 32.1863 65.8895 32.3331 65.8944L32.4287 65.8977L32.5309 63.4987L32.4353 63.4954C32.2886 63.4888 32.183 63.4558 32.1237 63.3965C32.0627 63.3371 32.0347 63.2613 32.0396 63.169C32.0429 63.0766 32.0775 63.0041 32.1435 62.9497C32.2094 62.8953 32.315 62.8722 32.4633 62.8771L35.2152 62.9975L35.1756 63.9307C35.169 64.0758 35.1377 64.1797 35.0783 64.239C35.019 64.3 34.9448 64.3281 34.8525 64.3231C34.7601 64.3198 34.6876 64.2852 34.6332 64.2209C34.5788 64.1566 34.5557 64.0511 34.5606 63.9027L34.5738 63.5828L33.1443 63.5218L33.1064 64.4072L33.6455 64.4303C33.6521 64.2704 33.6719 64.1681 33.7032 64.1236C33.7692 64.028 33.8599 63.9835 33.972 63.9884C34.061 63.9917 34.1336 64.0263 34.188 64.0923C34.2424 64.1582 34.2655 64.2638 34.2605 64.4122L34.2309 65.1178C34.2259 65.2514 34.2061 65.3404 34.1715 65.3849C34.1039 65.4756 34.0165 65.5185 33.9077 65.5152C33.7939 65.5103 33.7082 65.4575 33.6505 65.3569C33.6225 65.3091 33.6126 65.2052 33.6192 65.0436L33.0816 65.0206L33.0734 65.0239Z" fill="#4D3A3F"/>
<path d="M40.8772 65.4275L42.1913 65.1489C42.2507 65.0747 42.3133 65.0318 42.3776 65.017C42.4699 64.9972 42.5491 65.012 42.615 65.0615C42.681 65.1109 42.7305 65.2082 42.7618 65.355L42.8228 65.6419L40.0874 66.2206L39.9539 65.5858C40.8475 64.4646 41.3784 63.7523 41.5483 63.449C41.634 63.294 41.6637 63.1588 41.639 63.0417C41.6076 62.895 41.5169 62.7795 41.3653 62.6938C41.2136 62.6081 41.0322 62.5883 40.8178 62.6328C40.6035 62.679 40.437 62.7779 40.3216 62.9329C40.2606 63.0153 40.2226 63.1258 40.2061 63.2659C40.1962 63.3533 40.1715 63.4209 40.1303 63.4654C40.0891 63.51 40.0347 63.5413 39.9638 63.5561C39.8813 63.5726 39.8055 63.5594 39.7329 63.5133C39.6604 63.4671 39.6159 63.4044 39.601 63.3269C39.5763 63.2099 39.601 63.0516 39.6703 62.8537C39.7412 62.6559 39.8698 62.4811 40.0561 62.3311C40.2424 62.181 40.4568 62.0804 40.7008 62.0293C41.08 61.9485 41.4147 61.998 41.7049 62.1761C41.9951 62.3541 42.1748 62.6064 42.2441 62.9329C42.2787 63.0994 42.277 63.2593 42.2375 63.416C42.1979 63.5726 42.0726 63.8034 41.8615 64.1085C41.6967 64.3492 41.3669 64.7878 40.8756 65.4242L40.8772 65.4275Z" fill="#4D3A3F"/>
<path d="M45.5829 62.3808L45.7972 63.0189C45.9242 63.3982 45.9357 63.7955 45.8335 64.216C45.7313 64.6348 45.4757 64.9134 45.0701 65.0503C44.836 65.1294 44.62 65.1442 44.4238 65.0948C44.2276 65.0453 44.0099 64.9068 43.7725 64.6776C43.5351 64.4484 43.3636 64.1797 43.2597 63.8681L43.0454 63.23C42.9201 62.8541 42.9069 62.455 43.0091 62.0346C43.1113 61.6142 43.3653 61.3372 43.7709 61.2003C44.0033 61.1228 44.2177 61.108 44.4139 61.1558C44.6101 61.2036 44.8277 61.3421 45.0668 61.5696C45.3059 61.7972 45.479 62.0676 45.5829 62.3808ZM44.9976 62.5771C44.892 62.2605 44.7107 62.0148 44.4568 61.8367C44.3133 61.7395 44.1501 61.7213 43.9687 61.7823C43.7923 61.8417 43.6736 61.9621 43.6093 62.1418C43.5136 62.4155 43.5202 62.7139 43.6274 63.0354L43.8418 63.6735C43.9489 63.9917 44.1303 64.2374 44.3859 64.4138C44.5277 64.5111 44.6909 64.5292 44.8739 64.4682C45.0487 64.4105 45.1674 64.2902 45.2301 64.1088C45.3257 63.8351 45.3191 63.5367 45.2119 63.2151L44.9976 62.5771Z" fill="#4D3A3F"/>
<path d="M47.5928 63.3188L48.8097 62.7499C48.8509 62.6642 48.902 62.6081 48.9614 62.5801C49.0454 62.5405 49.1262 62.5372 49.2021 62.5702C49.2779 62.6032 49.3472 62.6873 49.4115 62.8225L49.5351 63.0879L47.0026 64.2718L46.7272 63.6832C47.3422 62.3888 47.6984 61.5743 47.7956 61.2396C47.8435 61.0698 47.8418 60.9297 47.7923 60.8208C47.7297 60.6856 47.6143 60.5933 47.4461 60.5455C47.2796 60.4977 47.0966 60.5191 46.9003 60.6114C46.7008 60.7038 46.564 60.839 46.4848 61.017C46.4453 61.111 46.4321 61.2281 46.4469 61.3682C46.4568 61.4556 46.4469 61.5265 46.4189 61.5793C46.3892 61.632 46.3431 61.6749 46.2771 61.7046C46.2013 61.7392 46.1238 61.7442 46.043 61.7145C45.9622 61.6865 45.9061 61.6353 45.8715 61.5628C45.8204 61.454 45.8072 61.2957 45.8319 61.0863C45.8567 60.8769 45.9424 60.6774 46.0891 60.4911C46.2359 60.3031 46.4222 60.1564 46.6481 60.0508C46.9993 59.886 47.3356 59.8579 47.6588 59.9668C47.982 60.0756 48.2144 60.2784 48.3562 60.5801C48.4288 60.7335 48.4634 60.8917 48.4601 61.0517C48.4568 61.2133 48.3876 61.4655 48.2524 61.8118C48.1468 62.0838 47.9259 62.5851 47.5912 63.3171L47.5928 63.3188Z" fill="#4D3A3F"/>
<path d="M51.2103 59.7178C51.4296 59.7277 51.6208 59.7788 51.7824 59.8695C51.944 59.9602 52.0776 60.0921 52.1831 60.2636C52.2969 60.4483 52.3513 60.6511 52.348 60.8703C52.3447 61.0896 52.2705 61.299 52.1287 61.4985C51.9869 61.698 51.7593 61.8926 51.4494 62.0839C51.0454 62.3328 50.7025 62.4565 50.4205 62.4565C50.2622 62.4565 50.1534 62.4054 50.0924 62.3065C50.0462 62.2323 50.033 62.1531 50.0512 62.0707C50.0693 61.9882 50.1138 61.9239 50.1847 61.8811C50.2342 61.8514 50.2952 61.8365 50.3694 61.8382C50.4749 61.8431 50.5673 61.8333 50.6431 61.8102C50.7602 61.7706 50.9069 61.6964 51.085 61.5876C51.39 61.3996 51.5846 61.2248 51.672 61.0633C51.7593 60.9 51.7577 60.7467 51.6687 60.6032C51.6027 60.4961 51.5005 60.4169 51.3587 60.3658C51.2185 60.3147 51.0652 60.3032 50.8987 60.3312C50.803 60.3477 50.6612 60.4054 50.4716 60.506C50.3826 60.5538 50.2985 60.5686 50.2227 60.5488C50.1468 60.529 50.0858 60.4829 50.0413 60.412C49.9951 60.3378 49.9819 60.2586 50.0017 60.1762C50.0215 60.0938 50.071 60.0295 50.1485 59.98C50.3216 59.8728 50.4139 59.8151 50.4255 59.8069C50.4898 59.7591 50.5442 59.6948 50.5887 59.6156C50.6332 59.5365 50.6563 59.4507 50.6579 59.36C50.6579 59.2694 50.6382 59.1886 50.5953 59.1193C50.5277 59.0088 50.4189 58.9429 50.2721 58.9231C50.1254 58.9033 49.9539 58.9528 49.7577 59.0732C49.5054 59.2281 49.3587 59.4194 49.3175 59.6469C49.3043 59.7129 49.2894 59.7607 49.2729 59.7871C49.2482 59.8283 49.2152 59.8613 49.1707 59.8893C49.0998 59.9338 49.0223 59.9454 48.9399 59.9256C48.8575 59.9058 48.7931 59.8596 48.747 59.7838C48.6744 59.6667 48.6827 59.5051 48.7717 59.2974C48.9003 58.9957 49.1344 58.7401 49.4774 58.529C49.8006 58.3295 50.1155 58.2619 50.4238 58.3262C50.7321 58.3889 50.9663 58.5505 51.1246 58.8077C51.207 58.9413 51.2548 59.0847 51.2697 59.2364C51.2828 59.3881 51.2631 59.5497 51.2086 59.7195L51.2103 59.7178Z" fill="#4D3A3F"/>
<path d="M7.67682 42.0163L5.33882 42.506L5.3586 42.6C5.38828 42.7434 5.38169 42.8523 5.34047 42.9248C5.2976 42.9974 5.23165 43.0435 5.14261 43.0617C5.05357 43.0798 4.97443 43.065 4.90683 43.0155C4.83923 42.966 4.78977 42.8687 4.76009 42.7253L4.44681 41.2265C4.37262 40.8687 4.41219 40.5604 4.56553 40.3016C4.71887 40.0427 4.93321 39.8844 5.20691 39.8267C5.33717 39.7987 5.46413 39.7987 5.58944 39.8267C5.71475 39.8547 5.83676 39.9075 5.95547 39.9899C6.02802 39.7772 6.13024 39.6091 6.26215 39.4838C6.39405 39.3584 6.55399 39.276 6.7436 39.2348C6.89529 39.2035 7.04368 39.2084 7.18713 39.248C7.2976 39.2776 7.38828 39.3238 7.46248 39.3848C7.5647 39.4673 7.65704 39.5744 7.73783 39.708C7.82027 39.8415 7.88292 40.0163 7.92744 40.2307L8.29512 41.9866C8.3248 42.1301 8.31821 42.2389 8.27699 42.3115C8.23412 42.384 8.16817 42.4302 8.07913 42.4483C7.99174 42.4664 7.91425 42.45 7.845 42.4005C7.7774 42.3494 7.72794 42.2537 7.69826 42.1119L7.67847 42.018L7.67682 42.0163ZM6.08243 41.7245L5.94558 41.0683C5.89611 40.8325 5.79554 40.6495 5.6455 40.5192C5.54327 40.4302 5.43445 40.3988 5.31573 40.4236C5.21021 40.445 5.12942 40.5143 5.07171 40.6297C5.014 40.7451 5.00741 40.9116 5.05193 41.126L5.21516 41.9042L6.08408 41.7228L6.08243 41.7245ZM7.55151 41.4178L7.33552 40.3856C7.28441 40.1433 7.21351 39.98 7.11953 39.896C7.04863 39.8316 6.96289 39.8102 6.86231 39.8316C6.74195 39.8564 6.63808 39.957 6.55399 40.1301C6.46825 40.3049 6.45506 40.5307 6.51441 40.811L6.6793 41.6008L7.55151 41.4178Z" fill="#4D3A3F"/>
<path d="M6.16984 37.6589L6.93654 37.6061L6.9217 37.3868C6.91181 37.2401 6.93324 37.1329 6.98435 37.0669C7.03711 37.001 7.10801 36.9647 7.1987 36.9581C7.28773 36.9515 7.36358 36.9779 7.42293 37.0373C7.48394 37.095 7.51857 37.1988 7.53011 37.3456L7.59441 38.2689C7.6043 38.4157 7.58287 38.5228 7.53176 38.5888C7.47899 38.6547 7.4081 38.691 7.31741 38.6976C7.22838 38.7042 7.15253 38.6778 7.09317 38.6168C7.03217 38.5575 6.99754 38.4552 6.986 38.3101L6.97941 38.2145L4.59688 38.3794L4.60348 38.475C4.61337 38.6218 4.59194 38.7289 4.54082 38.7949C4.48806 38.8608 4.41716 38.8971 4.32648 38.9037C4.2358 38.9103 4.15995 38.8839 4.09894 38.8262C4.03794 38.7685 4.00331 38.6646 3.99177 38.5179L3.89944 37.1395C3.86976 36.7092 3.9522 36.3695 4.15006 36.1172C4.34791 35.865 4.59688 35.7298 4.90191 35.7083C5.09152 35.6951 5.2696 35.738 5.43118 35.8386C5.59441 35.9392 5.74445 36.0958 5.8813 36.3118C5.98518 36.1749 6.12038 36.0282 6.28691 35.8683C6.39408 35.7693 6.56061 35.6341 6.78979 35.4627C6.7799 35.3077 6.78814 35.2054 6.81617 35.1527C6.87059 35.0587 6.95467 35.0092 7.06514 35.001C7.15418 34.9944 7.23002 35.0208 7.28938 35.0785C7.34874 35.1362 7.38501 35.2384 7.3949 35.3852L7.41964 35.7331C6.69087 36.2788 6.26053 36.7207 6.12862 37.0554L6.16984 37.6589ZM5.56143 37.7001L5.52846 37.2252C5.51692 37.0488 5.47899 36.8938 5.41469 36.7586C5.3306 36.5772 5.24651 36.4569 5.16242 36.3992C5.07833 36.3415 4.99754 36.3134 4.9217 36.3184C4.80628 36.3266 4.70406 36.3959 4.61502 36.5245C4.52598 36.6547 4.48806 36.8361 4.50455 37.0719L4.55237 37.771L5.55979 37.7017L5.56143 37.7001Z" fill="#4D3A3F"/>
<path d="M5.97033 33.3091L6.86398 33.38L6.98599 31.8268L6.65623 31.8005C6.50949 31.7889 6.40726 31.7527 6.34956 31.6916C6.29185 31.6306 6.26712 31.5548 6.27371 31.4625C6.28031 31.3734 6.31823 31.3025 6.38418 31.2514C6.45013 31.2003 6.5573 31.1805 6.70405 31.1921L7.64222 31.2663L7.41633 34.1319C7.40479 34.2786 7.36852 34.3808 7.30751 34.4386C7.24651 34.4963 7.17066 34.5226 7.07833 34.5144C6.98929 34.5078 6.91839 34.4699 6.86728 34.4023C6.81617 34.3347 6.79638 34.2292 6.80792 34.0841L6.81617 33.9884L4.43529 33.8005L4.42705 33.8961C4.41551 34.0428 4.37923 34.1451 4.31823 34.2028C4.25722 34.2605 4.18138 34.2852 4.08904 34.2786C3.99836 34.272 3.92746 34.2341 3.8747 34.1681C3.82194 34.1022 3.8038 33.995 3.81534 33.8483L4.03463 31.1162L4.96126 31.1888C5.10636 31.2003 5.20693 31.2366 5.26464 31.2959C5.32235 31.3553 5.34873 31.4328 5.34049 31.5235C5.33389 31.6142 5.29597 31.685 5.23002 31.7378C5.16406 31.7889 5.05854 31.8087 4.9118 31.7972L4.59358 31.7724L4.48146 33.1921L5.36027 33.2613L5.40314 32.7271C5.24486 32.7139 5.14428 32.6925 5.10141 32.6578C5.00908 32.5886 4.96786 32.4979 4.9761 32.3858C4.9827 32.2968 5.02062 32.2259 5.08657 32.1747C5.15252 32.1236 5.2597 32.1038 5.40644 32.1154L6.10718 32.1698C6.23909 32.1797 6.32812 32.2028 6.37099 32.239C6.45838 32.3099 6.4996 32.399 6.4897 32.5062C6.48146 32.6183 6.4254 32.7024 6.32317 32.7568C6.27536 32.7832 6.17148 32.7897 6.01155 32.7766L5.97033 33.3108V33.3091Z" fill="#4D3A3F"/>
<path d="M7.33226 27.9026L7.0025 29.3486L7.33226 29.5762L7.36523 29.4311C7.39821 29.2876 7.44932 29.192 7.51857 29.1442C7.58782 29.0964 7.66697 29.0815 7.756 29.1013C7.84339 29.1211 7.90769 29.1673 7.94891 29.2415C7.99013 29.3157 7.99508 29.4228 7.9621 29.5663L7.77908 30.3676C7.74611 30.511 7.69499 30.6067 7.62574 30.6545C7.55649 30.7023 7.47735 30.7171 7.38832 30.6974C7.29928 30.6776 7.23333 30.6281 7.19211 30.5523C7.15089 30.4748 7.14924 30.3643 7.18551 30.2176L5.0701 28.7518L4.98106 29.1409C4.94809 29.2843 4.89697 29.38 4.82772 29.4278C4.75847 29.4756 4.67933 29.4904 4.59029 29.4706C4.50126 29.4509 4.43531 29.403 4.39409 29.3305C4.35287 29.2579 4.34792 29.1491 4.3809 29.0057L4.67768 27.7196L7.87307 27.2019C7.90439 27.0617 7.94067 26.9744 7.98189 26.9364C8.06598 26.8622 8.15996 26.8359 8.26548 26.8606C8.35287 26.8804 8.41717 26.9265 8.45839 26.9991C8.49961 27.0716 8.50456 27.1805 8.47158 27.3223L8.28856 28.1236C8.25559 28.267 8.20448 28.3626 8.13523 28.4105C8.06598 28.4583 7.98683 28.4731 7.8978 28.4517C7.81041 28.4319 7.74611 28.3857 7.70489 28.3115C7.66367 28.2373 7.65872 28.1302 7.6917 27.9867L7.72467 27.8416L7.32896 27.901L7.33226 27.9026ZM6.68098 28.0131L5.39326 28.2241L6.46169 28.9744L6.68098 28.0131Z" fill="#4D3A3F"/>
<path d="M8.2737 25.9553L6.05111 25.0798C6.00165 25.1985 5.94064 25.2777 5.8648 25.3139C5.78895 25.3502 5.70981 25.3519 5.62737 25.3205C5.54163 25.2876 5.48557 25.2315 5.45589 25.1524C5.42621 25.0732 5.43775 24.966 5.49217 24.8292L5.96372 23.6404C6.03627 23.4557 6.14179 23.2892 6.28029 23.1392C6.41879 22.9891 6.56059 22.882 6.70898 22.816C6.8211 22.7665 6.9629 22.7237 7.13602 22.6907C7.30915 22.6577 7.47238 22.6462 7.62737 22.6544C7.78235 22.6643 7.95713 22.7072 8.15498 22.7847L8.42704 22.8918C8.66776 22.9858 8.86397 23.1111 9.01731 23.2661C9.17065 23.4211 9.28112 23.5876 9.34542 23.7657C9.41137 23.9438 9.44765 24.1021 9.45754 24.2406C9.47238 24.4599 9.42127 24.7154 9.30585 25.0106L8.85573 26.1532C8.80132 26.29 8.73701 26.3774 8.66117 26.4137C8.58532 26.4516 8.50453 26.4533 8.42044 26.4203C8.338 26.3873 8.28029 26.3313 8.24897 26.2521C8.21764 26.173 8.22753 26.074 8.27535 25.957L8.2737 25.9553ZM8.49794 25.3865L8.73536 24.783C8.8244 24.5571 8.85902 24.3741 8.83924 24.234C8.81286 24.051 8.7502 23.896 8.64798 23.7674C8.54575 23.6404 8.39076 23.5349 8.18301 23.4524L7.91426 23.3469C7.73454 23.276 7.56471 23.2496 7.40313 23.2645C7.15086 23.2892 6.95795 23.3519 6.8277 23.4557C6.69744 23.5596 6.59192 23.7113 6.51113 23.9125L6.27535 24.511L8.49794 25.3865Z" fill="#4D3A3F"/>
<path d="M9.93575 20.3118L8.74202 22.5657L8.24902 22.3052L9.44276 20.0513L9.93575 20.3118Z" fill="#4D3A3F"/>
<path d="M10.6051 19.1671L11.3454 19.6716L12.2226 18.3839L11.9489 18.1976C11.8269 18.1151 11.756 18.0327 11.7362 17.9503C11.7164 17.8678 11.7329 17.7903 11.784 17.7145C11.8335 17.6403 11.9011 17.5974 11.9852 17.5859C12.0693 17.5743 12.1715 17.6106 12.2935 17.693L13.0717 18.2223L11.4526 20.5982C11.3702 20.7202 11.2877 20.7911 11.2053 20.8109C11.1228 20.8307 11.0454 20.8142 10.9695 20.7631C10.8953 20.7137 10.8524 20.6461 10.8426 20.562C10.831 20.4779 10.8673 20.3756 10.9481 20.2553L11.0025 20.1761L9.02887 18.8307L8.97446 18.9099C8.89202 19.0319 8.80958 19.1028 8.72714 19.1226C8.6447 19.1423 8.5672 19.1259 8.49136 19.0747C8.41551 19.0236 8.37264 18.956 8.3611 18.8719C8.34956 18.7879 8.38583 18.6856 8.46827 18.5636L10.0132 16.2998L10.7815 16.8225C10.9019 16.9049 10.9712 16.9857 10.9926 17.0665C11.0124 17.1473 10.9975 17.2264 10.9464 17.3006C10.8953 17.3765 10.8277 17.4193 10.7453 17.4325C10.6628 17.4441 10.5606 17.4094 10.4386 17.327L10.1748 17.1473L9.37347 18.3245L10.1022 18.8208L10.404 18.3773C10.2721 18.2883 10.1962 18.2174 10.1764 18.1679C10.1303 18.0624 10.1402 17.9618 10.2028 17.8695C10.2539 17.7953 10.3199 17.7524 10.404 17.7409C10.4881 17.7293 10.5903 17.7656 10.7106 17.848L11.291 18.2437C11.4015 18.3179 11.4658 18.3822 11.4856 18.4334C11.5268 18.5389 11.5169 18.6345 11.4576 18.7235C11.3933 18.8175 11.3042 18.862 11.1888 18.8587C11.1344 18.8587 11.0404 18.8109 10.9069 18.7219L10.6051 19.1654V19.1671Z" fill="#4D3A3F"/>
<path d="M14.4748 15.1443L13.4707 16.2375L13.6438 16.5986L13.7444 16.4881C13.8433 16.3793 13.9357 16.3216 14.0198 16.3133C14.1039 16.3051 14.1797 16.3331 14.2473 16.3941C14.3133 16.4551 14.3462 16.5277 14.3446 16.6118C14.3446 16.6958 14.2935 16.7931 14.1945 16.9003L13.6389 17.5054C13.54 17.6142 13.4476 17.6719 13.3635 17.6802C13.2795 17.6884 13.2036 17.6604 13.136 17.5994C13.0684 17.5384 13.0354 17.4625 13.0387 17.3752C13.0404 17.2878 13.0948 17.1905 13.1987 17.0817L12.0874 14.7585L11.817 15.052C11.718 15.1608 11.6257 15.2185 11.5416 15.2251C11.4575 15.2334 11.3817 15.2053 11.3141 15.1443C11.2465 15.0833 11.2135 15.0091 11.2135 14.925C11.2135 14.8409 11.2646 14.7437 11.3635 14.6365L12.2588 13.667L15.291 14.8014C15.3883 14.6958 15.4625 14.6381 15.5169 14.6249C15.6274 14.6019 15.7213 14.6266 15.8005 14.6991C15.8664 14.7601 15.8994 14.831 15.8994 14.9151C15.8994 14.9992 15.8499 15.0949 15.751 15.2037L15.1954 15.8088C15.0964 15.9176 15.0041 15.9753 14.92 15.9836C14.8359 15.9918 14.7601 15.9638 14.6925 15.9028C14.6265 15.8418 14.5935 15.7692 14.5952 15.6851C14.5968 15.601 14.6463 15.5038 14.7452 15.3966L14.8458 15.2861L14.4732 15.141L14.4748 15.1443ZM13.8532 14.9184L12.6298 14.4617L13.1855 15.6439L13.8532 14.9184Z" fill="#4D3A3F"/>
<path d="M15.5417 11.4276L17.0816 13.2545L17.3966 12.989C17.5087 12.895 17.6076 12.8489 17.6917 12.8522C17.7758 12.8555 17.8483 12.8918 17.906 12.961C17.9638 13.0286 17.9868 13.1061 17.9753 13.1885C17.9638 13.2726 17.9028 13.3617 17.789 13.4556L16.6958 14.3773C16.5837 14.473 16.4848 14.5175 16.4007 14.5142C16.3166 14.5109 16.2441 14.4746 16.1863 14.4054C16.1286 14.3378 16.1056 14.2603 16.1171 14.1778C16.1286 14.0937 16.1896 14.0047 16.3034 13.9107L16.615 13.6486L15.0751 11.8217L14.5689 12.2471L14.9415 12.6889C15.0371 12.8011 15.0816 12.9 15.0783 12.9841C15.0751 13.0682 15.0388 13.1407 14.9695 13.1984C14.9019 13.2561 14.8244 13.2792 14.742 13.2677C14.6579 13.2561 14.5689 13.1951 14.4749 13.0814L13.7065 12.1696L16.127 10.1333L16.892 11.0418C16.9877 11.1539 17.0322 11.2528 17.0289 11.3369C17.0256 11.421 16.9893 11.4936 16.9201 11.5513C16.8525 11.609 16.775 11.6321 16.6925 11.6205C16.6084 11.609 16.5194 11.548 16.4254 11.4359L16.0528 10.994L15.54 11.426L15.5417 11.4276Z" fill="#4D3A3F"/>
<path d="M18.5046 9.26446L19.8154 11.2612L20.3314 10.9232C20.4551 10.8424 20.5573 10.8094 20.6414 10.8209C20.7255 10.8341 20.7915 10.8786 20.8409 10.9545C20.8904 11.0287 20.9036 11.1078 20.8821 11.1886C20.8607 11.2694 20.7882 11.3518 20.6661 11.4326L19.1245 12.445C19.0009 12.5258 18.8986 12.5588 18.8145 12.5472C18.7321 12.534 18.6645 12.4895 18.615 12.4137C18.5656 12.3395 18.5524 12.2603 18.5738 12.1795C18.5952 12.0988 18.6678 12.0163 18.7898 11.9355L19.3059 11.5975L17.9951 9.60081L17.479 9.93882C17.3553 10.0196 17.2531 10.0526 17.169 10.041C17.0866 10.0279 17.019 9.98334 16.9695 9.90749C16.9201 9.83165 16.9052 9.7525 16.9267 9.67006C16.9481 9.58762 17.0206 9.50683 17.1426 9.42604L18.6859 8.41697C18.8096 8.33618 18.9118 8.30155 18.9943 8.31475C19.0767 8.32629 19.1443 8.3708 19.1938 8.4483C19.2432 8.52414 19.2581 8.60329 19.2366 8.68573C19.2152 8.76817 19.1427 8.84896 19.0206 8.92975L18.5046 9.26775V9.26446Z" fill="#4D3A3F"/>
<path d="M21.3256 8.25528L22.1253 9.92057L22.3248 9.82494C22.4567 9.76064 22.5638 9.74085 22.6446 9.76558C22.7254 9.78867 22.7864 9.84308 22.826 9.92552C22.8639 10.0063 22.8689 10.0855 22.8359 10.1629C22.8029 10.2404 22.7221 10.3113 22.5886 10.3756L21.8664 10.7219C21.7345 10.7862 21.6273 10.806 21.5465 10.7812C21.4657 10.7582 21.4047 10.7038 21.3652 10.6213C21.3272 10.5422 21.3239 10.4647 21.3536 10.3855C21.385 10.3064 21.4575 10.2404 21.5746 10.1844L20.5408 8.03104L20.455 8.07226C20.3231 8.13656 20.216 8.15635 20.1352 8.13162C20.0544 8.10689 19.9934 8.05412 19.9538 7.97168C19.9142 7.88924 19.9109 7.80845 19.9423 7.73096C19.9736 7.65346 20.056 7.58257 20.1896 7.51826L20.8277 7.21488L23.2943 8.74662L22.4979 7.08957L22.2984 7.1852C22.1665 7.24951 22.0593 7.26929 21.9785 7.24456C21.8977 7.21983 21.8367 7.16707 21.7972 7.08463C21.7576 7.00219 21.7543 6.92139 21.7856 6.8439C21.8169 6.76641 21.8994 6.69551 22.0329 6.63121L22.7568 6.2866C22.8887 6.2223 22.9958 6.20252 23.0766 6.2256C23.1574 6.24868 23.2168 6.30144 23.2563 6.38388C23.2943 6.46468 23.2992 6.54382 23.2679 6.62296C23.2366 6.7021 23.164 6.76806 23.0502 6.82247L24.3495 9.52651L23.8038 9.78867L21.3239 8.25363L21.3256 8.25528Z" fill="#4D3A3F"/>
<path d="M27.5828 7.24458L27.8368 8.02282C27.6208 8.25035 27.4278 8.41853 27.2613 8.53065C27.0948 8.64277 26.9035 8.73345 26.6908 8.8027C26.3941 8.89833 26.1055 8.9445 25.8236 8.9379C25.6026 8.93461 25.4196 8.89998 25.2712 8.83238C25.1228 8.76643 24.9678 8.64606 24.8063 8.47459C24.643 8.30311 24.5227 8.09207 24.4402 7.8398L24.3034 7.421C24.1781 7.03353 24.183 6.64936 24.3199 6.26849C24.5029 5.75406 24.8673 5.40781 25.413 5.22974C25.5713 5.17863 25.7279 5.14565 25.8796 5.13081C26.033 5.11597 26.183 5.12092 26.333 5.14235C26.3875 5.04672 26.4518 4.98737 26.526 4.96428C26.6117 4.93625 26.6892 4.94285 26.7617 4.98407C26.8343 5.02529 26.892 5.11597 26.9382 5.25612L27.0602 5.6337C27.1063 5.77385 27.1113 5.88102 27.0767 5.95851C27.042 6.03601 26.9827 6.08712 26.8969 6.11515C26.8293 6.13658 26.7634 6.13494 26.7007 6.1102C26.6529 6.09372 26.6018 6.04095 26.5441 5.95192C26.4864 5.86288 26.4369 5.80682 26.3941 5.78374C26.3248 5.74582 26.2193 5.72603 26.0758 5.72603C25.9324 5.72603 25.7807 5.75076 25.6208 5.80353C25.3899 5.87937 25.2053 5.99149 25.0668 6.13988C24.9678 6.2487 24.8969 6.40699 24.8508 6.61474C24.8046 6.82249 24.8161 7.02694 24.8821 7.23139L25.0189 7.65019C25.1195 7.96181 25.2877 8.16956 25.5202 8.27179C25.7527 8.37401 26.0659 8.36247 26.4584 8.23386C26.7255 8.14648 26.9513 8.01787 27.1377 7.84639L27.0025 7.42925L26.4105 7.62216C26.2704 7.66832 26.1632 7.67327 26.0857 7.63865C26.0082 7.60402 25.9555 7.54301 25.9274 7.45728C25.8994 7.36989 25.906 7.29075 25.9472 7.21655C25.9884 7.144 26.0808 7.08465 26.2193 7.03848L27.2514 6.70542C27.3916 6.65925 27.4987 6.65431 27.5762 6.68728C27.6521 6.72026 27.7048 6.78127 27.7329 6.867C27.7543 6.93461 27.7543 7.00056 27.7296 7.06486C27.7048 7.12916 27.6554 7.18687 27.5812 7.23799L27.5828 7.24458Z" fill="#4D3A3F"/>
<path d="M30.4765 6.40059L30.5787 7.16234L30.798 7.13266C30.9431 7.11287 31.0519 7.12771 31.1212 7.17553C31.1904 7.22334 31.2316 7.29259 31.2432 7.38328C31.2547 7.47231 31.2333 7.54816 31.1789 7.61246C31.1245 7.67677 31.0239 7.71964 30.8788 7.73777L29.9604 7.86143C29.8153 7.88122 29.7065 7.86638 29.6372 7.81856C29.568 7.77075 29.5268 7.7015 29.5152 7.61081C29.5037 7.52178 29.5251 7.44593 29.5812 7.38163C29.6372 7.31733 29.7362 7.27446 29.8796 7.25632L29.9736 7.24313L29.6554 4.87545L29.5614 4.88864C29.4163 4.90842 29.3075 4.89358 29.2382 4.84577C29.169 4.79795 29.1277 4.7287 29.1162 4.63802C29.1047 4.54733 29.1245 4.46984 29.1789 4.40554C29.2333 4.34123 29.3338 4.29837 29.4789 4.27858L30.8491 4.09721C31.2761 4.0395 31.6207 4.10051 31.8846 4.28023C32.1484 4.45995 32.3 4.70232 32.3413 5.00405C32.366 5.19367 32.3347 5.37174 32.2456 5.54156C32.1566 5.71139 32.0082 5.87133 31.8021 6.02137C31.9456 6.117 32.1005 6.24231 32.2704 6.39729C32.3759 6.49787 32.521 6.65616 32.7073 6.8738C32.8606 6.85401 32.9645 6.85566 33.0173 6.88039C33.1146 6.92986 33.1706 7.009 33.1855 7.11947C33.197 7.20851 33.1772 7.28435 33.1228 7.34865C33.0684 7.41296 32.9695 7.45418 32.8244 7.47396L32.4798 7.52013C31.8878 6.82763 31.4196 6.42697 31.0766 6.31815L30.4781 6.39894L30.4765 6.40059ZM30.394 5.79548L30.8656 5.73118C31.0404 5.70809 31.1937 5.66028 31.324 5.58773C31.4987 5.4921 31.6141 5.39977 31.6669 5.31238C31.7197 5.22499 31.7411 5.14255 31.7312 5.06671C31.7164 4.95294 31.6405 4.85566 31.5053 4.77322C31.3701 4.69243 31.1855 4.6677 30.9513 4.69902L30.2572 4.79301L30.3924 5.79383L30.394 5.79548Z" fill="#4D3A3F"/>
<path d="M36.2869 6.47149L34.803 6.44346L34.6464 6.81279L34.7948 6.81609C34.9415 6.81939 35.0454 6.84907 35.108 6.90677C35.1691 6.96448 35.1987 7.03868 35.1971 7.13101C35.1971 7.22005 35.1625 7.2926 35.0998 7.34865C35.0355 7.40471 34.9316 7.43109 34.7832 7.4278L33.9605 7.41296C33.8137 7.40966 33.7099 7.37998 33.6472 7.32227C33.5862 7.26457 33.5565 7.19037 33.5582 7.09804C33.5582 7.00735 33.5944 6.93316 33.6604 6.8771C33.7263 6.82104 33.8352 6.7963 33.9869 6.8029L34.991 4.43192L34.592 4.42367C34.4452 4.42038 34.3414 4.3907 34.2787 4.33299C34.216 4.27528 34.188 4.20109 34.1897 4.10875C34.1913 4.01642 34.2243 3.94387 34.2869 3.88946C34.3496 3.83505 34.4551 3.80702 34.6035 3.81032L35.9226 3.83835L37.0817 6.86061C37.2251 6.86391 37.3191 6.88039 37.3636 6.91337C37.4543 6.98097 37.4972 7.06836 37.4955 7.17553C37.4955 7.26457 37.4609 7.33711 37.3999 7.39317C37.3372 7.44923 37.2334 7.47561 37.085 7.47232L36.2622 7.45748C36.1155 7.45418 36.0116 7.4245 35.9489 7.36679C35.8863 7.30908 35.8583 7.23489 35.8599 7.14255C35.8599 7.05352 35.8945 6.98097 35.9572 6.92491C36.0215 6.86885 36.1254 6.84247 36.2738 6.84577L36.4221 6.84907L36.2836 6.47479L36.2869 6.47149ZM36.0462 5.85649L35.578 4.63802L35.0619 5.83835L36.0479 5.85649H36.0462Z" fill="#4D3A3F"/>
<path d="M40.7617 4.49952C40.8063 4.455 40.8541 4.42202 40.9019 4.40388C40.9497 4.38575 40.9992 4.3808 41.0503 4.3874C41.1393 4.40059 41.2053 4.44346 41.2531 4.51271C41.2992 4.58196 41.3108 4.68913 41.2893 4.83422L41.2102 5.347C41.1871 5.4921 41.1426 5.59102 41.0783 5.64379C41.0124 5.69655 40.9365 5.71633 40.8475 5.70314C40.7667 5.68995 40.7057 5.65862 40.6645 5.60586C40.6232 5.5531 40.5985 5.46242 40.5952 5.33546C40.5952 5.25137 40.5771 5.18377 40.5424 5.13101C40.4765 5.03043 40.3743 4.94139 40.2391 4.8672C40.1039 4.793 39.9621 4.74189 39.817 4.72045C39.6356 4.69242 39.4641 4.70562 39.3009 4.76003C39.1377 4.81444 38.9843 4.92161 38.8409 5.07989C38.6974 5.23818 38.6067 5.43933 38.5688 5.68336L38.5078 6.07412C38.4617 6.36431 38.5309 6.62318 38.7106 6.85071C38.892 7.07825 39.169 7.22004 39.5433 7.2794C39.7675 7.31402 39.9604 7.31402 40.1253 7.2761C40.2209 7.25467 40.3281 7.20026 40.4468 7.11287C40.5194 7.06011 40.5754 7.02713 40.6133 7.01394C40.6513 7.00075 40.6925 6.99745 40.7386 7.00405C40.8194 7.01724 40.8854 7.05846 40.9365 7.12771C40.9876 7.19861 41.0074 7.27445 40.9942 7.35689C40.981 7.43933 40.9266 7.52177 40.8293 7.60257C40.6875 7.72128 40.5177 7.80537 40.3166 7.85483C40.0478 7.92078 39.7593 7.93068 39.4526 7.88286C39.0948 7.8268 38.7848 7.70314 38.521 7.51188C38.3083 7.35854 38.1401 7.1409 38.0165 6.86225C37.8928 6.58195 37.8549 6.29341 37.9011 5.99333L37.9654 5.58443C38.0148 5.27116 38.1335 4.98921 38.3215 4.74024C38.5095 4.49127 38.7452 4.3132 39.0272 4.20603C39.3091 4.09886 39.596 4.06918 39.8862 4.11369C40.061 4.14172 40.2209 4.18624 40.3677 4.25055C40.5128 4.31485 40.6463 4.39729 40.765 4.50116L40.7617 4.49952Z" fill="#4D3A3F"/>
<path d="M42.7931 6.97757L42.5343 7.8366L44.0264 8.28507L44.1221 7.9685C44.1649 7.82835 44.221 7.73602 44.2935 7.6915C44.3661 7.64863 44.4452 7.63874 44.5326 7.66512C44.6183 7.6915 44.6794 7.74097 44.7156 7.81846C44.7519 7.89431 44.7486 8.00313 44.7057 8.14328L44.4337 9.04517L41.6818 8.21582C41.5417 8.17295 41.4493 8.11689 41.4048 8.04435C41.362 7.9718 41.3521 7.89266 41.3784 7.80527C41.4048 7.71953 41.4559 7.65853 41.5334 7.6239C41.6109 7.58763 41.7181 7.59093 41.8566 7.63215L41.9473 7.66018L42.6365 5.37328L42.5458 5.34525C42.4057 5.30239 42.3133 5.24633 42.2688 5.17378C42.2259 5.10123 42.216 5.02209 42.2424 4.9347C42.2688 4.84732 42.3199 4.78466 42.3958 4.75004C42.4716 4.71376 42.5804 4.71706 42.7206 4.75993L45.3438 5.553L45.0767 6.44336C45.0355 6.58186 44.9778 6.67419 44.9069 6.71706C44.836 6.76158 44.7568 6.76982 44.6695 6.74344C44.5821 6.71706 44.5194 6.66595 44.4831 6.59175C44.4469 6.51755 44.4502 6.40873 44.4914 6.26858L44.5837 5.96356L43.2202 5.553L42.9662 6.39719L43.479 6.55218C43.5252 6.40049 43.5681 6.30651 43.6109 6.27188C43.6983 6.19604 43.7956 6.1746 43.9044 6.20758C43.9901 6.23396 44.0512 6.28507 44.0874 6.36092C44.1237 6.43676 44.1204 6.54558 44.0775 6.68573L43.8747 7.35844C43.8368 7.4854 43.7956 7.56619 43.7511 7.60082C43.6637 7.67172 43.5681 7.6915 43.4658 7.66182C43.357 7.62885 43.2878 7.55795 43.2564 7.44583C43.2416 7.39307 43.2564 7.29084 43.3026 7.13586L42.7898 6.98087L42.7931 6.97757Z" fill="#4D3A3F"/>
<path d="M48.4419 9.7986L47.1163 9.13413L46.8162 9.39959L46.9498 9.46719C47.0817 9.53314 47.1625 9.60569 47.1922 9.68318C47.2235 9.76232 47.2169 9.84147 47.1773 9.92391C47.1377 10.003 47.0767 10.0542 46.9959 10.0772C46.9152 10.1003 46.808 10.0772 46.6777 10.0129L45.9424 9.64526C45.8105 9.57931 45.7297 9.50676 45.7 9.42927C45.6703 9.35012 45.6753 9.27098 45.7148 9.18854C45.7544 9.1061 45.8187 9.05499 45.9028 9.03355C45.9869 9.01212 46.0957 9.0352 46.2293 9.10775L48.1567 7.40124L47.8006 7.22316C47.6687 7.15721 47.5879 7.08467 47.5582 7.00717C47.5269 6.92803 47.5335 6.84889 47.573 6.76645C47.6142 6.68401 47.6753 6.63289 47.756 6.60981C47.8368 6.58673 47.944 6.60981 48.0743 6.67411L49.2532 7.26768L48.9959 10.4944C49.1246 10.5587 49.2004 10.6148 49.2284 10.6642C49.2812 10.7631 49.2828 10.8621 49.235 10.9577C49.1954 11.0385 49.1344 11.0896 49.0537 11.1127C48.9729 11.1358 48.8673 11.1127 48.7354 11.0484L48.0001 10.6807C47.8682 10.6148 47.7874 10.5422 47.7577 10.4647C47.7264 10.3856 47.733 10.3064 47.7725 10.224C47.8121 10.1448 47.8731 10.0937 47.9539 10.0707C48.0347 10.0476 48.1419 10.0707 48.2721 10.135L48.4057 10.2009L48.4419 9.8019V9.7986ZM48.4898 9.13908L48.592 7.83817L47.6077 8.6972L48.4898 9.13908Z" fill="#4D3A3F"/>
<path d="M49.9357 11.6271C49.8549 11.6486 49.7972 11.6585 49.7593 11.6552C49.7214 11.6519 49.6835 11.6354 49.6439 11.609C49.5664 11.5562 49.5235 11.4886 49.512 11.4045C49.5004 11.3205 49.5367 11.2199 49.6175 11.0995L49.85 10.7599C49.9324 10.6395 50.0165 10.5686 50.0973 10.5488C50.1797 10.529 50.2589 10.5455 50.3364 10.5983C50.3957 10.6395 50.4337 10.689 50.4534 10.7467C50.4716 10.806 50.4666 10.8786 50.4386 10.966C50.4106 11.0534 50.3974 11.1177 50.4023 11.1605C50.4155 11.2446 50.4633 11.3534 50.5491 11.4886C50.6348 11.6238 50.7486 11.7409 50.8937 11.8398C51.1179 11.9932 51.3389 12.0674 51.5532 12.0624C51.6884 12.0624 51.789 12.0146 51.8533 11.9206C51.8962 11.858 51.9143 11.7854 51.9077 11.6997C51.9011 11.6139 51.8599 11.52 51.7857 11.4144C51.7362 11.3452 51.6142 11.21 51.4147 11.0121C51.174 10.7731 51.0091 10.5686 50.9168 10.4004C50.8261 10.2322 50.7832 10.0542 50.7915 9.86621C50.7997 9.6799 50.8558 9.51007 50.9596 9.35673C51.1245 9.11601 51.3702 8.97421 51.695 8.93134C52.0198 8.88847 52.3446 8.97751 52.6678 9.2001C52.7964 9.28913 52.9069 9.38476 52.9976 9.49029C53.0882 9.59416 53.1591 9.70793 53.2086 9.82829C53.3174 9.81015 53.4048 9.8217 53.4708 9.86786C53.545 9.91897 53.5862 9.98493 53.5977 10.069C53.6093 10.1531 53.573 10.2537 53.4922 10.374L53.2333 10.7516C53.1509 10.872 53.0668 10.9429 52.986 10.9627C52.9036 10.9825 52.8261 10.966 52.7519 10.9165C52.6892 10.8736 52.648 10.8176 52.6282 10.7483C52.6117 10.6956 52.6216 10.6214 52.6612 10.5257C52.7008 10.4301 52.7189 10.3543 52.7156 10.2998C52.7107 10.2042 52.676 10.1036 52.6101 9.99647C52.5441 9.8893 52.4502 9.79202 52.3248 9.70628C52.1435 9.58097 51.9703 9.52491 51.8071 9.53645C51.6439 9.54799 51.5301 9.60076 51.4675 9.69144C51.4246 9.75409 51.4048 9.82829 51.4081 9.91733C51.4114 10.0064 51.4444 10.0937 51.5054 10.1844C51.545 10.2454 51.6769 10.3905 51.8994 10.6181C52.122 10.8456 52.282 11.0369 52.3793 11.1935C52.4765 11.3485 52.526 11.5233 52.5293 11.7162C52.5326 11.9091 52.4732 12.0937 52.3496 12.2718C52.1781 12.5208 51.9539 12.6593 51.6769 12.689C51.3092 12.7252 50.9464 12.6197 50.5854 12.374C50.4469 12.2784 50.3215 12.1679 50.2144 12.0443C50.1055 11.9206 50.0116 11.7821 49.9341 11.6288L49.9357 11.6271Z" fill="#4D3A3F"/>
<path d="M52.8903 13.8086C52.8079 13.8201 52.7485 13.8218 52.7123 13.8119C52.676 13.802 52.6397 13.7822 52.6051 13.7509C52.5358 13.6882 52.5012 13.6157 52.5012 13.5299C52.5012 13.4442 52.549 13.3502 52.6463 13.2414L52.9217 12.9364C53.0206 12.8275 53.1113 12.7682 53.1954 12.7599C53.2795 12.7517 53.3553 12.7781 53.4245 12.8407C53.4773 12.8885 53.5103 12.943 53.5202 13.004C53.5317 13.065 53.5169 13.1359 53.4773 13.22C53.4377 13.3024 53.4163 13.365 53.4163 13.4079C53.4163 13.492 53.4526 13.6074 53.5185 13.7525C53.5845 13.8976 53.6834 14.0295 53.8137 14.1466C54.0165 14.3296 54.2242 14.4318 54.4386 14.4533C54.5738 14.4697 54.6776 14.4368 54.7535 14.3527C54.8046 14.2966 54.831 14.2257 54.8359 14.14C54.8409 14.0543 54.8128 13.9553 54.7518 13.8416C54.7123 13.7657 54.6084 13.6173 54.4369 13.3931C54.2308 13.1243 54.0923 12.9001 54.0247 12.7204C53.9555 12.5406 53.939 12.3593 53.9703 12.1746C54.0033 11.9899 54.0808 11.83 54.2044 11.6915C54.4006 11.4755 54.6612 11.3667 54.9909 11.3667C55.319 11.3667 55.629 11.4986 55.9192 11.7608C56.0363 11.8663 56.1319 11.9768 56.2077 12.0922C56.2836 12.2076 56.338 12.328 56.3726 12.4549C56.4831 12.45 56.5688 12.4747 56.6282 12.5275C56.6941 12.5868 56.7271 12.6594 56.7288 12.7435C56.7304 12.8275 56.6809 12.9232 56.5837 13.032L56.277 13.3733C56.1781 13.4821 56.0874 13.5415 56.0033 13.5497C55.9192 13.558 55.845 13.5332 55.7774 13.4722C55.7213 13.4211 55.6884 13.3601 55.6768 13.2892C55.6669 13.2348 55.6884 13.1622 55.7395 13.0732C55.7906 12.9842 55.8186 12.9116 55.8236 12.8556C55.8318 12.7616 55.8104 12.6561 55.7593 12.5406C55.7081 12.4252 55.6274 12.3164 55.5152 12.2158C55.352 12.0691 55.1871 11.9899 55.0239 11.9801C54.8607 11.9702 54.7419 12.0064 54.6661 12.0889C54.615 12.1449 54.587 12.2175 54.5787 12.3049C54.5705 12.3923 54.5903 12.4846 54.6397 12.5819C54.671 12.6478 54.7832 12.8078 54.9744 13.0633C55.1657 13.3189 55.2992 13.5299 55.3734 13.6965C55.4493 13.863 55.4757 14.0427 55.4526 14.234C55.4295 14.4252 55.3471 14.6 55.202 14.7616C54.9992 14.9858 54.7601 15.0946 54.4798 15.0864C54.1105 15.0749 53.7642 14.9215 53.4394 14.6297C53.3141 14.5159 53.2053 14.3906 53.1146 14.2538C53.0239 14.1169 52.948 13.9669 52.8903 13.8053V13.8086Z" fill="#4D3A3F"/>
<path d="M58.4831 17.2779C58.0709 17.6291 57.6158 17.7907 57.1178 17.7627C56.6199 17.7347 56.2242 17.5467 55.9307 17.2021C55.6669 16.8921 55.5432 16.5145 55.5581 16.071C55.5779 15.522 55.8136 15.0554 56.2638 14.6712C56.7139 14.287 57.2135 14.1287 57.7609 14.1963C58.2011 14.2507 58.554 14.4338 58.8178 14.7437C59.1113 15.0883 59.2316 15.5088 59.1822 16.0051C59.1327 16.5014 58.8986 16.9251 58.4847 17.2779H58.4831ZM58.0873 16.8113C58.3693 16.5706 58.5309 16.2854 58.5704 15.9572C58.61 15.6291 58.5375 15.3554 58.3512 15.1378C58.1665 14.9218 57.9093 14.808 57.5779 14.7948C57.2465 14.7817 56.9398 14.8954 56.6595 15.1345C56.3775 15.3736 56.2176 15.6572 56.178 15.9869C56.1385 16.315 56.211 16.5887 56.394 16.8047C56.5787 17.0224 56.8376 17.1378 57.1673 17.1526C57.4971 17.1675 57.8038 17.0537 58.0857 16.813L58.0873 16.8113Z" fill="#4D3A3F"/>
<path d="M61.5993 19.0042C61.6636 19.0075 61.718 19.0223 61.7642 19.0454C61.8104 19.0685 61.8466 19.1031 61.8747 19.146C61.9225 19.2218 61.9373 19.2993 61.9159 19.3801C61.8945 19.4609 61.8219 19.5417 61.6999 19.6208L61.2646 19.9011C61.141 19.9803 61.0371 20.0132 60.9546 20.0001C60.8722 19.9869 60.8063 19.9423 60.7568 19.8665C60.7123 19.7973 60.6958 19.7313 60.7073 19.6637C60.7189 19.5961 60.77 19.5203 60.8623 19.4329C60.925 19.3768 60.9645 19.3174 60.9794 19.2581C61.0107 19.141 61.0091 19.0075 60.9744 18.8558C60.9398 18.7041 60.8837 18.5672 60.803 18.4436C60.704 18.2902 60.5787 18.1699 60.4303 18.0858C60.2803 18.0001 60.0989 17.9572 59.8846 17.9555C59.6702 17.9555 59.4608 18.0198 59.2531 18.1534L58.92 18.3677C58.6727 18.5277 58.5243 18.7503 58.4748 19.0355C58.4254 19.3207 58.5029 19.6241 58.709 19.9423C58.831 20.132 58.9612 20.2771 59.0981 20.376C59.1772 20.4337 59.2894 20.4766 59.4344 20.5062C59.5218 20.5244 59.5845 20.5442 59.6191 20.5639C59.6537 20.5837 59.6851 20.6134 59.7098 20.6513C59.7543 20.7189 59.7675 20.7964 59.7477 20.8822C59.7296 20.9679 59.6851 21.0322 59.6158 21.0784C59.5449 21.1229 59.4476 21.1377 59.3223 21.1179C59.1393 21.0916 58.9629 21.019 58.7931 20.9019C58.5639 20.7453 58.366 20.5359 58.1978 20.2754C58.0016 19.972 57.8879 19.6571 57.8549 19.3339C57.8285 19.0718 57.878 18.803 58.0049 18.5244C58.1319 18.2457 58.3232 18.0248 58.5771 17.8599L58.925 17.6357C59.1921 17.4642 59.4806 17.3653 59.7922 17.3405C60.1039 17.3158 60.3924 17.3735 60.6595 17.512C60.9266 17.6522 61.141 17.8451 61.2992 18.0924C61.3949 18.2408 61.4674 18.3908 61.5169 18.5425C61.5664 18.6942 61.5911 18.8475 61.5944 19.0058L61.5993 19.0042Z" fill="#4D3A3F"/>
<path d="M62.7403 22.1485L60.5836 23.1757L60.8491 23.733C60.9117 23.8649 60.9315 23.9721 60.9068 24.0529C60.8821 24.1337 60.8293 24.1931 60.7469 24.2326C60.6661 24.2705 60.5869 24.2738 60.5094 24.2425C60.4319 24.2095 60.361 24.1271 60.2984 23.9952L59.5053 22.3299C59.4427 22.198 59.4229 22.0908 59.4476 22.01C59.4723 21.9292 59.5251 21.8699 59.6075 21.8303C59.6883 21.7924 59.7675 21.7891 59.845 21.8204C59.9225 21.8534 59.9934 21.9342 60.056 22.0677L60.3215 22.625L62.4781 21.5978L62.2126 21.0405C62.15 20.9086 62.1302 20.8015 62.1533 20.7207C62.178 20.6399 62.2308 20.5805 62.3132 20.5409C62.3957 20.5014 62.4765 20.4981 62.5539 20.5294C62.6314 20.5624 62.7023 20.6432 62.765 20.7767L63.5548 22.442C63.6174 22.5739 63.6372 22.6811 63.6141 22.7619C63.591 22.8427 63.5383 22.902 63.4558 22.9416C63.3734 22.9812 63.2926 22.9845 63.2151 22.9515C63.1376 22.9202 63.0667 22.8377 63.0024 22.7042L62.737 22.1469L62.7403 22.1485Z" fill="#4D3A3F"/>
<path d="M62.4122 26.971L61.9588 25.558L61.5581 25.53L61.6043 25.6718C61.6488 25.8119 61.6537 25.9207 61.6191 25.9966C61.5845 26.0741 61.5235 26.1252 61.4361 26.1532C61.3504 26.1813 61.2712 26.173 61.1987 26.1301C61.1261 26.0873 61.0668 25.9966 61.0223 25.8564L60.77 25.0733C60.7255 24.9331 60.7205 24.8243 60.7551 24.7484C60.7898 24.671 60.8508 24.6198 60.9382 24.5918C61.0255 24.5638 61.1063 24.572 61.1805 24.6165C61.2547 24.6611 61.3141 24.7567 61.357 24.9018L63.9241 25.0848L63.8021 24.7039C63.7576 24.5638 63.7527 24.455 63.7873 24.3791C63.8219 24.3016 63.8829 24.2505 63.9703 24.2225C64.0577 24.1944 64.1368 24.201 64.211 24.2439C64.2836 24.2868 64.3429 24.3775 64.3875 24.5176L64.7881 25.774L62.3034 27.8482C62.3479 27.985 62.3611 28.079 62.3446 28.1318C62.31 28.239 62.2424 28.3082 62.1401 28.3412C62.0544 28.3692 61.9753 28.361 61.9027 28.3198C61.8302 28.2785 61.7708 28.1879 61.7263 28.0477L61.4757 27.2645C61.4312 27.1244 61.4262 27.0156 61.4608 26.9397C61.4955 26.8622 61.5565 26.8111 61.6438 26.7831C61.7296 26.755 61.8087 26.7633 61.8813 26.8062C61.9538 26.849 62.0132 26.9397 62.0577 27.0799L62.1039 27.2217L62.4138 26.9694L62.4122 26.971ZM62.9167 26.5423L63.9176 25.7048L62.615 25.6042L62.9167 26.5423Z" fill="#4D3A3F"/>
<path d="M65.113 29.7378L62.7634 30.1698L62.8376 30.5738C62.864 30.7189 62.8558 30.826 62.8113 30.8986C62.7667 30.9711 62.6991 31.014 62.6101 31.0305C62.5227 31.047 62.4452 31.0305 62.3776 30.9777C62.31 30.925 62.2639 30.8277 62.2375 30.6843L61.9786 29.2778C61.9522 29.1327 61.9605 29.0256 62.005 28.953C62.0495 28.8805 62.1171 28.8376 62.2061 28.8211C62.2935 28.8046 62.371 28.8211 62.4386 28.8739C62.5062 28.925 62.5524 29.0239 62.5788 29.1673L62.653 29.568L65.0025 29.136L64.8838 28.4847L64.315 28.5886C64.1699 28.615 64.0627 28.6068 63.9902 28.5622C63.9193 28.5177 63.8747 28.4501 63.8582 28.3611C63.8418 28.2737 63.8582 28.1962 63.911 28.1286C63.9621 28.061 64.0594 28.0148 64.2045 27.9885L65.3768 27.7725L65.9456 30.8838L64.7766 31.0981C64.6315 31.1245 64.5244 31.1162 64.4518 31.0717C64.3793 31.0272 64.3364 30.9596 64.3199 30.8706C64.3034 30.7832 64.3199 30.7057 64.3727 30.6381C64.4238 30.5705 64.5227 30.5243 64.6662 30.4979L65.235 30.3941L65.1146 29.7345L65.113 29.7378Z" fill="#4D3A3F"/>
<path d="M65.5086 33.1196L63.1261 33.2878L63.169 33.9028C63.1789 34.0495 63.1591 34.1567 63.1063 34.2226C63.0536 34.2886 62.9827 34.3249 62.892 34.3315C62.8029 34.3381 62.7271 34.3117 62.6677 34.254C62.6067 34.1963 62.5705 34.0924 62.5606 33.9456L62.4303 32.1056C62.4204 31.9588 62.4402 31.8533 62.493 31.7857C62.5457 31.7198 62.6166 31.6835 62.7073 31.6769C62.7963 31.6703 62.8722 31.6967 62.9315 31.7544C62.9926 31.8121 63.0288 31.916 63.0387 32.0627L63.0816 32.6777L65.4641 32.5095L65.4212 31.8945C65.4114 31.7478 65.4311 31.6406 65.4839 31.5747C65.5367 31.5087 65.6076 31.4724 65.6982 31.4658C65.7889 31.4592 65.8648 31.4856 65.9258 31.5433C65.9868 31.601 66.0214 31.7049 66.0329 31.85L66.1599 33.6901C66.1698 33.8368 66.15 33.9423 66.0989 34.0099C66.0478 34.0775 65.9769 34.1122 65.8862 34.1188C65.7955 34.1254 65.7197 34.099 65.6587 34.0413C65.5977 33.9836 65.5614 33.8797 65.5515 33.7329L65.5086 33.1179V33.1196Z" fill="#4D3A3F"/>
<path d="M64.2539 38.1285C63.7115 38.1021 63.2696 37.9092 62.9266 37.5481C62.5837 37.187 62.4221 36.7798 62.4435 36.328C62.4633 35.9208 62.6298 35.5613 62.9448 35.2481C63.3355 34.8606 63.8252 34.6809 64.4172 34.7089C65.0074 34.7369 65.4806 34.9628 65.8351 35.3849C66.1187 35.7262 66.2523 36.1005 66.2325 36.5077C66.2111 36.9595 66.0115 37.3503 65.6356 37.6767C65.2597 38.0032 64.7997 38.1549 64.2556 38.1285H64.2539ZM64.2836 37.5185C64.6546 37.5366 64.9662 37.4393 65.2201 37.2266C65.474 37.0139 65.6076 36.765 65.6208 36.4797C65.634 36.1961 65.5251 35.9356 65.291 35.6998C65.0569 35.464 64.7568 35.3371 64.3875 35.3206C64.0181 35.3025 63.7065 35.4014 63.4543 35.6124C63.2003 35.8251 63.0668 36.0725 63.0536 36.356C63.0404 36.6413 63.1492 36.9018 63.3801 37.1376C63.6109 37.3734 63.9126 37.5003 64.2836 37.5168V37.5185Z" fill="#4D3A3F"/>
<path d="M64.6529 39.7739L62.8375 39.4359L62.7963 39.6519C62.7699 39.797 62.7221 39.8943 62.6562 39.9454C62.5886 39.9965 62.5111 40.0146 62.4204 39.9965C62.333 39.98 62.2671 39.9355 62.2225 39.8646C62.178 39.792 62.1698 39.6849 62.1962 39.5398L62.3429 38.7516C62.3693 38.6065 62.4171 38.5093 62.4847 38.4581C62.5523 38.407 62.6298 38.3905 62.7205 38.407C62.8062 38.4235 62.8722 38.4664 62.9167 38.5373C62.9629 38.6082 62.9728 38.7071 62.9497 38.8341L65.2976 39.271L65.3157 39.177C65.3421 39.0319 65.3899 38.9347 65.4575 38.8835C65.5251 38.8324 65.6026 38.8159 65.6933 38.8324C65.7823 38.8489 65.8499 38.8934 65.8944 38.966C65.939 39.0385 65.9472 39.1457 65.9208 39.2908L65.7889 39.9849L63.0964 41.0715L64.9035 41.4079L64.9447 41.1919C64.9711 41.0468 65.0189 40.9495 65.0849 40.8984C65.1525 40.8473 65.23 40.8308 65.3207 40.8473C65.4097 40.8638 65.4773 40.9083 65.5218 40.9808C65.5663 41.0534 65.5746 41.1605 65.5482 41.3056L65.3981 42.0921C65.3718 42.2372 65.324 42.3345 65.258 42.3856C65.192 42.4367 65.1146 42.4549 65.0239 42.4367C64.9365 42.4202 64.8689 42.3774 64.8244 42.3065C64.7782 42.2356 64.7683 42.1366 64.7914 42.013L61.8417 41.4639L61.9521 40.8687L64.6562 39.7755L64.6529 39.7739Z" fill="#4D3A3F"/>
<path d="M34.9992 70C15.7016 70 0 54.2984 0 34.9992C0 15.6999 15.7016 0 34.9992 0C54.2968 0 69.9984 15.7016 69.9984 34.9992C69.9984 54.2968 54.2968 69.9984 34.9992 69.9984V70ZM34.9992 0.989283C16.2457 0.989283 0.989283 16.2457 0.989283 34.9992C0.989283 53.7527 16.2457 69.0091 34.9992 69.0091C53.7527 69.0091 69.0091 53.7527 69.0091 34.9992C69.0091 16.2457 53.7527 0.989283 34.9992 0.989283Z" fill="#4D3A3F"/>
<path d="M52.5935 57.2714C52.521 57.2714 52.4484 57.2401 52.4006 57.1791C52.3149 57.0719 52.333 56.9169 52.4385 56.8312C56.737 53.3934 59.901 48.8213 61.5861 43.6127C61.6273 43.4824 61.7675 43.4115 61.8977 43.4544C62.028 43.4956 62.0989 43.6358 62.056 43.766C60.3396 49.0669 57.1211 53.7182 52.7469 57.217C52.7007 57.2532 52.6463 57.2714 52.5919 57.2714H52.5935Z" fill="#4D3A3F"/>
<path d="M17.4657 57.3173C17.4113 57.3173 17.3569 57.2992 17.3124 57.2629C12.9546 53.7955 9.73284 49.1837 7.99665 43.9257C7.95378 43.7955 8.02468 43.657 8.15329 43.6141C8.28354 43.5712 8.42204 43.6421 8.46491 43.7707C10.1714 48.9381 13.3371 53.4706 17.6191 56.8771C17.7262 56.9628 17.7444 57.1178 17.6586 57.225C17.6092 57.286 17.5383 57.319 17.4657 57.319V57.3173Z" fill="#4D3A3F"/>
<path d="M54.0462 59.1227C53.9736 59.1227 53.9011 59.0914 53.8532 59.0304C53.7675 58.9232 53.7856 58.7682 53.8928 58.6825C58.5523 54.9595 61.9851 50.0098 63.8186 44.3676C63.8615 44.2373 64 44.1664 64.1302 44.2093C64.2605 44.2522 64.3314 44.3906 64.2885 44.5209C62.4254 50.2554 58.9382 55.286 54.2011 59.0683C54.155 59.1046 54.1006 59.1227 54.0462 59.1227Z" fill="#4D3A3F"/>
<path d="M16.0676 59.212C16.0132 59.212 15.9604 59.1938 15.9142 59.1592C11.0964 55.3472 7.55975 50.259 5.68835 44.442C5.64713 44.3117 5.71803 44.1732 5.84829 44.1304C5.97854 44.0891 6.11704 44.16 6.15991 44.2903C8.00163 50.0133 11.4806 55.0207 16.2226 58.7701C16.3297 58.8542 16.3479 59.0108 16.2638 59.118C16.2143 59.179 16.1418 59.212 16.0692 59.212H16.0676Z" fill="#4D3A3F"/>
<path d="M34.9992 9.90283C21.1607 9.90283 9.90271 21.1609 9.90271 34.9993C9.90271 48.8377 21.1607 60.0974 34.9992 60.0974C48.8376 60.0974 60.0973 48.8394 60.0973 34.9993C60.0973 21.1592 48.8392 9.90283 34.9992 9.90283ZM53.6521 44.0133C51.258 43.2549 45.7725 44.1155 43.6587 43.7412C43.5812 43.6934 43.4872 43.6555 43.4097 43.611C43.2185 43.5055 42.9893 43.1378 42.8656 42.9614C42.3809 42.2656 42.0692 41.6407 41.8796 40.8196C41.7312 40.1831 41.6801 39.7116 41.7593 39.2631C43.0206 38.132 45.7246 36.5624 46.5523 34.6481C47.5053 32.4436 49.9637 28.8608 48.2094 24.3678C47.2251 21.8468 46.2325 19.7149 43.1179 18.4107C36.6842 15.7165 32.7749 14.47 28.9167 18.381C25.9192 21.4197 27.0734 20.1963 25.0222 20.9976C22.986 21.794 22.6694 23.7808 23.8335 26.2705C24.3644 27.4049 25.9027 27.7957 26.9777 27.245C27.9802 26.7322 27.7131 26.7866 28.9332 25.9292L30.5342 25.2285C31.3289 24.6695 31.3438 26.3018 31.8697 26.7157C33.779 28.2178 36.7568 28.9053 38.9349 28.0232C38.6826 30.7882 39.1393 30.8146 39.2712 31.2235C39.3091 31.3389 39.568 31.9045 39.6735 31.9638C40.2836 32.3117 40.244 33.4461 40.831 33.5005C41.6504 31.2202 41.7246 30.3958 43.474 30.4898C45.1311 30.5788 44.8491 31.6621 44.77 33.1889C44.7271 34.0067 44.0412 34.8707 43.7922 35.6324C43.2152 37.3966 42.0874 37.2713 42.0874 37.2713C42.0874 37.2713 41.3421 38.1502 41.474 39.5384C41.474 39.5384 41.474 39.5384 41.4757 39.5368C41.4081 39.9045 41.4147 40.2887 41.4839 40.6349C41.634 41.3637 41.812 42.0281 42.1896 42.6728C42.2918 42.8476 42.4946 43.1872 42.5969 43.362C42.6974 43.5335 42.9217 43.7792 43.1921 43.9144C43.1921 43.9144 43.1921 43.9144 43.1937 43.9144C43.258 43.9473 43.3256 43.9721 43.3965 43.9886C43.596 44.0974 43.6768 44.2804 43.6504 44.5063C43.0783 44.8773 42.2737 45.5747 40.4468 46.4882C37.7296 47.8484 35.0816 48.2755 32.9975 48.2293C29.3421 47.9028 28.1434 46.7701 27.5828 46.7272C27.7049 46.7009 27.8252 46.6728 27.9505 46.6497C29.1937 46.4074 32.4369 46.4288 32.7799 44.6398C32.9217 43.9012 32.6282 42.8773 32.3627 42.6217L32.0132 42.8097C32.2506 43.0042 32.4188 43.4065 32.4831 43.6555C32.8903 45.245 31.2663 45.977 30.1187 46.071C28.6826 46.1881 27.3916 46.4717 26.2341 46.8558C25.1377 47.1114 23.9522 47.7 22.8557 48.442C20.2325 50.0842 18.8343 52.0413 18.4946 52.5574C13.817 48.1567 10.8903 41.916 10.8903 35.0026C10.8903 21.7099 21.7049 10.8954 34.9975 10.8954C48.2902 10.8954 59.1063 21.7099 59.1063 35.0026C59.1063 38.808 58.2193 42.4107 56.6414 45.6143C56.0429 45.0817 54.9728 44.4354 53.6504 44.0149L53.6521 44.0133Z" fill="#4D3A3F"/>
<path d="M26.8573 34.4406C27.2745 34.6533 27.812 34.6714 28.1929 34.3994C28.5919 34.5675 29.0964 34.5313 29.4262 34.251C29.8351 33.9047 29.8318 33.7135 29.3322 34.0663C29.0502 34.2658 28.8656 34.1191 28.4023 34.0811C27.8845 34.0383 28.2456 34.03 27.9901 33.8932C27.845 33.8157 27.8153 34.1075 27.2778 34.1059C26.9299 34.1059 26.7633 33.9212 26.4484 33.6937C26.3709 33.6376 26.2258 33.5238 26.1945 33.3029C26.1483 32.9863 26.4666 32.8759 26.5177 32.7967L27.0799 32.373C27.2415 32.1916 27.3833 31.7975 27.3503 31.7201C27.3042 31.7596 27.2563 31.7959 27.2102 31.8338C27.2316 31.7992 27.2514 31.7629 27.2662 31.725C27.4427 31.3029 27.4212 30.8149 27.2102 30.401C27.4113 30.4093 27.5399 30.5972 27.629 30.7604C27.6504 30.7984 27.6718 30.8396 27.6685 30.8825C27.6652 30.922 27.6422 30.9567 27.6207 30.9896C27.502 31.1776 27.3932 31.6409 27.53 31.8223C27.7526 31.5997 27.9587 31.1199 28.0725 30.8379C27.8598 30.6978 27.7856 30.4422 27.6059 30.2691C27.4031 30.0729 27.0816 30.0053 26.7897 30.0399C26.5012 30.0729 26.4979 30.1059 26.2555 30.2361C26.2341 30.2955 26.2489 30.3713 26.2835 30.4307C26.4814 30.772 26.3775 31.5684 26.699 31.8767C26.7831 31.9575 26.915 32.0004 27.0288 31.9723C26.6397 32.2609 26.2308 32.5263 25.9192 32.8973C25.8713 32.955 25.8235 33.016 25.8054 33.0886C25.7741 33.2106 25.8334 33.3342 25.8961 33.4447C26.1269 33.852 26.4385 34.2312 26.8557 34.4439L26.8573 34.4406Z" fill="#4D3A3F"/>
<path d="M31.2317 29.4789C31.7758 29.4591 33.6735 30.4583 34.1352 30.7287C34.31 30.8309 34.958 31.0947 33.7675 29.9538C33.5878 29.7823 33.0816 29.2464 32.8673 29.1211C32.2308 28.7485 31.4823 28.7749 31.2036 28.8524C31.0025 28.9084 29.7675 29.2382 30.1237 29.9158C30.5309 29.5712 30.6678 29.4987 31.2317 29.4789Z" fill="#4D3A3F"/>
<path d="M33.4064 31.1607C32.8771 30.8408 32.2885 30.5111 31.6801 30.6117C31.4163 30.6562 31.1673 30.8046 30.9282 30.9266C30.7403 31.0222 30.3841 31.0255 30.3957 31.2036L30.4171 31.2761C30.6611 31.385 31.0651 31.2217 31.4921 31.1129C31.2877 31.3536 31.0816 31.5861 31.1145 31.8928C31.1393 32.1269 31.2448 32.5259 31.4212 32.6611C31.5795 32.7831 31.7559 32.8854 31.9488 32.9183C32.3412 32.9843 32.7106 33.0107 32.9678 32.0906C33.042 31.8252 33.0156 31.5284 32.9002 31.2893C33.3041 31.5465 33.5746 31.9901 33.2629 32.5968C33.568 32.5853 33.9983 31.9455 33.906 31.6537C33.8334 31.4245 33.6125 31.2811 33.408 31.1574L33.4064 31.1607Z" fill="#4D3A3F"/>
<path d="M26.1451 29.672L26.8903 29.3933C27.7543 29.334 27.6224 29.3587 27.7823 29.6225C27.8549 29.7412 27.9769 30.0512 28.1154 30.0347C28.2061 29.9275 28.2094 29.7676 28.1615 29.6357C28.1137 29.5038 28.0214 29.3933 27.9324 29.2862C27.7477 29.0652 27.5399 28.8311 27.2564 28.7734C26.9876 28.719 26.7172 28.8377 26.4682 28.9531C26.3182 29.024 26.1599 29.0998 26.0709 29.2383C25.9818 29.3768 25.9983 29.5978 26.1467 29.672H26.1451Z" fill="#4D3A3F"/>
<path d="M26.2655 30.2193L26.3001 30.1748C26.2836 30.188 26.2737 30.2028 26.2655 30.2193Z" fill="#4D3A3F"/>
<path d="M26.2506 30.2391C26.2506 30.2391 26.2555 30.2359 26.2588 30.2342C26.2605 30.2293 26.2638 30.2227 26.267 30.2178L26.2506 30.2375V30.2391Z" fill="#4D3A3F"/>
<path d="M22.3033 42.9021C22.3314 43.9013 22.7304 44.9169 23.563 45.6276C24.3973 46.3366 25.6949 46.6878 26.8194 46.3712L26.6133 46.4256C27.5367 46.5295 28.4633 46.142 29.1228 45.588C29.7823 45.034 30.2259 44.325 30.6595 43.6292C30.7881 43.4215 30.892 43.1 30.9662 42.7141C31.4707 42.7339 31.8845 42.6812 32.6381 42.3135C32.7419 42.2624 32.9497 42.1008 32.8689 42.0793C32.3742 41.9524 31.8895 42.297 31.0321 42.3085C31.1756 41.217 31.1212 39.8172 30.8227 38.9928C30.7535 38.7999 30.6463 38.6169 30.5342 38.4454C30.5688 38.4174 30.6018 38.3893 30.6315 38.3646C30.7518 38.4817 30.8903 38.5806 31.0519 38.6548C31.136 38.6944 31.2399 38.6449 31.2481 38.5641C31.2629 38.4025 31.2514 38.2393 31.1459 38.1074C31.0865 38.0348 31.0041 37.9788 30.9266 37.9194C30.3874 37.5105 30.2259 36.3596 30.089 36.2805C29.9175 36.1816 29.9917 36.6202 29.9439 36.79C29.9291 36.8394 29.9126 36.8939 29.8631 36.9202C29.8252 36.9417 29.7757 36.9417 29.7296 36.9367C29.2085 36.8889 28.77 36.7999 28.272 36.6531C27.7906 36.5113 26.5556 36.5707 26.4023 36.5113C25.9934 36.3547 26.6084 34.7817 26.4451 34.7817L26.0527 35.9359C25.9406 36.729 26.3396 36.6515 26.5803 36.663C26.6067 36.663 26.6479 36.668 26.6958 36.6713C26.4996 36.7982 23.6751 38.6284 23.0338 39.9887C22.5952 40.9169 22.2786 41.9013 22.305 42.9005L22.3033 42.9021ZM30.1005 37.4577C30.1978 37.7611 30.3363 38.0365 30.5309 38.2607L30.4418 38.2574C30.4418 38.2574 30.4352 38.2657 30.4221 38.2805C30.2357 38.015 30.0544 37.7776 29.9967 37.5732C29.9901 37.5517 29.9818 37.5336 29.9703 37.5155C30.0626 37.4957 30.0906 37.4231 30.1022 37.4561L30.1005 37.4577ZM28.0742 41.7084C28.0742 41.832 27.9291 41.9326 27.8054 41.9326C27.6817 41.9326 27.6257 41.832 27.6257 41.7084C27.6257 41.5847 27.7296 41.5122 27.8499 41.4841C28.0033 41.4495 28.0742 41.5847 28.0742 41.7084ZM27.7592 38.8972C27.9126 38.8625 27.9835 38.9977 27.9835 39.1214C27.9835 39.2451 27.8384 39.3456 27.7147 39.3456C27.5911 39.3456 27.535 39.2451 27.535 39.1214C27.535 38.9977 27.6389 38.9252 27.7592 38.8972ZM26.61 40.6861C26.61 40.8098 26.4649 40.9103 26.3413 40.9103C26.2176 40.9103 26.1615 40.8098 26.1615 40.6861C26.1615 40.5624 26.2654 40.4899 26.3858 40.4619C26.5391 40.4272 26.61 40.5624 26.61 40.6861ZM26.023 38.6696C26.1764 38.635 26.2473 38.7702 26.2473 38.8939C26.2473 39.0175 26.1022 39.1181 25.9785 39.1181C25.8549 39.1181 25.7988 39.0175 25.7988 38.8939C25.7988 38.7702 25.9027 38.6976 26.023 38.6696ZM25.1838 41.9392C25.3371 41.9046 25.408 42.0398 25.408 42.1634C25.408 42.2871 25.2629 42.3877 25.1393 42.3877C25.0156 42.3877 24.9596 42.2871 24.9596 42.1634C24.9596 42.0398 25.0634 41.9672 25.1838 41.9392ZM24.5523 40.0101C24.7057 39.9755 24.7766 40.1107 24.7766 40.2343C24.7766 40.358 24.6315 40.4586 24.5078 40.4586C24.3841 40.4586 24.3281 40.358 24.3281 40.2343C24.3281 40.1107 24.432 40.0381 24.5523 40.0101Z" fill="#4D3A3F"/>
</g>
<defs>
<clipPath id="clip0_376_102">
<rect width="70" height="70" fill="white"/>
</clipPath>
</defs>
</svg>
