<svg width="245" height="119" viewBox="0 0 245 119" fill="none" xmlns="http://www.w3.org/2000/svg">
<path d="M84.9079 73.12H76.7179C71.9079 73.12 71.3879 74.94 70.3479 79.1C67.3579 91.32 60.4679 104.71 51.7579 113.81C50.3279 115.37 48.7679 117.06 46.6879 117.06C43.0479 117.06 33.4279 108.74 33.4279 105.1C33.4279 103.8 34.8579 102.76 36.1579 101.72C52.9279 87.42 55.0079 69.09 55.0079 45.69V25.8C55.0079 20.99 54.6179 16.18 54.6179 11.5C54.6179 6.43 56.6979 4.61 61.6379 4.61C65.7979 4.61 70.0879 5 74.2479 5H87.7679C91.7979 5 95.9579 4.61 100.118 4.61C103.758 4.61 107.268 5.13 107.268 11.5C107.268 16.31 107.008 20.99 107.008 25.8V90.15C107.008 93.4 107.398 96.65 107.398 99.9C107.398 104.71 106.748 109 102.848 112.25C98.4279 116.02 89.9779 116.93 84.3879 116.93C80.2279 116.93 78.9279 115.76 77.2379 110.82C76.3279 108.22 75.5479 104.32 75.5479 101.59C75.5479 99.64 76.1979 98.08 78.4079 98.08C78.9279 98.08 79.7079 98.08 80.2279 98.21C81.1379 98.34 82.4379 98.47 83.2179 98.47C88.5479 98.47 88.5479 95.87 88.5479 93.53V76.76C88.5479 75.07 87.1179 73.12 84.9079 73.12ZM76.9779 31.52H84.9079C86.9879 31.52 88.5479 29.96 88.5479 27.88V25.8C88.5479 23.72 86.9879 22.16 84.9079 22.16H76.9779C75.0279 22.16 73.3379 23.72 73.3379 25.8V27.88C73.3379 29.96 74.8979 31.39 76.9779 31.52ZM84.9079 47.25H77.3679C74.3779 47.25 73.3379 49.07 73.3379 51.8C73.3379 54.92 74.1179 56.87 77.6279 56.87H84.9079C86.9879 56.87 88.5479 55.31 88.5479 53.23V50.89C88.5479 48.94 87.1179 47.38 84.9079 47.25ZM23.8079 80.4H22.2479C20.4279 80.4 19.5179 81.7 19.5179 82.87C19.5179 84.82 19.7779 86.77 19.7779 88.85C19.7779 91.71 18.2179 91.97 13.9279 91.97H5.73792C1.83792 91.97 0.147915 91.71 0.147915 88.85C0.147915 83.13 0.537915 77.54 0.537915 71.82V26.06C0.537915 22.03 0.277916 17.87 0.277916 13.84C0.277916 8.77 3.13792 7.72999 7.68792 7.72999C12.1079 7.72999 16.3979 7.99 20.8179 7.99H24.8479C29.1379 7.99 33.4279 7.72999 37.8479 7.72999C42.2679 7.72999 45.3879 8.50999 45.3879 13.84C45.3879 17.87 45.1279 21.9 45.1279 26.06V66.49C45.1279 72.21 45.5179 77.8 45.5179 83.39C45.5179 86.38 43.6979 86.64 40.7079 86.64H32.5179C27.9679 86.64 26.5379 86.38 26.5379 83.52V82.87C26.5379 81.7 25.6279 80.4 23.8079 80.4ZM19.3879 27.62V32.56C19.3879 34.38 20.8179 35.68 22.5079 35.68H23.8079C25.4979 35.68 26.9279 34.25 26.9279 32.56V27.62C26.9279 25.93 25.4979 24.5 23.8079 24.5H22.5079C20.8179 24.5 19.3879 25.93 19.3879 27.62ZM19.3879 54.79V59.73C19.3879 61.42 20.8179 62.85 22.5079 62.85H23.8079C25.4979 62.85 26.9279 61.42 26.9279 59.73V54.79C26.9279 52.97 25.4979 51.67 23.8079 51.67H22.5079C20.6879 51.67 19.5179 52.97 19.3879 54.79ZM137.168 7.07999C137.948 6.03999 138.598 5.26 139.248 4.34999C140.288 2.91999 142.238 0.449995 144.188 0.449995C145.878 0.449995 152.378 5.38999 154.068 6.68999C156.668 8.77 160.308 11.89 162.648 14.1C163.298 14.75 163.688 15.14 163.688 16.18C163.688 18.78 156.538 28.27 153.548 28.27C152.508 28.27 149.778 25.8 148.868 25.02C144.578 21.51 140.158 18.13 135.608 14.88C134.568 14.23 133.918 13.71 133.918 12.54C133.918 11.37 135.608 9.29 137.168 7.07999ZM149.128 61.16C152.898 61.16 162.388 68.96 162.388 71.69C162.388 72.34 161.088 75.33 160.048 77.54C159.658 78.32 159.398 78.97 159.268 79.36C154.848 89.24 149.648 98.86 144.058 108.22C143.538 109.13 142.368 110.82 142.368 111.99C142.368 112.51 142.498 113.29 142.628 113.68C142.758 114.33 142.888 114.85 142.888 115.37C142.888 116.8 141.458 117.19 141.068 117.19C139.768 117.19 135.738 113.81 133.138 111.6C132.488 110.95 131.838 110.43 131.448 110.17C131.188 110.04 130.928 109.78 130.538 109.52C128.588 107.96 125.078 105.23 125.078 103.67C125.078 102.89 126.378 101.46 126.898 100.81C133.398 92.49 143.798 72.6 147.568 62.59C147.828 61.81 148.088 61.16 149.128 61.16ZM126.508 41.27C126.508 39.06 133.788 28.53 136.908 28.53C138.728 28.53 146.268 34.51 148.088 35.94C150.038 37.37 157.058 42.7 157.058 44.65C157.058 47.64 149.388 57 146.788 57C145.618 57 142.498 54.4 140.678 52.84C140.288 52.58 140.028 52.19 139.768 52.06C137.428 50.11 130.538 44.78 128.198 43.48C127.158 42.83 126.508 42.44 126.508 41.27ZM187.348 82.87V91.58C187.348 93.79 189.038 95.22 190.988 95.22H211.138C213.218 95.22 214.778 93.66 214.778 91.58V82.87C214.778 80.79 213.218 79.23 211.138 79.23H190.988C189.038 79.23 187.348 80.79 187.348 82.87ZM168.628 105.75V74.68C168.628 71.04 168.368 68.44 168.368 66.75C168.368 62.98 173.308 62.46 178.118 62.46C182.278 62.46 186.438 62.59 190.598 62.59H211.788C215.948 62.59 220.108 62.46 224.268 62.46C229.338 62.46 234.148 62.98 234.148 66.75C234.148 68.31 233.758 71.04 233.758 74.68V105.88C233.758 110.69 234.148 115.37 234.148 116.41C234.148 118.23 232.718 118.62 230.118 118.62H218.548C214.648 118.62 214.388 117.58 214.388 116.02C214.388 115.24 214.518 114.72 214.518 114.2C214.518 112.38 213.088 111.86 211.658 111.86H190.468C189.168 111.86 187.608 112.38 187.608 114.2C187.608 114.85 187.738 115.5 187.738 116.15C187.738 118.1 186.438 118.36 181.368 118.36H172.008C169.538 118.36 168.238 117.97 168.238 116.15C168.238 115.89 168.628 108.48 168.628 105.75ZM204.508 10.33C202.818 14.88 201.128 19.3 199.178 23.72C198.398 25.41 195.798 30.87 195.798 32.43C195.798 34.25 197.618 34.51 199.178 34.51C200.348 34.51 209.058 33.73 210.878 33.47C212.178 33.34 213.998 32.95 213.998 31.26C213.998 29.7 210.618 25.15 209.578 23.72C209.188 23.07 208.278 21.9 208.278 20.99C208.278 19.04 212.308 17.61 215.428 16.31C217.248 15.53 221.538 13.58 223.228 13.58C224.398 13.58 225.308 14.36 225.958 15.27C227.908 17.87 233.368 27.49 235.188 30.74C236.748 33.6 244.028 47.38 244.028 49.59C244.028 52.71 231.938 57.26 229.078 57.26C227.778 57.26 227.388 57 224.528 51.02C223.748 49.33 222.318 48.03 220.498 48.03C220.238 48.03 173.438 53.49 169.538 53.88C168.758 54.01 167.848 55.05 167.198 55.96C166.808 56.61 166.288 57.13 165.508 57.13C164.468 57.13 163.688 55.96 162.908 53.75C161.868 51.02 160.698 46.73 159.138 40.75C159.008 40.1 158.748 39.06 158.748 38.28C158.748 36.72 159.268 36.72 164.468 36.59C165.638 36.59 167.588 36.46 168.498 36.46C172.398 36.2 173.958 35.94 175.388 32.82C179.808 23.07 182.928 12.8 185.528 2.39999C185.918 0.839998 186.178 0.319997 187.738 0.319997C189.298 0.319997 198.008 2.14 200.218 2.66C204.638 3.56999 209.448 4.08999 209.448 6.03999C209.448 7.20999 208.148 7.47 207.368 7.85999C205.808 8.25 205.158 8.64 204.508 10.33Z" fill="#C6AE84"/>
</svg>
