<svg width="245" height="120" viewBox="0 0 245 120" fill="none" xmlns="http://www.w3.org/2000/svg">
<path d="M63.64 84.26V96.48C63.64 102.98 64.03 109.48 64.03 116.11C64.03 119.49 62.73 119.88 58.57 119.88H50.12C45.7 119.88 44.27 119.62 44.27 116.24C44.27 109.61 44.66 103.11 44.66 96.48V84.78C44.66 82.31 43.49 80.62 40.76 80.62H39.07C33.74 80.62 28.41 80.88 23.08 80.88C19.96 80.88 19.7 79.71 19.7 75.81V68.79C19.7 65.15 19.96 63.85 23.21 63.85C28.54 63.85 33.74 64.11 39.07 64.11H86C88.21 64.11 90.29 63.98 92.5 63.98C97.31 63.98 99.13 64.89 99.13 69.83C99.13 72.3 99 74.77 99 77.24V89.07C99 90.89 99.13 92.84 99.13 94.66C99.13 108.44 87.04 109.48 76.12 109.48H74.95C73 109.48 70.14 109.35 69.36 108.57C67.67 106.88 67.15 99.99 67.15 97.52C67.15 95.18 67.15 91.41 69.49 91.41C70.4 91.41 72.61 91.67 74.04 91.67C79.37 91.67 79.63 91.41 79.63 86.21V84.39C79.63 81.4 77.68 80.62 75.21 80.62H67.28C65.33 80.62 63.64 82.05 63.64 84.26ZM51.55 37.46H67.93C69.49 37.46 71.31 37.33 71.31 35.77C71.31 34.73 70.53 33.95 69.88 33.17C67.41 30.7 65.2 27.97 63.12 25.24C62.34 24.2 60.91 22.38 59.48 22.38C58.18 22.38 56.75 24.2 54.67 26.8C53.63 27.97 52.46 29.53 51.16 30.96C49.6 32.65 47.78 34.34 47.78 35.9C47.78 37.33 49.34 37.46 51.55 37.46ZM66.89 53.71H53.63C49.34 53.71 44.92 54.1 40.63 54.1C37.77 54.1 36.6 53.45 36.47 50.46C36.47 49.81 36.47 48.25 35.04 48.25C34 48.25 32.05 49.94 30.88 50.98C30.75 51.24 30.49 51.37 30.36 51.5C28.02 53.71 15.28 64.63 12.81 64.63C8.91 64.63 0.85 53.58 0.85 50.46C0.85 49.29 2.15 48.51 3.06 47.99C9.3 44.74 20.74 35.25 26.2 30.31C34.52 22.77 44.4 12.11 49.99 2.49C50.64 1.32 50.9 0.669997 52.46 0.669997C54.8 0.669997 64.29 2.62 68.97 3.52999C71.83 4.04999 74.04 4.44 74.04 6.26C74.04 7.55999 72.61 7.55999 72.61 9.12C72.61 9.89999 73.26 10.55 74.17 11.72C84.96 26.41 100.82 37.85 116.55 46.82C117.72 47.47 119.28 48.25 119.28 49.42C119.28 52.41 111.35 63.85 107.97 63.85C105.11 63.85 90.68 52.41 87.82 50.07C87.3 49.55 86.26 48.64 85.48 48.64C84.44 48.64 84.18 49.55 84.18 50.46C83.92 53.32 83.01 54.1 80.02 54.1C75.6 54.1 71.31 53.71 66.89 53.71ZM211.45 30.7V80.36C211.45 82.57 213.14 84 215.09 84H222.89C224.97 84 226.53 82.31 226.53 80.36V30.7C226.53 28.62 224.97 27.06 222.89 27.06H215.09C213.14 27.06 211.45 28.62 211.45 30.7ZM222.24 101.68H216C212.62 101.68 211.84 104.02 211.84 105.32V108.57C211.84 111.82 210.67 112.21 206.38 112.21H198.19C194.94 112.21 193.51 111.82 193.51 108.7C193.51 102.46 193.9 96.09 193.9 89.72V29.92C193.9 25.37 193.64 20.69 193.64 16.14C193.64 10.03 197.28 8.85999 202.61 8.85999C206.51 8.85999 210.54 9.12 214.44 9.12H223.8C227.7 9.12 231.6 8.85999 235.5 8.85999C240.7 8.85999 244.73 9.89999 244.73 16.01C244.73 20.69 244.47 25.37 244.47 29.92V89.2C244.47 95.44 244.86 101.68 244.86 107.92C244.86 111.3 243.43 111.69 239.79 111.69H231.6C227.96 111.69 226.27 111.43 226.27 108.44V105.58C226.27 103.11 224.58 101.68 222.24 101.68ZM170.11 78.41V94.4C170.11 101.16 170.5 107.92 170.5 114.68C170.5 118.06 169.2 118.32 164.65 118.32H157.11C152.95 118.32 151.52 117.93 151.52 114.81C151.52 108.18 151.91 101.68 151.91 95.18C151.91 94.4 151.78 93.23 150.74 93.23C149.83 93.23 149.18 94.27 148.79 94.92C145.54 100.38 145.15 100.77 143.59 100.77C140.86 100.77 136.7 97.39 134.49 95.7C132.67 94.4 129.42 92.45 129.42 89.98C129.42 88.81 131.11 86.99 131.76 85.95C138.65 77.5 143.33 69.7 147.36 59.56C147.62 58.65 149.05 54.88 149.05 54.1C149.05 52.15 147.36 52.02 145.93 52.02H144.24C140.34 52.02 136.7 52.28 134.88 52.28C132.28 52.28 132.02 50.85 132.02 47.6V39.41C132.02 35.51 132.28 34.21 134.88 34.21C136.96 34.21 140.34 34.47 144.24 34.47H148.79C150.48 34.47 151.91 33.17 151.91 31.35V29.14C151.91 27.32 151.26 26.15 149.31 26.15C148.66 26.15 147.1 26.41 146.32 26.54C145.02 26.67 141.64 27.06 140.47 27.06C137.22 27.06 135.92 24.33 134.1 20.95C133.32 19.52 131.11 15.49 131.11 14.06C131.11 11.85 133.71 11.98 135.92 11.72C146.45 10.42 165.43 7.03999 174.53 2.22999C175.18 1.97 176.09 1.45 176.87 1.45C178.43 1.45 180.25 3.79 183.76 7.55999L188.83 13.02C189.61 13.8 191.3 15.62 191.3 16.79C191.3 17.57 190.65 17.96 189.87 17.96C189.48 17.96 188.57 17.7 188.18 17.57C187.66 17.44 187.01 17.31 186.49 17.31C185.84 17.31 176.61 20.43 174.92 20.82C171.15 21.86 170.11 22.77 170.11 26.8V31.35C170.11 33.17 171.54 34.47 173.23 34.47H177.91C181.81 34.47 185.19 34.21 187.27 34.21C189.87 34.21 190.13 35.77 190.13 39.41V46.95C190.13 50.85 189.87 52.28 187.27 52.28C185.32 52.28 181.68 52.02 178.04 52.02C176.87 52.02 175.7 52.28 175.7 53.58C175.7 56.05 185.45 66.58 187.53 68.79C188.44 69.7 189.87 71 189.87 72.17C189.87 74.25 186.88 77.5 185.45 78.93L184.41 79.97C182.85 81.53 181.16 83.61 179.34 83.61C177.65 83.61 174.01 78.93 172.97 77.5C172.58 76.98 172.06 76.2 171.28 76.2C170.24 76.2 170.11 77.63 170.11 78.41Z" fill="white"/>
</svg>
