<svg width="241" height="119" viewBox="0 0 241 119" fill="none" xmlns="http://www.w3.org/2000/svg">
<path d="M1.01792 79.36V27.1C1.01792 22.94 0.757916 18.78 0.757916 14.49C0.757916 9.42 3.09792 8.25 7.12792 8.25C11.0279 8.25 14.7979 8.50999 18.5679 8.50999H22.9879C26.7579 8.50999 30.3979 8.25 34.1679 8.25C37.5479 8.25 40.6679 8.77 40.6679 14.49C40.6679 18.65 40.4079 22.94 40.4079 27.1V75.72C40.4079 81.44 40.7979 87.29 40.7979 93.14C40.7979 96.13 39.6279 96.39 35.7279 96.39H28.9679C25.0679 96.39 23.7679 96.13 23.7679 93.01V91.45C23.7679 89.5 22.7279 87.94 20.6479 87.94C18.8279 87.94 17.5279 89.24 17.5279 91.06C17.5279 92.88 17.6579 94.83 17.6579 96.65C17.6579 99.64 16.4879 100.03 12.4579 100.03H5.30792C2.18792 100.03 0.757916 99.77 0.757916 96.78C0.757916 90.93 1.01792 85.21 1.01792 79.36ZM17.3979 28.66V36.59C17.3979 38.41 18.6979 39.71 20.5179 39.71H21.0379C22.7279 39.71 24.1579 38.28 24.1579 36.59V28.66C24.1579 26.97 22.7279 25.54 21.0379 25.54H20.5179C18.6979 25.54 17.3979 26.97 17.3979 28.66ZM17.3979 58.69V67.66C17.3979 69.48 18.6979 70.78 20.5179 70.78H21.0379C22.7279 70.78 24.1579 69.48 24.1579 67.66V58.69C24.1579 56.87 22.7279 55.57 21.0379 55.57H20.5179C18.6979 55.57 17.5279 56.87 17.3979 58.69ZM61.2079 3.83H91.7579C96.3079 3.83 99.8179 3.56999 102.548 3.56999C108.528 3.56999 110.738 4.73999 110.738 12.67C110.738 20.6 109.568 39.19 106.448 46.08C103.198 53.36 96.4379 55.31 88.8979 55.31C82.6579 55.31 80.0579 55.18 78.7579 52.71C77.7179 50.89 77.0679 47.51 77.0679 41.79C77.0679 37.24 77.9779 36.33 80.1879 36.33C81.4879 36.33 83.3079 36.72 85.7779 36.72C88.8979 36.72 90.3279 36.2 91.1079 33.08C91.6279 31 92.1479 25.02 92.1479 22.94C92.1479 20.21 91.1079 20.08 88.2479 20.08H82.7879C78.7579 20.08 77.3279 21.12 76.6779 25.15C74.4679 37.11 67.4479 46.99 58.4779 55.05C56.5279 56.87 55.2279 58.3 53.6679 58.3C50.2879 58.3 41.4479 49.59 41.4479 46.21C41.4479 45.04 43.1379 43.87 44.0479 43.22C50.6779 38.28 55.8779 32.82 58.7379 25.02C58.9979 24.37 59.3879 22.81 59.3879 22.16C59.3879 20.73 58.3479 20.08 57.0479 20.08C54.3179 20.08 51.7179 20.34 48.9879 20.34C46.3879 20.34 46.1279 19.17 46.1279 15.92V7.85999C46.1279 4.48 46.3879 3.56999 49.2479 3.56999C53.1479 3.56999 57.1779 3.83 61.2079 3.83ZM86.1679 110.69H70.4379C67.9679 110.69 66.4079 112.12 66.4079 114.46V115.63C66.4079 118.1 65.4979 118.36 60.2979 118.36H52.1079C49.7679 118.36 48.2079 118.1 48.2079 115.76C48.2079 113.42 48.4679 109.91 48.4679 106.53V74.42C48.4679 71.56 48.2079 68.7 48.2079 65.97C48.2079 62.46 50.0279 61.42 53.2779 61.42C57.4379 61.42 61.7279 61.68 65.8879 61.68H91.6279C95.7879 61.68 99.8179 61.42 103.978 61.42C107.228 61.42 109.178 62.33 109.178 65.84C109.178 68.7 109.048 71.56 109.048 74.42V106.53C109.048 110.04 109.308 113.55 109.308 115.76C109.308 118.1 108.268 118.36 103.718 118.36H94.3579C92.1479 118.36 90.5879 118.1 90.5879 115.89V114.46C90.5879 111.86 88.6379 110.69 86.1679 110.69ZM66.0179 81.18V90.54C66.0179 92.75 67.7079 94.44 69.6579 94.44H87.2079C89.1579 94.44 90.8479 92.75 90.8479 90.8V81.18C90.8479 79.1 89.1579 77.54 87.2079 77.54H69.6579C67.7079 77.54 66.0179 79.1 66.0179 81.18ZM206.938 29.7V79.36C206.938 81.57 208.628 83 210.578 83H218.378C220.458 83 222.018 81.31 222.018 79.36V29.7C222.018 27.62 220.458 26.06 218.378 26.06H210.578C208.628 26.06 206.938 27.62 206.938 29.7ZM217.728 100.68H211.488C208.108 100.68 207.328 103.02 207.328 104.32V107.57C207.328 110.82 206.158 111.21 201.868 111.21H193.678C190.428 111.21 188.998 110.82 188.998 107.7C188.998 101.46 189.388 95.09 189.388 88.72V28.92C189.388 24.37 189.128 19.69 189.128 15.14C189.128 9.02999 192.768 7.85999 198.098 7.85999C201.998 7.85999 206.028 8.12 209.928 8.12H219.288C223.188 8.12 227.088 7.85999 230.988 7.85999C236.188 7.85999 240.218 8.89999 240.218 15.01C240.218 19.69 239.958 24.37 239.958 28.92V88.2C239.958 94.44 240.348 100.68 240.348 106.92C240.348 110.3 238.918 110.69 235.278 110.69H227.088C223.448 110.69 221.758 110.43 221.758 107.44V104.58C221.758 102.11 220.068 100.68 217.728 100.68ZM165.598 77.41V93.4C165.598 100.16 165.988 106.92 165.988 113.68C165.988 117.06 164.688 117.32 160.138 117.32H152.598C148.438 117.32 147.008 116.93 147.008 113.81C147.008 107.18 147.398 100.68 147.398 94.18C147.398 93.4 147.268 92.23 146.228 92.23C145.318 92.23 144.668 93.27 144.278 93.92C141.028 99.38 140.638 99.77 139.078 99.77C136.348 99.77 132.188 96.39 129.978 94.7C128.158 93.4 124.908 91.45 124.908 88.98C124.908 87.81 126.598 85.99 127.248 84.95C134.138 76.5 138.818 68.7 142.848 58.56C143.108 57.65 144.538 53.88 144.538 53.1C144.538 51.15 142.848 51.02 141.418 51.02H139.728C135.828 51.02 132.188 51.28 130.368 51.28C127.768 51.28 127.508 49.85 127.508 46.6V38.41C127.508 34.51 127.768 33.21 130.368 33.21C132.448 33.21 135.828 33.47 139.728 33.47H144.278C145.968 33.47 147.398 32.17 147.398 30.35V28.14C147.398 26.32 146.748 25.15 144.798 25.15C144.148 25.15 142.588 25.41 141.808 25.54C140.508 25.67 137.128 26.06 135.958 26.06C132.708 26.06 131.408 23.33 129.588 19.95C128.808 18.52 126.598 14.49 126.598 13.06C126.598 10.85 129.198 10.98 131.408 10.72C141.938 9.42 160.918 6.03999 170.018 1.22999C170.668 0.969996 171.578 0.449995 172.358 0.449995C173.918 0.449995 175.738 2.79 179.248 6.55999L184.318 12.02C185.098 12.8 186.788 14.62 186.788 15.79C186.788 16.57 186.138 16.96 185.358 16.96C184.968 16.96 184.058 16.7 183.668 16.57C183.148 16.44 182.498 16.31 181.978 16.31C181.328 16.31 172.098 19.43 170.408 19.82C166.638 20.86 165.598 21.77 165.598 25.8V30.35C165.598 32.17 167.028 33.47 168.718 33.47H173.398C177.298 33.47 180.678 33.21 182.758 33.21C185.358 33.21 185.618 34.77 185.618 38.41V45.95C185.618 49.85 185.358 51.28 182.758 51.28C180.808 51.28 177.168 51.02 173.528 51.02C172.358 51.02 171.188 51.28 171.188 52.58C171.188 55.05 180.938 65.58 183.018 67.79C183.928 68.7 185.358 70 185.358 71.17C185.358 73.25 182.368 76.5 180.938 77.93L179.898 78.97C178.338 80.53 176.648 82.61 174.828 82.61C173.138 82.61 169.498 77.93 168.458 76.5C168.068 75.98 167.548 75.2 166.768 75.2C165.728 75.2 165.598 76.63 165.598 77.41Z" fill="#D2B179"/>
</svg>
